<svg width="355" height="151" viewBox="0 0 355 151" fill="none" xmlns="http://www.w3.org/2000/svg">
<path d="M3.84 32V22.2H4.82V31.02H9.321V32H3.84ZM13.2227 32.182C12.5787 32.182 11.9907 32.0163 11.4587 31.685C10.9314 31.3537 10.5091 30.9103 10.1917 30.355C9.87907 29.795 9.72273 29.1767 9.72273 28.5C9.72273 27.9867 9.81373 27.5083 9.99573 27.065C10.1777 26.617 10.4274 26.225 10.7447 25.889C11.0667 25.5483 11.4401 25.2823 11.8647 25.091C12.2894 24.8997 12.7421 24.804 13.2227 24.804C13.7407 24.804 14.2167 24.9067 14.6507 25.112C15.0894 25.3173 15.4651 25.6043 15.7777 25.973C16.0951 26.3417 16.3331 26.7733 16.4917 27.268C16.6551 27.7627 16.7227 28.297 16.6947 28.871H10.7587C10.8147 29.3143 10.9547 29.711 11.1787 30.061C11.4074 30.411 11.6967 30.6887 12.0467 30.894C12.4014 31.0947 12.7934 31.1973 13.2227 31.202C13.6894 31.202 14.1094 31.0807 14.4827 30.838C14.8607 30.5953 15.1641 30.2617 15.3927 29.837L16.3867 30.068C16.1067 30.6887 15.6844 31.1973 15.1197 31.594C14.5551 31.986 13.9227 32.182 13.2227 32.182ZM10.7307 28.08H15.7077C15.6751 27.646 15.5421 27.2493 15.3087 26.89C15.0801 26.526 14.7837 26.2367 14.4197 26.022C14.0557 25.8027 13.6567 25.693 13.2227 25.693C12.7887 25.693 12.3921 25.8003 12.0327 26.015C11.6734 26.225 11.3794 26.512 11.1507 26.876C10.9221 27.2353 10.7821 27.6367 10.7307 28.08ZM21.3486 25.98H19.6756L19.6686 32H18.6886L18.6956 25.98H17.4286V25H18.6956L18.6886 22.802H19.6686L19.6756 25H21.3486V25.98Z" fill="#50320C"/>
<circle cx="98.5" cy="27.5" r="6.5" fill="#D9D9D9"/>
<circle cx="125.5" cy="27.5" r="6.5" fill="#D9D9D9"/>
<circle cx="152.5" cy="27.5" r="6.5" fill="#457E33"/>
<circle cx="179.5" cy="27.5" r="6.5" fill="#D9D9D9"/>
<circle cx="206.5" cy="27.5" r="6.5" fill="#D9D9D9"/>
<circle cx="233.5" cy="27.5" r="6.5" fill="#D9D9D9"/>
<circle cx="260.5" cy="27.5" r="6.5" fill="#D9D9D9"/>
<path d="M308.133 32H306.866L303.653 27.597L302.82 28.598V32H301.84V22.2H302.82V27.072L306.901 22.2H308.182L304.297 26.827L308.133 32ZM309.305 32V25H310.285V25.966C310.532 25.6113 310.854 25.329 311.251 25.119C311.648 24.909 312.079 24.804 312.546 24.804C312.817 24.804 313.078 24.839 313.33 24.909L312.931 25.882C312.735 25.8213 312.544 25.791 312.357 25.791C311.979 25.791 311.631 25.8843 311.314 26.071C311.001 26.2577 310.752 26.5073 310.565 26.82C310.378 27.1327 310.285 27.4803 310.285 27.863V32H309.305ZM319.598 25H320.578V32H319.598L319.563 30.698C319.334 31.1413 319.015 31.5007 318.604 31.776C318.193 32.0467 317.703 32.182 317.134 32.182C316.621 32.182 316.14 32.0863 315.692 31.895C315.244 31.699 314.85 31.4307 314.509 31.09C314.168 30.7493 313.902 30.355 313.711 29.907C313.52 29.459 313.424 28.9783 313.424 28.465C313.424 27.961 313.517 27.4873 313.704 27.044C313.895 26.6007 314.157 26.211 314.488 25.875C314.824 25.539 315.211 25.2777 315.65 25.091C316.093 24.8997 316.567 24.804 317.071 24.804C317.654 24.804 318.163 24.944 318.597 25.224C319.031 25.4993 319.376 25.861 319.633 26.309L319.598 25ZM317.113 31.23C317.612 31.23 318.042 31.1087 318.401 30.866C318.76 30.6187 319.036 30.2873 319.227 29.872C319.423 29.4567 319.521 28.9993 319.521 28.5C319.521 27.9867 319.423 27.5247 319.227 27.114C319.031 26.6987 318.753 26.3697 318.394 26.127C318.035 25.8843 317.608 25.763 317.113 25.763C316.618 25.763 316.166 25.8867 315.755 26.134C315.349 26.3767 315.025 26.7057 314.782 27.121C314.544 27.5363 314.425 27.996 314.425 28.5C314.425 29.0087 314.549 29.4707 314.796 29.886C315.043 30.2967 315.37 30.6233 315.776 30.866C316.187 31.1087 316.632 31.23 317.113 31.23ZM323.428 23.173V25H325.528V25.98H323.428V32H322.448V25.98H321.489V25H322.448V23.173C322.448 22.8323 322.529 22.5243 322.693 22.249C322.861 21.969 323.085 21.7473 323.365 21.584C323.645 21.416 323.955 21.332 324.296 21.332C324.543 21.332 324.781 21.381 325.01 21.479C325.243 21.577 325.451 21.7217 325.633 21.913L324.933 22.606C324.858 22.5127 324.762 22.4403 324.646 22.389C324.534 22.3377 324.417 22.312 324.296 22.312C324.058 22.312 323.852 22.396 323.68 22.564C323.512 22.732 323.428 22.935 323.428 23.173ZM330.464 25.98H328.791L328.784 32H327.804L327.811 25.98H326.544V25H327.811L327.804 22.802H328.784L328.791 25H330.464V25.98ZM331.658 25H332.638V32H331.658V25ZM332.155 23.775C331.997 23.775 331.861 23.7237 331.749 23.621C331.642 23.5137 331.588 23.3807 331.588 23.222C331.588 23.0633 331.642 22.9327 331.749 22.83C331.861 22.7227 331.997 22.669 332.155 22.669C332.309 22.669 332.44 22.7227 332.547 22.83C332.659 22.9327 332.715 23.0633 332.715 23.222C332.715 23.3807 332.662 23.5137 332.554 23.621C332.447 23.7237 332.314 23.775 332.155 23.775ZM339.821 25H340.801V32.259C340.801 32.707 340.703 33.127 340.507 33.519C340.316 33.911 340.054 34.254 339.723 34.548C339.396 34.8467 339.023 35.08 338.603 35.248C338.183 35.416 337.747 35.5 337.294 35.5C336.809 35.5 336.34 35.388 335.887 35.164C335.434 34.9447 335.04 34.6507 334.704 34.282C334.373 33.9133 334.137 33.505 333.997 33.057L334.9 32.644C334.989 32.994 335.154 33.309 335.397 33.589C335.644 33.8737 335.934 34.0977 336.265 34.261C336.601 34.429 336.944 34.513 337.294 34.513C337.616 34.513 337.926 34.4523 338.225 34.331C338.528 34.2143 338.799 34.0533 339.037 33.848C339.28 33.6427 339.471 33.4023 339.611 33.127C339.751 32.8563 339.821 32.567 339.821 32.259V30.712C339.578 31.1507 339.249 31.5053 338.834 31.776C338.423 32.0467 337.945 32.182 337.399 32.182C336.909 32.182 336.447 32.0863 336.013 31.895C335.584 31.7037 335.206 31.44 334.879 31.104C334.552 30.7633 334.296 30.3713 334.109 29.928C333.927 29.4847 333.836 29.0087 333.836 28.5C333.836 27.9913 333.927 27.5153 334.109 27.072C334.296 26.624 334.552 26.232 334.879 25.896C335.206 25.5553 335.584 25.2893 336.013 25.098C336.447 24.9067 336.909 24.811 337.399 24.811C337.945 24.811 338.423 24.9463 338.834 25.217C339.249 25.483 339.578 25.8377 339.821 26.281V25ZM337.406 31.23C337.891 31.23 338.309 31.104 338.659 30.852C339.014 30.6 339.287 30.2663 339.478 29.851C339.669 29.4357 339.765 28.9853 339.765 28.5C339.765 28.0007 339.667 27.5457 339.471 27.135C339.28 26.7197 339.007 26.3883 338.652 26.141C338.297 25.889 337.882 25.763 337.406 25.763C336.93 25.763 336.496 25.8867 336.104 26.134C335.717 26.3767 335.409 26.7057 335.18 27.121C334.951 27.5363 334.837 27.996 334.837 28.5C334.837 29.004 334.954 29.4637 335.187 29.879C335.42 30.2897 335.731 30.6187 336.118 30.866C336.51 31.1087 336.939 31.23 337.406 31.23Z" fill="#50320C"/>
<path d="M11.253 70.2V71.18H7.893V80H6.913V71.18H3.56V70.2H11.253ZM12.8806 80.385L12.1526 79.965L12.4956 79.384C12.0849 79.048 11.7559 78.6303 11.5086 78.131C11.2659 77.627 11.1446 77.0833 11.1446 76.5C11.1446 75.9867 11.2356 75.5083 11.4176 75.065C11.5996 74.617 11.8493 74.225 12.1666 73.889C12.4886 73.5483 12.8619 73.2823 13.2866 73.091C13.7113 72.8997 14.1639 72.804 14.6446 72.804C14.9059 72.804 15.1579 72.8343 15.4006 72.895C15.6433 72.951 15.8719 73.0327 16.0866 73.14L16.4156 72.587L17.1436 73.007L16.8076 73.595C17.2136 73.931 17.5379 74.351 17.7806 74.855C18.0233 75.3543 18.1446 75.9027 18.1446 76.5C18.1446 77.0087 18.0536 77.4847 17.8716 77.928C17.6896 78.3713 17.4376 78.7633 17.1156 79.104C16.7983 79.44 16.4273 79.7037 16.0026 79.895C15.5826 80.0863 15.1299 80.182 14.6446 80.182C14.3879 80.182 14.1359 80.1493 13.8886 80.084C13.6459 80.0233 13.4149 79.9417 13.1956 79.839L12.8806 80.385ZM12.9786 78.544L15.6316 73.938C15.2116 73.7467 14.7916 73.6813 14.3716 73.742C13.9516 73.8027 13.5666 73.9613 13.2166 74.218C12.8713 74.4747 12.5936 74.8037 12.3836 75.205C12.1736 75.6063 12.0686 76.052 12.0686 76.542C12.0686 76.9527 12.1503 77.3307 12.3136 77.676C12.4816 78.0213 12.7033 78.3107 12.9786 78.544ZM13.6576 79.041C14.0916 79.2323 14.5186 79.2977 14.9386 79.237C15.3633 79.1763 15.7459 79.0177 16.0866 78.761C16.4319 78.5043 16.7073 78.1777 16.9126 77.781C17.1179 77.3797 17.2206 76.9387 17.2206 76.458C17.2206 76.0473 17.1389 75.667 16.9756 75.317C16.8123 74.967 16.5929 74.673 16.3176 74.435L13.6576 79.041ZM19.3302 80V73H20.3102V73.966C20.5576 73.6113 20.8796 73.329 21.2762 73.119C21.6729 72.909 22.1046 72.804 22.5712 72.804C22.8419 72.804 23.1032 72.839 23.3552 72.909L22.9562 73.882C22.7602 73.8213 22.5689 73.791 22.3822 73.791C22.0042 73.791 21.6566 73.8843 21.3392 74.071C21.0266 74.2577 20.7769 74.5073 20.5902 74.82C20.4036 75.1327 20.3102 75.4803 20.3102 75.863V80H19.3302Z" fill="#50320C"/>
<circle cx="97.5" cy="75.5" r="6.5" fill="#D9D9D9"/>
<circle cx="124.5" cy="75.5" r="6.5" fill="#D9D9D9"/>
<circle cx="151.5" cy="75.5" r="6.5" fill="#D9D9D9"/>
<circle cx="178.5" cy="75.5" r="6.5" fill="#D9D9D9"/>
<circle cx="205.5" cy="75.5" r="6.5" fill="#457E33"/>
<circle cx="232.5" cy="75.5" r="6.5" fill="#D9D9D9"/>
<circle cx="259.5" cy="75.5" r="6.5" fill="#D9D9D9"/>
<path d="M306.263 80.182C305.74 80.182 305.234 80.1003 304.744 79.937C304.259 79.7737 303.834 79.5403 303.47 79.237C303.106 78.9337 302.849 78.572 302.7 78.152L303.617 77.809C303.72 78.0983 303.906 78.348 304.177 78.558C304.452 78.7633 304.772 78.922 305.136 79.034C305.505 79.146 305.88 79.202 306.263 79.202C306.711 79.202 307.129 79.1273 307.516 78.978C307.903 78.8287 308.216 78.621 308.454 78.355C308.692 78.0843 308.811 77.767 308.811 77.403C308.811 77.0343 308.687 76.731 308.44 76.493C308.193 76.255 307.873 76.0683 307.481 75.933C307.094 75.793 306.688 75.6857 306.263 75.611C305.596 75.4943 304.996 75.3357 304.464 75.135C303.937 74.9343 303.519 74.652 303.211 74.288C302.903 73.9193 302.749 73.434 302.749 72.832C302.749 72.2673 302.912 71.7773 303.239 71.362C303.566 70.9467 303.995 70.6247 304.527 70.396C305.064 70.1673 305.642 70.053 306.263 70.053C306.772 70.053 307.269 70.1323 307.754 70.291C308.239 70.4497 308.666 70.6807 309.035 70.984C309.408 71.2873 309.677 71.6583 309.84 72.097L308.909 72.433C308.806 72.139 308.617 71.8893 308.342 71.684C308.071 71.474 307.754 71.3153 307.39 71.208C307.026 71.096 306.65 71.04 306.263 71.04C305.82 71.0353 305.404 71.11 305.017 71.264C304.634 71.4133 304.324 71.6233 304.086 71.894C303.848 72.16 303.729 72.4727 303.729 72.832C303.729 73.252 303.839 73.5763 304.058 73.805C304.282 74.029 304.585 74.197 304.968 74.309C305.351 74.421 305.782 74.5213 306.263 74.61C306.888 74.7173 307.469 74.8853 308.006 75.114C308.543 75.338 308.974 75.639 309.301 76.017C309.628 76.3903 309.791 76.8523 309.791 77.403C309.791 77.963 309.628 78.453 309.301 78.873C308.974 79.2883 308.543 79.6103 308.006 79.839C307.474 80.0677 306.893 80.182 306.263 80.182ZM312.605 80.385L311.877 79.965L312.22 79.384C311.81 79.048 311.481 78.6303 311.233 78.131C310.991 77.627 310.869 77.0833 310.869 76.5C310.869 75.9867 310.96 75.5083 311.142 75.065C311.324 74.617 311.574 74.225 311.891 73.889C312.213 73.5483 312.587 73.2823 313.011 73.091C313.436 72.8997 313.889 72.804 314.369 72.804C314.631 72.804 314.883 72.8343 315.125 72.895C315.368 72.951 315.597 73.0327 315.811 73.14L316.14 72.587L316.868 73.007L316.532 73.595C316.938 73.931 317.263 74.351 317.505 74.855C317.748 75.3543 317.869 75.9027 317.869 76.5C317.869 77.0087 317.778 77.4847 317.596 77.928C317.414 78.3713 317.162 78.7633 316.84 79.104C316.523 79.44 316.152 79.7037 315.727 79.895C315.307 80.0863 314.855 80.182 314.369 80.182C314.113 80.182 313.861 80.1493 313.613 80.084C313.371 80.0233 313.14 79.9417 312.92 79.839L312.605 80.385ZM312.703 78.544L315.356 73.938C314.936 73.7467 314.516 73.6813 314.096 73.742C313.676 73.8027 313.291 73.9613 312.941 74.218C312.596 74.4747 312.318 74.8037 312.108 75.205C311.898 75.6063 311.793 76.052 311.793 76.542C311.793 76.9527 311.875 77.3307 312.038 77.676C312.206 78.0213 312.428 78.3107 312.703 78.544ZM313.382 79.041C313.816 79.2323 314.243 79.2977 314.663 79.237C315.088 79.1763 315.471 79.0177 315.811 78.761C316.157 78.5043 316.432 78.1777 316.637 77.781C316.843 77.3797 316.945 76.9387 316.945 76.458C316.945 76.0473 316.864 75.667 316.7 75.317C316.537 74.967 316.318 74.673 316.042 74.435L313.382 79.041ZM324.747 69.5H325.727V80H324.747V78.691C324.505 79.139 324.171 79.5007 323.746 79.776C323.326 80.0467 322.827 80.182 322.248 80.182C321.74 80.182 321.264 80.0863 320.82 79.895C320.377 79.7037 319.985 79.44 319.644 79.104C319.308 78.7633 319.045 78.3713 318.853 77.928C318.662 77.4847 318.566 77.0087 318.566 76.5C318.566 75.9913 318.662 75.5153 318.853 75.072C319.045 74.624 319.308 74.232 319.644 73.896C319.985 73.5553 320.377 73.2893 320.82 73.098C321.264 72.9067 321.74 72.811 322.248 72.811C322.827 72.811 323.326 72.9487 323.746 73.224C324.171 73.4947 324.505 73.8517 324.747 74.295V69.5ZM322.255 79.23C322.755 79.23 323.184 79.1087 323.543 78.866C323.903 78.6187 324.178 78.2873 324.369 77.872C324.565 77.4567 324.663 76.9993 324.663 76.5C324.663 75.9867 324.565 75.5247 324.369 75.114C324.173 74.6987 323.896 74.3697 323.536 74.127C323.177 73.8843 322.75 73.763 322.255 73.763C321.761 73.763 321.31 73.8867 320.904 74.134C320.498 74.3767 320.174 74.7057 319.931 75.121C319.689 75.5363 319.567 75.996 319.567 76.5C319.567 77.0087 319.691 77.4707 319.938 77.886C320.186 78.2967 320.512 78.6233 320.918 78.866C321.329 79.1087 321.775 79.23 322.255 79.23Z" fill="#50320C"/>
<path d="M3.84 128V118.2H4.82V127.02H9.321V128H3.84ZM15.8967 121H16.8767V128H15.8967L15.8617 126.698C15.6331 127.141 15.3134 127.501 14.9027 127.776C14.4921 128.047 14.0021 128.182 13.4327 128.182C12.9194 128.182 12.4387 128.086 11.9907 127.895C11.5427 127.699 11.1484 127.431 10.8077 127.09C10.4671 126.749 10.2011 126.355 10.0097 125.907C9.8184 125.459 9.72273 124.978 9.72273 124.465C9.72273 123.961 9.81607 123.487 10.0027 123.044C10.1941 122.601 10.4554 122.211 10.7867 121.875C11.1227 121.539 11.5101 121.278 11.9487 121.091C12.3921 120.9 12.8657 120.804 13.3697 120.804C13.9531 120.804 14.4617 120.944 14.8957 121.224C15.3297 121.499 15.6751 121.861 15.9317 122.309L15.8967 121ZM13.4117 127.23C13.9111 127.23 14.3404 127.109 14.6997 126.866C15.0591 126.619 15.3344 126.287 15.5257 125.872C15.7217 125.457 15.8197 124.999 15.8197 124.5C15.8197 123.987 15.7217 123.525 15.5257 123.114C15.3297 122.699 15.0521 122.37 14.6927 122.127C14.3334 121.884 13.9064 121.763 13.4117 121.763C12.9171 121.763 12.4644 121.887 12.0537 122.134C11.6477 122.377 11.3234 122.706 11.0807 123.121C10.8427 123.536 10.7237 123.996 10.7237 124.5C10.7237 125.009 10.8474 125.471 11.0947 125.886C11.3421 126.297 11.6687 126.623 12.0747 126.866C12.4854 127.109 12.9311 127.23 13.4117 127.23ZM21.5218 128H20.2758L17.7208 120.979H18.7638L20.8988 126.852L23.0338 120.979H24.0768L21.5218 128ZM30.8585 128.133C30.4758 128.124 30.1025 128.054 29.7385 127.923C29.3745 127.792 29.0571 127.615 28.7865 127.391C28.5158 127.167 28.3221 126.913 28.2055 126.628L29.0525 126.264C29.1271 126.446 29.2648 126.614 29.4655 126.768C29.6708 126.917 29.9041 127.039 30.1655 127.132C30.4268 127.221 30.6858 127.265 30.9425 127.265C31.2271 127.265 31.4931 127.218 31.7405 127.125C31.9878 127.032 32.1885 126.899 32.3425 126.726C32.5011 126.549 32.5805 126.341 32.5805 126.103C32.5805 125.846 32.4965 125.646 32.3285 125.501C32.1605 125.352 31.9481 125.235 31.6915 125.151C31.4348 125.062 31.1711 124.978 30.9005 124.899C30.4058 124.764 29.9695 124.614 29.5915 124.451C29.2135 124.288 28.9171 124.08 28.7025 123.828C28.4925 123.571 28.3875 123.242 28.3875 122.841C28.3875 122.416 28.5065 122.05 28.7445 121.742C28.9871 121.429 29.3021 121.189 29.6895 121.021C30.0815 120.848 30.4991 120.762 30.9425 120.762C31.5118 120.762 32.0298 120.886 32.4965 121.133C32.9678 121.38 33.3085 121.709 33.5185 122.12L32.7275 122.589C32.6435 122.398 32.5105 122.232 32.3285 122.092C32.1465 121.952 31.9388 121.842 31.7055 121.763C31.4768 121.684 31.2435 121.642 31.0055 121.637C30.7068 121.632 30.4291 121.677 30.1725 121.77C29.9158 121.859 29.7081 121.992 29.5495 122.169C29.3955 122.346 29.3185 122.563 29.3185 122.82C29.3185 123.077 29.3955 123.273 29.5495 123.408C29.7035 123.539 29.9111 123.646 30.1725 123.73C30.4385 123.809 30.7371 123.903 31.0685 124.01C31.4931 124.145 31.8921 124.299 32.2655 124.472C32.6388 124.645 32.9398 124.859 33.1685 125.116C33.3971 125.373 33.5091 125.697 33.5045 126.089C33.5045 126.509 33.3785 126.875 33.1265 127.188C32.8745 127.501 32.5478 127.741 32.1465 127.909C31.7451 128.072 31.3158 128.147 30.8585 128.133ZM39.2737 121H40.3097L36.4807 131.5H35.4377L36.7117 128L34.1987 121H35.2697L37.2017 126.649L39.2737 121ZM41.588 128V121H42.568V121.966C42.8154 121.611 43.1374 121.329 43.534 121.119C43.9307 120.909 44.3624 120.804 44.829 120.804C45.0997 120.804 45.361 120.839 45.613 120.909L45.214 121.882C45.018 121.821 44.8267 121.791 44.64 121.791C44.262 121.791 43.9144 121.884 43.597 122.071C43.2844 122.258 43.0347 122.507 42.848 122.82C42.6614 123.133 42.568 123.48 42.568 123.863V128H41.588ZM49.2071 128.182C48.5631 128.182 47.9751 128.016 47.4431 127.685C46.9158 127.354 46.4934 126.91 46.1761 126.355C45.8634 125.795 45.7071 125.177 45.7071 124.5C45.7071 123.987 45.7981 123.508 45.9801 123.065C46.1621 122.617 46.4118 122.225 46.7291 121.889C47.0511 121.548 47.4244 121.282 47.8491 121.091C48.2738 120.9 48.7264 120.804 49.2071 120.804C49.7251 120.804 50.2011 120.907 50.6351 121.112C51.0738 121.317 51.4494 121.604 51.7621 121.973C52.0794 122.342 52.3174 122.773 52.4761 123.268C52.6394 123.763 52.7071 124.297 52.6791 124.871H46.7431C46.7991 125.314 46.9391 125.711 47.1631 126.061C47.3918 126.411 47.6811 126.689 48.0311 126.894C48.3858 127.095 48.7778 127.197 49.2071 127.202C49.6738 127.202 50.0938 127.081 50.4671 126.838C50.8451 126.595 51.1484 126.262 51.3771 125.837L52.3711 126.068C52.0911 126.689 51.6688 127.197 51.1041 127.594C50.5394 127.986 49.9071 128.182 49.2071 128.182ZM46.7151 124.08H51.6921C51.6594 123.646 51.5264 123.249 51.2931 122.89C51.0644 122.526 50.7681 122.237 50.4041 122.022C50.0401 121.803 49.6411 121.693 49.2071 121.693C48.7731 121.693 48.3764 121.8 48.0171 122.015C47.6578 122.225 47.3638 122.512 47.1351 122.876C46.9064 123.235 46.7664 123.637 46.7151 124.08Z" fill="#50320C"/>
<circle cx="97.5" cy="123.5" r="6.5" fill="#D9D9D9"/>
<circle cx="124.5" cy="123.5" r="6.5" fill="#D9D9D9"/>
<circle cx="151.5" cy="123.5" r="6.5" fill="#D9D9D9"/>
<circle cx="178.5" cy="123.5" r="6.5" fill="#D9D9D9"/>
<circle cx="205.5" cy="123.5" r="6.5" fill="#D9D9D9"/>
<circle cx="232.5" cy="123.5" r="6.5" fill="#457E33"/>
<circle cx="259.5" cy="123.5" r="6.5" fill="#D9D9D9"/>
<path d="M309.965 118.2H310.945V128H309.965V123.24H304.82V128H303.84V118.2H304.82V122.26H309.965V118.2ZM313.892 128.385L313.164 127.965L313.507 127.384C313.097 127.048 312.768 126.63 312.52 126.131C312.278 125.627 312.156 125.083 312.156 124.5C312.156 123.987 312.247 123.508 312.429 123.065C312.611 122.617 312.861 122.225 313.178 121.889C313.5 121.548 313.874 121.282 314.298 121.091C314.723 120.9 315.176 120.804 315.656 120.804C315.918 120.804 316.17 120.834 316.412 120.895C316.655 120.951 316.884 121.033 317.098 121.14L317.427 120.587L318.155 121.007L317.819 121.595C318.225 121.931 318.55 122.351 318.792 122.855C319.035 123.354 319.156 123.903 319.156 124.5C319.156 125.009 319.065 125.485 318.883 125.928C318.701 126.371 318.449 126.763 318.127 127.104C317.81 127.44 317.439 127.704 317.014 127.895C316.594 128.086 316.142 128.182 315.656 128.182C315.4 128.182 315.148 128.149 314.9 128.084C314.658 128.023 314.427 127.942 314.207 127.839L313.892 128.385ZM313.99 126.544L316.643 121.938C316.223 121.747 315.803 121.681 315.383 121.742C314.963 121.803 314.578 121.961 314.228 122.218C313.883 122.475 313.605 122.804 313.395 123.205C313.185 123.606 313.08 124.052 313.08 124.542C313.08 124.953 313.162 125.331 313.325 125.676C313.493 126.021 313.715 126.311 313.99 126.544ZM314.669 127.041C315.103 127.232 315.53 127.298 315.95 127.237C316.375 127.176 316.758 127.018 317.098 126.761C317.444 126.504 317.719 126.178 317.924 125.781C318.13 125.38 318.232 124.939 318.232 124.458C318.232 124.047 318.151 123.667 317.987 123.317C317.824 122.967 317.605 122.673 317.329 122.435L314.669 127.041ZM318.874 131.5V130.52C319.224 130.52 319.536 130.443 319.812 130.289C320.087 130.135 320.304 129.923 320.463 129.652C320.621 129.386 320.701 129.087 320.701 128.756V121H321.681V128.756C321.681 129.26 321.557 129.72 321.31 130.135C321.067 130.55 320.733 130.882 320.309 131.129C319.889 131.376 319.41 131.5 318.874 131.5ZM321.198 119.775C321.039 119.775 320.904 119.724 320.792 119.621C320.684 119.514 320.631 119.381 320.631 119.222C320.631 119.063 320.684 118.933 320.792 118.83C320.904 118.723 321.039 118.669 321.198 118.669C321.352 118.669 321.482 118.723 321.59 118.83C321.702 118.933 321.758 119.063 321.758 119.222C321.758 119.381 321.704 119.514 321.597 119.621C321.489 119.724 321.356 119.775 321.198 119.775ZM328.89 128.133C328.507 128.124 328.134 128.054 327.77 127.923C327.406 127.792 327.088 127.615 326.818 127.391C326.547 127.167 326.353 126.913 326.237 126.628L327.084 126.264C327.158 126.446 327.296 126.614 327.497 126.768C327.702 126.917 327.935 127.039 328.197 127.132C328.458 127.221 328.717 127.265 328.974 127.265C329.258 127.265 329.524 127.218 329.772 127.125C330.019 127.032 330.22 126.899 330.374 126.726C330.532 126.549 330.612 126.341 330.612 126.103C330.612 125.846 330.528 125.646 330.36 125.501C330.192 125.352 329.979 125.235 329.723 125.151C329.466 125.062 329.202 124.978 328.932 124.899C328.437 124.764 328.001 124.614 327.623 124.451C327.245 124.288 326.948 124.08 326.734 123.828C326.524 123.571 326.419 123.242 326.419 122.841C326.419 122.416 326.538 122.05 326.776 121.742C327.018 121.429 327.333 121.189 327.721 121.021C328.113 120.848 328.53 120.762 328.974 120.762C329.543 120.762 330.061 120.886 330.528 121.133C330.999 121.38 331.34 121.709 331.55 122.12L330.759 122.589C330.675 122.398 330.542 122.232 330.36 122.092C330.178 121.952 329.97 121.842 329.737 121.763C329.508 121.684 329.275 121.642 329.037 121.637C328.738 121.632 328.46 121.677 328.204 121.77C327.947 121.859 327.739 121.992 327.581 122.169C327.427 122.346 327.35 122.563 327.35 122.82C327.35 123.077 327.427 123.273 327.581 123.408C327.735 123.539 327.942 123.646 328.204 123.73C328.47 123.809 328.768 123.903 329.1 124.01C329.524 124.145 329.923 124.299 330.297 124.472C330.67 124.645 330.971 124.859 331.2 125.116C331.428 125.373 331.54 125.697 331.536 126.089C331.536 126.509 331.41 126.875 331.158 127.188C330.906 127.501 330.579 127.741 330.178 127.909C329.776 128.072 329.347 128.147 328.89 128.133ZM337.305 121H338.341L334.512 131.5H333.469L334.743 128L332.23 121H333.301L335.233 126.649L337.305 121ZM339.619 128V121H340.599V121.966C340.847 121.611 341.169 121.329 341.565 121.119C341.962 120.909 342.394 120.804 342.86 120.804C343.131 120.804 343.392 120.839 343.644 120.909L343.245 121.882C343.049 121.821 342.858 121.791 342.671 121.791C342.293 121.791 341.946 121.884 341.628 122.071C341.316 122.258 341.066 122.507 340.879 122.82C340.693 123.133 340.599 123.48 340.599 123.863V128H339.619ZM347.238 128.182C346.594 128.182 346.006 128.016 345.474 127.685C344.947 127.354 344.525 126.91 344.207 126.355C343.895 125.795 343.738 125.177 343.738 124.5C343.738 123.987 343.829 123.508 344.011 123.065C344.193 122.617 344.443 122.225 344.76 121.889C345.082 121.548 345.456 121.282 345.88 121.091C346.305 120.9 346.758 120.804 347.238 120.804C347.756 120.804 348.232 120.907 348.666 121.112C349.105 121.317 349.481 121.604 349.793 121.973C350.111 122.342 350.349 122.773 350.507 123.268C350.671 123.763 350.738 124.297 350.71 124.871H344.774C344.83 125.314 344.97 125.711 345.194 126.061C345.423 126.411 345.712 126.689 346.062 126.894C346.417 127.095 346.809 127.197 347.238 127.202C347.705 127.202 348.125 127.081 348.498 126.838C348.876 126.595 349.18 126.262 349.408 125.837L350.402 126.068C350.122 126.689 349.7 127.197 349.135 127.594C348.571 127.986 347.938 128.182 347.238 128.182ZM344.746 124.08H349.723C349.691 123.646 349.558 123.249 349.324 122.89C349.096 122.526 348.799 122.237 348.435 122.022C348.071 121.803 347.672 121.693 347.238 121.693C346.804 121.693 346.408 121.8 346.048 122.015C345.689 122.225 345.395 122.512 345.166 122.876C344.938 123.235 344.798 123.637 344.746 124.08Z" fill="#50320C"/>
</svg>
