<svg width="35" height="36" viewBox="0 0 35 36" fill="none" xmlns="http://www.w3.org/2000/svg">
<g clip-path="url(#clip0_81_1679)">
<path d="M17.5 0.5C7.8351 0.5 0 8.3351 0 18C0 26.2068 5.6504 33.0934 13.2727 34.9848V23.348H9.6642V18H13.2727V15.6956C13.2727 9.7393 15.9684 6.9785 21.8162 6.9785C22.925 6.9785 24.8381 7.1962 25.6207 7.4132V12.2607C25.2077 12.2173 24.4902 12.1956 23.5991 12.1956C20.7298 12.1956 19.621 13.2827 19.621 16.1086V18H25.3372L24.3551 23.348H19.621V35.3719C28.2863 34.3254 35.0007 26.9474 35.0007 18C35 8.3351 27.1649 0.5 17.5 0.5Z" fill="#46320B"/>
</g>
<defs>
<clipPath id="clip0_81_1679">
<rect width="35" height="35" fill="white" transform="translate(0 0.5)"/>
</clipPath>
</defs>
</svg>
