<svg width="35" height="36" viewBox="0 0 35 36" fill="none" xmlns="http://www.w3.org/2000/svg">
<g clip-path="url(#clip0_81_1687)">
<path d="M32.4092 0.5H2.58398C1.15527 0.5 0 1.62793 0 3.02246V32.9707C0 34.3652 1.15527 35.5 2.58398 35.5H32.4092C33.8379 35.5 35 34.3652 35 32.9775V3.02246C35 1.62793 33.8379 0.5 32.4092 0.5ZM10.3838 30.3252H5.18848V13.6182H10.3838V30.3252ZM7.78613 11.3418C6.11816 11.3418 4.77148 9.99512 4.77148 8.33398C4.77148 6.67285 6.11816 5.32617 7.78613 5.32617C9.44727 5.32617 10.7939 6.67285 10.7939 8.33398C10.7939 9.98828 9.44727 11.3418 7.78613 11.3418ZM29.8252 30.3252H24.6367V22.2041C24.6367 20.2695 24.6025 17.7744 21.9365 17.7744C19.2363 17.7744 18.8262 19.8867 18.8262 22.0674V30.3252H13.6445V13.6182H18.6211V15.9014H18.6895C19.3799 14.5889 21.0752 13.2012 23.5977 13.2012C28.8545 13.2012 29.8252 16.6602 29.8252 21.1582V30.3252Z" fill="#46320B"/>
</g>
<defs>
<clipPath id="clip0_81_1687">
<rect width="35" height="35" fill="white" transform="translate(0 0.5)"/>
</clipPath>
</defs>
</svg>
