<svg xmlns="http://www.w3.org/2000/svg" xmlns:xlink="http://www.w3.org/1999/xlink" width="1280" zoomAndPan="magnify" viewBox="0 0 960 1307.999939" height="1744" preserveAspectRatio="xMidYMid meet" version="1.0"><defs><g/><clipPath id="93cfbf44e3"><path d="M 230.429688 662 L 688 662 L 688 743 L 230.429688 743 Z M 230.429688 662 " clip-rule="nonzero"/></clipPath><clipPath id="9090bf26eb"><path d="M 390 705 L 729.929688 705 L 729.929688 829 L 390 829 Z M 390 705 " clip-rule="nonzero"/></clipPath><clipPath id="e36a7f4250"><path d="M 399 359.746094 L 441 359.746094 L 441 369 L 399 369 Z M 399 359.746094 " clip-rule="nonzero"/></clipPath><clipPath id="758c5e5f87"><path d="M 257 313 L 365 313 L 365 348 L 257 348 Z M 257 313 " clip-rule="nonzero"/></clipPath><clipPath id="ef836e26f4"><path d="M 257.175781 316.554688 L 361.597656 305.550781 L 365.449219 342.097656 L 261.027344 353.105469 Z M 257.175781 316.554688 " clip-rule="nonzero"/></clipPath><clipPath id="1000316295"><path d="M 361.667969 305.542969 L 257.246094 316.550781 L 261.097656 353.097656 L 365.519531 342.089844 Z M 361.667969 305.542969 " clip-rule="nonzero"/></clipPath></defs><path fill="#ffffff" d="M 472.980469 589.976562 C 472.980469 612.964844 472.925781 635.953125 473.050781 658.941406 C 473.066406 661.695312 472.25 662.707031 469.597656 663.308594 C 452.480469 667.203125 435.933594 672.875 419.78125 679.722656 C 419.328125 679.917969 418.894531 680.167969 418.429688 680.320312 C 417.753906 680.546875 416.828125 681.074219 416.421875 680.820312 C 415.625 680.3125 416.488281 679.527344 416.652344 678.871094 C 418.875 669.996094 416.726562 662.550781 409.117188 657.851562 C 405.148438 655.402344 403.867188 653.167969 403.890625 648.570312 C 403.929688 640.867188 397.777344 634.03125 390.234375 632.046875 C 388.304688 631.539062 387.109375 631.160156 387.105469 628.554688 C 387.097656 618.96875 382.257812 613 372.78125 610.546875 C 370.589844 609.980469 369.511719 609.449219 370.011719 606.785156 C 370.65625 603.363281 370.296875 599.8125 368.597656 596.683594 C 367.175781 594.066406 366.917969 591.378906 366.925781 588.5 C 366.988281 567.859375 366.945312 547.21875 367.003906 526.578125 C 367.027344 517.792969 367.742188 509.074219 369.957031 500.519531 C 373.816406 485.636719 381.515625 473.292969 394.199219 464.429688 C 398.5 461.425781 400.160156 457.761719 400.257812 452.605469 C 400.636719 433.335938 401.332031 414.066406 401.902344 394.796875 C 401.949219 393.324219 401.648438 391.871094 404.039062 391.835938 C 406.570312 391.796875 406.394531 393.296875 406.429688 394.949219 C 406.867188 413.855469 407.289062 432.757812 407.796875 451.660156 C 407.925781 456.5 406.335938 460.867188 404.636719 465.242188 C 404.375 465.910156 403.84375 466.527344 404.378906 467.289062 C 404.847656 466.917969 405.410156 466.617188 405.777344 466.160156 C 408.792969 462.402344 411.617188 458.507812 414.0625 454.347656 C 415.007812 452.742188 414.925781 451.058594 414.890625 449.324219 C 414.503906 431.40625 414.1875 413.488281 413.714844 395.574219 C 413.640625 392.785156 414.238281 391.671875 417.300781 391.816406 C 422.976562 392.085938 428.671875 391.972656 434.355469 391.882812 C 436.417969 391.847656 437.433594 392.210938 437.515625 394.652344 C 438.144531 414.167969 439.015625 433.671875 439.574219 453.1875 C 439.714844 458.039062 441.300781 461.566406 445.261719 464.496094 C 462.003906 476.875 470.332031 494.011719 472.269531 514.367188 C 473.902344 531.496094 472.726562 548.703125 472.96875 565.875 C 473.085938 573.90625 472.988281 581.941406 472.988281 589.976562 C 472.988281 589.976562 472.984375 589.976562 472.980469 589.976562 Z M 448.003906 581.832031 C 448.140625 593.773438 447.628906 609.578125 446.773438 625.375 C 446.699219 626.761719 446.085938 628.160156 446.765625 629.554688 C 447.125 628.132812 447.613281 626.734375 447.820312 625.292969 C 449.546875 613.320312 450.910156 601.3125 451.824219 589.238281 C 453.515625 566.921875 454.042969 544.585938 453.761719 522.207031 C 453.582031 507.917969 449.015625 495.382812 440.113281 484.328125 C 439.664062 483.765625 439.113281 483.28125 438.605469 482.761719 C 437.839844 483.601562 438.59375 484.339844 438.816406 485.066406 C 441.957031 495.355469 444.402344 505.808594 445.53125 516.503906 C 447.6875 536.925781 448.003906 557.433594 448.003906 581.832031 Z M 376.417969 551.800781 C 376.730469 551.800781 377.046875 551.800781 377.359375 551.800781 C 377.359375 555.507812 377.269531 559.214844 377.375 562.914062 C 377.707031 574.761719 377.914062 586.617188 378.816406 598.441406 C 378.863281 599.035156 379.078125 599.617188 379.214844 600.207031 C 379.296875 599.640625 379.433594 599.078125 379.457031 598.511719 C 380.527344 573.71875 381.65625 548.925781 382.617188 524.125 C 383.097656 511.773438 385.03125 499.855469 391.429688 489.007812 C 393.6875 485.175781 395.984375 481.382812 398.835938 477.953125 C 399.152344 477.574219 399.988281 477.121094 399.246094 476.5 C 399.066406 476.347656 398.34375 476.65625 397.992188 476.917969 C 396.015625 478.390625 393.964844 479.792969 392.136719 481.441406 C 382.175781 490.449219 376.109375 501.234375 376.371094 515.128906 C 376.597656 527.351562 376.417969 539.578125 376.417969 551.800781 Z M 376.417969 551.800781 " fill-opacity="1" fill-rule="nonzero"/><g clip-path="url(#93cfbf44e3)"><path fill="#ffffff" d="M 686.429688 694.019531 C 671.84375 691.15625 657.679688 688.410156 643.351562 686.609375 C 594.132812 680.425781 545.671875 682.105469 499.046875 701.230469 C 481.589844 708.394531 464.675781 716.875 446.765625 722.945312 C 415.175781 733.652344 382.941406 741.730469 349.5 742.863281 C 309.832031 744.203125 272.242188 735.769531 237.640625 715.679688 C 236.042969 714.75 234.527344 713.667969 233.050781 712.550781 C 232.203125 711.90625 230.46875 711.3125 230.890625 710.371094 C 231.382812 709.28125 232.808594 710.359375 233.804688 710.605469 C 239.074219 711.890625 244.304688 713.347656 249.605469 714.476562 C 290.628906 723.214844 331.042969 720.773438 371.027344 708.226562 C 391.828125 701.699219 411.550781 692.710938 431.28125 683.628906 C 453.445312 673.425781 476.832031 667.65625 501.003906 664.675781 C 527.171875 661.453125 553.304688 661.988281 579.421875 664.902344 C 602.199219 667.441406 624.273438 673.203125 646.113281 679.964844 C 659.425781 684.085938 672.628906 688.535156 685.796875 693.085938 C 686.363281 693.28125 686.851562 693.703125 687.375 694.019531 C 686.917969 694.019531 686.457031 694.019531 686.429688 694.019531 Z M 686.429688 694.019531 " fill-opacity="1" fill-rule="nonzero"/></g><g clip-path="url(#9090bf26eb)"><path fill="#ffffff" d="M 467.078125 828.746094 C 441.507812 828.628906 416.722656 824.375 393.023438 814.523438 C 391.964844 814.082031 390.539062 814.058594 390.066406 812.636719 C 391.164062 812.667969 392.265625 812.652344 393.359375 812.730469 C 411.957031 814.0625 430.398438 812.878906 448.652344 809.113281 C 487.367188 801.128906 522.167969 784.410156 554.253906 761.652344 C 574.449219 747.324219 595.457031 734.449219 618.582031 725.269531 C 641.441406 716.191406 665.121094 710.542969 689.515625 707.714844 C 702.179688 706.246094 714.871094 705.433594 727.617188 705.753906 C 728.242188 705.769531 729.285156 705.242188 729.457031 706.253906 C 729.570312 706.933594 728.601562 706.941406 728.058594 707.152344 C 698.332031 718.738281 671.835938 735.894531 646.628906 755.089844 C 622.394531 773.542969 597.488281 790.773438 569.351562 802.890625 C 546.292969 812.824219 522.765625 821.285156 498.058594 826.09375 C 487.84375 828.078125 477.492188 828.816406 467.078125 828.746094 Z M 467.078125 828.746094 " fill-opacity="1" fill-rule="nonzero"/></g><path fill="#ffffff" d="M 398.007812 788.488281 C 371.257812 787.726562 343.789062 783.136719 317.953125 770.996094 C 316.355469 770.242188 314.390625 769.945312 313.4375 768.128906 C 315.1875 767.523438 316.804688 768.410156 318.472656 768.625 C 359.320312 773.84375 398.375 766.660156 436.375 751.832031 C 454.496094 744.761719 471.5625 735.652344 488.28125 725.789062 C 514.144531 710.527344 541.785156 699.910156 571.429688 694.808594 C 592.207031 691.230469 613.117188 689.964844 634.207031 691.230469 C 657.800781 692.644531 681.050781 696.324219 704.171875 701.003906 C 704.535156 701.078125 704.910156 701.105469 705.277344 701.160156 C 705.890625 701.253906 706.78125 701.417969 706.707031 702.015625 C 706.628906 702.671875 705.710938 702.332031 705.191406 702.335938 C 692.699219 702.425781 680.230469 702.886719 667.785156 704.023438 C 626.949219 707.746094 588 717.851562 552.703125 739.320312 C 515.453125 761.980469 475.320312 776.847656 432.710938 785.359375 C 421.78125 787.542969 410.699219 788.484375 398.007812 788.488281 Z M 398.007812 788.488281 " fill-opacity="1" fill-rule="nonzero"/><path fill="#ffffff" d="M 545.070312 530.496094 C 560.785156 530.261719 576.449219 531.257812 592.105469 532.460938 C 599.6875 533.042969 601.472656 531.585938 602.335938 523.90625 C 603.386719 514.550781 601.511719 505.484375 599.632812 496.40625 C 599.398438 495.273438 597.660156 493.421875 599.734375 492.757812 C 602.171875 491.976562 603.332031 493.367188 603.738281 496.066406 C 605.164062 505.582031 607.339844 514.988281 608.160156 524.59375 C 609.796875 543.710938 602.160156 558.511719 586.667969 569.308594 C 577.652344 575.589844 567.496094 579.628906 556.683594 581.425781 C 544.8125 583.398438 533.964844 579.976562 523.921875 573.628906 C 508.351562 563.796875 496.480469 551.125 492.109375 532.613281 C 489.984375 523.632812 490.640625 514.671875 492.535156 505.796875 C 495.953125 489.761719 499.675781 473.792969 503.039062 457.746094 C 503.757812 454.308594 505.390625 453.566406 508.578125 453.582031 C 520.816406 453.648438 533.054688 453.425781 545.296875 453.390625 C 550.867188 453.375 556.414062 453.085938 561.960938 452.605469 C 563.285156 452.492188 565.046875 452.707031 565.429688 451.144531 C 565.867188 449.359375 564.496094 448.128906 562.960938 447.453125 C 560.597656 446.410156 558.136719 445.59375 555.75 444.597656 C 550.816406 442.542969 548.308594 438.292969 548.894531 433.109375 C 548.976562 432.386719 548.953125 431.136719 549.644531 431.21875 C 553.566406 431.699219 551.53125 428.886719 551.789062 427.449219 C 552.15625 425.414062 550.804688 422.320312 554.988281 422.976562 C 556.222656 423.171875 556.246094 422.121094 556.253906 421.210938 C 556.289062 418.683594 555.925781 416.136719 559.050781 414.726562 C 559.984375 414.304688 560.175781 412.347656 560.84375 411.171875 C 561.46875 410.070312 562.300781 409.640625 562.796875 411.277344 C 563.125 412.363281 563.628906 413.386719 564.773438 412.5 C 567.589844 410.328125 568.929688 411.949219 570.140625 414.28125 C 570.46875 414.921875 570.675781 415.820312 571.519531 415.773438 C 571.769531 415.757812 571.96875 414.710938 572.175781 414.132812 C 573.011719 411.816406 573.929688 409.523438 574.648438 407.171875 C 575.335938 404.914062 576.367188 404.953125 577.5 406.6875 C 579.074219 409.085938 580.003906 408.101562 581.066406 406.289062 C 581.621094 405.339844 582.417969 404.535156 583.140625 403.691406 C 583.921875 402.777344 584.808594 402.53125 585.539062 403.683594 C 586.824219 405.703125 587.714844 404.699219 588.867188 403.488281 C 590.277344 402.003906 591.628906 399.667969 594.132812 402.109375 C 599.957031 400.214844 599.59375 403.9375 599.269531 407.707031 C 599.234375 408.109375 599.558594 408.839844 599.863281 408.929688 C 603.835938 410.09375 602.152344 412.714844 601.574219 415.121094 C 601.039062 417.328125 599.414062 419.804688 603.230469 421.003906 C 604.269531 421.332031 603.511719 422.761719 603.070312 423.628906 C 601.78125 426.160156 600.535156 428.710938 599.144531 431.183594 C 598.316406 432.652344 598.773438 432.9375 600.167969 432.582031 C 603.417969 431.761719 606.75 431.539062 610.066406 431.261719 C 611.101562 431.175781 612.851562 430.761719 612.90625 432.140625 C 613.035156 435.34375 614.851562 434.347656 616.605469 434.09375 C 619.058594 433.734375 621.535156 433.800781 624.007812 434.019531 C 625.972656 434.191406 626.902344 434.871094 625.320312 436.703125 C 623.566406 438.734375 625.011719 439.253906 626.65625 439.839844 C 628.855469 440.625 631.035156 441.488281 633.195312 442.378906 C 634.378906 442.863281 634.578125 443.445312 633.492188 444.46875 C 632.359375 445.535156 629.351562 445.667969 631.242188 448.664062 C 631.492188 449.0625 628.867188 449.589844 627.886719 450.460938 C 627.308594 450.972656 624.050781 450.785156 626.894531 452.953125 C 627.582031 453.472656 626.40625 453.773438 625.914062 453.945312 C 624.753906 454.351562 623.542969 454.621094 622.410156 455.089844 C 621.769531 455.355469 620.570312 455.742188 620.828125 456.410156 C 622.414062 460.515625 619.070312 458.875 617.628906 459.128906 C 616.0625 459.40625 614.421875 459.230469 612.816406 459.300781 C 611.710938 459.351562 610.679688 459.242188 610.78125 461.074219 C 610.886719 462.996094 608.855469 462.375 607.777344 462.875 C 607.253906 463.117188 606.445312 462.894531 606.214844 463.59375 C 605.964844 464.355469 606.742188 464.605469 607.175781 464.976562 C 607.828125 465.542969 608.527344 466.058594 609.21875 466.574219 C 612.292969 468.855469 612.351562 468.921875 609.457031 471.316406 C 608.203125 472.355469 608.128906 472.984375 609.226562 474.230469 C 611.351562 476.632812 613.207031 479.265625 615.273438 481.722656 C 616.476562 483.15625 615.984375 483.507812 614.445312 484.128906 C 612.734375 484.816406 609.601562 483.253906 609.535156 487.09375 C 609.523438 487.789062 607.519531 487.390625 606.457031 487.210938 C 604.398438 486.859375 602.710938 486.0625 600.246094 487.179688 C 597.96875 488.214844 595.066406 486.128906 592.847656 484.578125 C 590.636719 483.035156 589.035156 482.234375 588.378906 485.851562 C 588.074219 487.527344 586.96875 487.171875 585.917969 486.503906 C 583.816406 485.171875 581.847656 483.675781 580.378906 481.636719 C 579.15625 479.9375 578.578125 480.417969 577.738281 482.058594 C 575.066406 487.277344 575.058594 487.199219 571.433594 482.453125 C 567.519531 477.335938 565.808594 471.890625 567.929688 465.484375 C 568.566406 463.554688 569.101562 461.457031 568.570312 459.289062 C 567.738281 455.894531 566.78125 455.476562 564.28125 457.882812 C 555.328125 466.488281 550.664062 476.816406 551.851562 489.445312 C 552.03125 491.378906 553.273438 494.40625 550.097656 494.394531 C 547.164062 494.378906 547.984375 491.242188 548.140625 489.3125 C 549.058594 478.035156 552.128906 467.496094 559.171875 458.386719 C 559.589844 457.847656 560.496094 457.332031 559.949219 456.558594 C 559.714844 456.234375 558.8125 456.3125 558.21875 456.324219 C 541.644531 456.550781 525.085938 456.140625 508.558594 454.972656 C 505.554688 454.761719 505.421875 456.570312 505.007812 458.476562 C 502.359375 470.652344 499.738281 482.839844 497.769531 495.144531 C 496.128906 505.386719 494.660156 515.652344 495.867188 526.109375 C 498.382812 547.921875 510.585938 562.175781 530.363281 570.429688 C 537.238281 573.300781 544.59375 574.433594 552.027344 574.871094 C 552.578125 574.902344 553.140625 574.71875 553.695312 574.632812 C 553.199219 574.3125 552.746094 573.851562 552.203125 573.691406 C 544.636719 571.449219 537.167969 568.902344 529.882812 565.882812 C 516.078125 560.160156 506.128906 550.609375 501.152344 536.273438 C 499.753906 532.242188 499.761719 532.308594 503.953125 532.015625 C 517.644531 531.070312 531.339844 530.289062 545.070312 530.496094 Z M 583.382812 451.929688 C 594.90625 452.15625 605.238281 448.941406 615.773438 447.03125 C 616.324219 446.929688 616.816406 446.511719 617.335938 446.242188 C 616.878906 445.710938 616.253906 445.941406 615.703125 445.914062 C 611.878906 445.710938 608.054688 445.503906 604.226562 445.367188 C 595.527344 445.058594 586.972656 445.871094 578.664062 448.660156 C 577.652344 449 576.476562 450.085938 575.5625 449.316406 C 574.496094 448.421875 575.511719 447 575.546875 445.808594 C 575.5625 445.207031 575.855469 444.621094 575.996094 444.019531 C 577.375 438.121094 579.660156 432.519531 581.695312 426.839844 C 581.859375 426.382812 582.183594 425.96875 581.824219 425.476562 C 581.503906 425.804688 581.078125 426.082031 580.878906 426.472656 C 577.277344 433.492188 573.589844 440.472656 570.175781 447.582031 C 568.367188 451.339844 568.867188 452.609375 572.484375 454.941406 C 577.363281 458.078125 582.3125 461.105469 587.296875 464.070312 C 588.386719 464.714844 589.296875 465.941406 590.828125 465.664062 C 590.480469 464.226562 589.140625 463.707031 588.152344 462.910156 C 584.59375 460.042969 580.941406 457.285156 577.90625 453.832031 C 577.527344 453.40625 576.871094 452.957031 577.210938 452.277344 C 577.554688 451.582031 578.296875 451.953125 578.855469 451.941406 C 580.585938 451.90625 582.316406 451.929688 583.382812 451.929688 Z M 583.382812 451.929688 " fill-opacity="1" fill-rule="nonzero"/><path fill="#ffffff" d="M 557.214844 612.742188 C 557.214844 620.65625 557.320312 628.570312 557.15625 636.476562 C 557.101562 639.183594 557.984375 641.289062 559.726562 643.164062 C 566.015625 649.925781 574.183594 653.328125 582.792969 655.835938 C 585.738281 656.695312 588.828125 657.046875 591.828125 657.734375 C 592.746094 657.945312 594.03125 658.28125 593.882812 659.496094 C 593.699219 660.988281 592.308594 660.382812 591.484375 660.265625 C 586.351562 659.558594 581.246094 658.683594 576.113281 657.964844 C 558.449219 655.484375 540.714844 654.429688 522.886719 655.601562 C 522.269531 655.640625 521.652344 655.667969 521.035156 655.675781 C 520.664062 655.679688 520.296875 655.628906 519.929688 655.605469 C 520.125 655.023438 520.679688 655.265625 521.0625 655.128906 C 524.421875 653.921875 527.921875 653.128906 531.140625 651.503906 C 533.683594 650.222656 536.175781 648.867188 538.398438 647.078125 C 542.347656 643.898438 544.648438 640.097656 544.410156 634.671875 C 543.738281 619.359375 543.441406 604.03125 542.875 588.714844 C 542.785156 586.226562 543.039062 585.292969 545.96875 585.796875 C 551.683594 586.777344 551.816406 586.558594 551.601562 592.347656 C 551.105469 605.570312 550.910156 618.792969 550.984375 632.023438 C 550.988281 632.59375 551.1875 633.164062 551.296875 633.734375 C 551.929688 633.308594 551.671875 632.617188 551.785156 632.042969 C 554.445312 618.410156 555.175781 604.605469 555.5 590.765625 C 555.511719 590.269531 555.429688 589.757812 555.542969 589.285156 C 555.847656 588.011719 554.796875 585.660156 557.046875 585.863281 C 558.5625 586 557.753906 588.15625 557.765625 589.378906 C 557.832031 597.167969 557.796875 604.957031 557.796875 612.742188 C 557.605469 612.742188 557.410156 612.742188 557.214844 612.742188 Z M 557.214844 612.742188 " fill-opacity="1" fill-rule="nonzero"/><path fill="#ffffff" d="M 420.355469 387.261719 C 414.300781 387.261719 408.238281 387.128906 402.1875 387.320312 C 399.476562 387.410156 398.769531 386.460938 399.023438 383.921875 C 399.320312 380.976562 399.359375 378 399.378906 375.035156 C 399.390625 373.179688 400.046875 372.472656 401.996094 372.484375 C 414.109375 372.554688 426.222656 372.539062 438.335938 372.472656 C 440.109375 372.464844 440.746094 373.085938 440.753906 374.816406 C 440.769531 378.152344 440.847656 381.492188 441.058594 384.820312 C 441.183594 386.792969 440.445312 387.367188 438.523438 387.335938 C 432.46875 387.238281 426.414062 387.300781 420.355469 387.300781 C 420.355469 387.289062 420.355469 387.273438 420.355469 387.261719 Z M 420.355469 387.261719 " fill-opacity="1" fill-rule="nonzero"/><path fill="#ffffff" d="M 351.464844 698.890625 C 351.429688 706.257812 345.121094 712.265625 337.480469 712.203125 C 329.65625 712.136719 323.691406 706.117188 323.664062 698.265625 C 323.640625 691.277344 330.121094 685.0625 337.46875 685.023438 C 345.058594 684.980469 351.503906 691.367188 351.464844 698.890625 Z M 330.992188 696.042969 C 333.574219 695.921875 334.964844 694.902344 334.9375 692.890625 C 334.910156 690.890625 333.582031 689.785156 331.496094 689.945312 C 329.511719 690.101562 328.222656 691.054688 328.398438 693.234375 C 328.546875 695.125 329.59375 696.121094 330.992188 696.042969 Z M 330.992188 696.042969 " fill-opacity="1" fill-rule="nonzero"/><path fill="#ffffff" d="M 369.46875 702.667969 C 361.753906 702.679688 355.617188 696.558594 355.625 688.859375 C 355.628906 681.855469 361.777344 675.78125 368.921875 675.71875 C 376.917969 675.652344 383.121094 681.476562 383.140625 689.074219 C 383.160156 696.585938 377.054688 702.65625 369.46875 702.667969 Z M 366.917969 683.074219 C 366.542969 681.300781 365.617188 680.160156 363.652344 680.308594 C 361.734375 680.453125 360.21875 681.25 360.308594 683.414062 C 360.386719 685.273438 361.613281 686.277344 363.484375 686.273438 C 365.5625 686.265625 366.523438 684.964844 366.917969 683.074219 Z M 366.917969 683.074219 " fill-opacity="1" fill-rule="nonzero"/><path fill="#ffffff" d="M 312.816406 587.953125 C 312.871094 580.695312 318.378906 575.195312 326.007812 574.78125 C 333.113281 574.394531 339.410156 579.566406 340.359375 586.460938 C 340.585938 588.09375 340.25 589.222656 338.925781 590.3125 C 336.617188 592.210938 334.734375 594.625 333.824219 597.433594 C 332.953125 600.117188 331.273438 600.886719 328.765625 601.328125 C 320.738281 602.746094 312.757812 596.140625 312.816406 587.953125 Z M 323.992188 581.910156 C 323.597656 579.847656 322.207031 579.15625 320.269531 579.28125 C 318.355469 579.402344 317.320312 580.585938 317.394531 582.382812 C 317.472656 584.378906 318.730469 585.539062 320.789062 585.335938 C 322.742188 585.144531 323.78125 583.886719 323.992188 581.910156 Z M 323.992188 581.910156 " fill-opacity="1" fill-rule="nonzero"/><path fill="#ffffff" d="M 350.316406 654.375 C 355.976562 654.414062 360.914062 657.851562 362.882812 663.128906 C 364.675781 667.933594 363.730469 670.835938 359.433594 673.671875 C 357.449219 674.980469 355.617188 676.511719 354.445312 678.5625 C 353.214844 680.710938 351.550781 681.238281 349.226562 681.105469 C 341.988281 680.683594 335.84375 674.425781 336.117188 667.578125 C 336.417969 660.082031 342.609375 654.324219 350.316406 654.375 Z M 343.957031 658.757812 C 342.367188 659.242188 340.816406 659.933594 340.953125 662.144531 C 341.082031 664.226562 342.390625 665.332031 344.355469 665.191406 C 346.222656 665.0625 347.679688 663.976562 347.636719 661.890625 C 347.589844 659.753906 345.996094 659.078125 343.957031 658.757812 Z M 343.957031 658.757812 " fill-opacity="1" fill-rule="nonzero"/><path fill="#ffffff" d="M 327.269531 636.484375 C 334.558594 636.453125 340.679688 641.9375 341.078125 648.75 C 341.1875 650.621094 340.789062 651.972656 339.140625 653.160156 C 335.886719 655.511719 333.230469 658.472656 332.273438 662.515625 C 331.90625 664.058594 331.324219 663.851562 330.304688 663.28125 C 328.113281 662.054688 325.636719 661.167969 323.246094 661.335938 C 318.683594 661.652344 316.503906 658.964844 314.734375 655.5625 C 312.785156 651.8125 312.832031 647.910156 314.679688 644.15625 C 317.070312 639.300781 321.816406 636.507812 327.269531 636.484375 Z M 324.722656 644.160156 C 324.699219 642.179688 323.40625 641.261719 321.726562 641.109375 C 319.695312 640.925781 318.082031 641.878906 317.816406 644.050781 C 317.554688 646.164062 318.96875 647.25 320.875 647.3125 C 322.902344 647.378906 324.304688 646.277344 324.722656 644.160156 Z M 324.722656 644.160156 " fill-opacity="1" fill-rule="nonzero"/><path fill="#ffffff" d="M 293.589844 688.386719 C 287.070312 688.40625 281.589844 684.101562 280.136719 677.816406 C 278.699219 671.59375 281.757812 665.453125 287.753906 662.527344 C 293.550781 659.695312 300.671875 661.167969 304.59375 665.960938 C 305.703125 667.320312 306.082031 668.484375 305.058594 670.222656 C 302.738281 674.164062 301.789062 678.480469 302.835938 683.039062 C 303.105469 684.210938 302.8125 684.914062 301.867188 685.527344 C 299.339844 687.160156 296.683594 688.394531 293.589844 688.386719 Z M 287.765625 672.175781 C 289.710938 671.898438 291.132812 670.875 291.257812 668.929688 C 291.394531 666.785156 289.75 665.824219 287.886719 665.8125 C 286.027344 665.800781 284.390625 666.726562 284.410156 668.867188 C 284.429688 670.886719 285.867188 671.855469 287.765625 672.175781 Z M 287.765625 672.175781 " fill-opacity="1" fill-rule="nonzero"/><path fill="#ffffff" d="M 351.894531 590.449219 C 361.171875 590.640625 367.371094 599.019531 364.820312 607.847656 C 364.339844 609.511719 363.515625 610.726562 361.878906 611.375 C 358.863281 612.566406 356.179688 614.25 353.875 616.578125 C 353.214844 617.242188 352.21875 617.644531 351.304688 617.96875 C 347.410156 619.355469 347.035156 619.160156 345.949219 615.214844 C 345 611.757812 343.1875 608.792969 340.328125 606.71875 C 337.414062 604.601562 337.53125 602.097656 338.558594 599.203125 C 340.425781 593.9375 345.90625 590.328125 351.894531 590.449219 Z M 346.195312 601.007812 C 347.632812 600.90625 349.074219 599.917969 348.992188 597.914062 C 348.914062 595.980469 347.539062 594.914062 345.5 594.957031 C 343.46875 595 342.160156 596.015625 342.238281 598.066406 C 342.320312 600.054688 343.574219 601.132812 346.195312 601.007812 Z M 346.195312 601.007812 " fill-opacity="1" fill-rule="nonzero"/><path fill="#ffffff" d="M 300.664062 656.617188 C 294.023438 656.589844 288.132812 651.914062 287.023438 645.785156 C 285.863281 639.398438 289.648438 632.875 295.9375 630.421875 C 302.0625 628.03125 309.628906 630.34375 313.085938 635.480469 C 314.035156 636.894531 313.492188 637.601562 312.621094 638.621094 C 309.625 642.128906 307.839844 646.210938 308.359375 650.839844 C 308.734375 654.21875 307.699219 655.8125 304.308594 656.171875 C 303.101562 656.300781 301.894531 656.582031 300.664062 656.617188 Z M 295.34375 640.304688 C 297.140625 640.097656 298.535156 639.097656 298.324219 637.050781 C 298.15625 635.414062 297.207031 634.035156 295.15625 634.214844 C 293.246094 634.378906 291.652344 635.234375 291.730469 637.265625 C 291.796875 639.140625 293.085938 640.347656 295.34375 640.304688 Z M 295.34375 640.304688 " fill-opacity="1" fill-rule="nonzero"/><path fill="#ffffff" d="M 329.375 631.285156 C 328.003906 631.410156 326.890625 631.457031 325.796875 631.625 C 320.8125 632.386719 318.050781 631.199219 315.796875 626.726562 C 313.417969 622.011719 313.191406 617.195312 316.550781 612.765625 C 320.351562 607.757812 325.488281 605.855469 331.609375 607.136719 C 336.734375 608.207031 340.738281 612.820312 341.578125 617.945312 C 341.859375 619.652344 341.296875 620.730469 339.945312 621.710938 C 336.707031 624.058594 333.855469 626.796875 332.488281 630.6875 C 331.691406 632.953125 330.175781 630.859375 329.375 631.285156 Z M 322.054688 617.429688 C 324.03125 617.375 325.402344 616.53125 325.457031 614.414062 C 325.511719 612.285156 324.195312 611.359375 322.199219 611.304688 C 320.136719 611.253906 318.910156 612.324219 318.839844 614.355469 C 318.769531 616.4375 319.945312 617.492188 322.054688 617.429688 Z M 322.054688 617.429688 " fill-opacity="1" fill-rule="nonzero"/><path fill="#ffffff" d="M 307.453125 679.0625 C 307.546875 673.558594 310.472656 669.761719 315.089844 667.3125 C 319.84375 664.789062 324.722656 665.265625 329.082031 668.28125 C 332.847656 670.890625 332.839844 675.550781 334.246094 679.414062 C 334.53125 680.199219 333.71875 680.367188 333.140625 680.546875 C 327.109375 682.421875 322.230469 685.621094 319.96875 691.882812 C 319.507812 693.15625 318.589844 692.917969 317.542969 692.597656 C 311.464844 690.734375 307.40625 685.324219 307.453125 679.0625 Z M 315.730469 676.683594 C 317.4375 676.605469 318.675781 675.554688 318.726562 673.554688 C 318.78125 671.382812 317.335938 670.582031 315.351562 670.679688 C 313.421875 670.773438 312.03125 671.617188 312.035156 673.761719 C 312.039062 675.957031 313.453125 676.671875 315.730469 676.683594 Z M 315.730469 676.683594 " fill-opacity="1" fill-rule="nonzero"/><path fill="#ffffff" d="M 389.667969 662.582031 C 398.195312 662.613281 404.339844 668.609375 404.261719 675.816406 C 404.179688 683.59375 398.164062 689.5 390.632812 689.257812 C 389.183594 689.210938 388.003906 689.214844 387.867188 687.238281 C 387.476562 681.664062 384.484375 677.511719 380.007812 674.527344 C 377.929688 673.140625 377.964844 671.914062 378.898438 669.980469 C 381.296875 664.988281 385.394531 662.847656 389.667969 662.582031 Z M 385.042969 673.570312 C 386.84375 673.027344 388.527344 672.191406 388.441406 669.949219 C 388.367188 668.027344 386.875 667.152344 385.160156 667.230469 C 383.167969 667.320312 381.597656 668.210938 381.800781 670.636719 C 381.960938 672.570312 383.203125 673.332031 385.042969 673.570312 Z M 385.042969 673.570312 " fill-opacity="1" fill-rule="nonzero"/><path fill="#ffffff" d="M 291.34375 611.433594 C 291.410156 605.714844 295.113281 600.75 300.632812 598.96875 C 306.339844 597.128906 313.183594 599.09375 316.355469 603.425781 C 317.1875 604.5625 317.503906 605.296875 316.105469 606.429688 C 310.476562 611.007812 308.386719 617.089844 309.292969 624.191406 C 309.492188 625.753906 309.46875 626.207031 307.75 625.664062 C 306.117188 625.152344 304.375 624.957031 302.671875 624.699219 C 295.722656 623.65625 291.261719 618.449219 291.34375 611.433594 Z M 302.632812 605.777344 C 302.410156 603.613281 301.058594 602.535156 299.191406 602.65625 C 297.421875 602.773438 295.730469 603.828125 295.988281 605.90625 C 296.203125 607.695312 297.5 609.117188 299.484375 609.003906 C 301.367188 608.894531 302.625 607.785156 302.632812 605.777344 Z M 302.632812 605.777344 " fill-opacity="1" fill-rule="nonzero"/><path fill="#ffffff" d="M 349.9375 649.617188 C 347.144531 650.527344 345.957031 649.4375 345.589844 646.617188 C 345.007812 642.117188 342.570312 638.535156 338.976562 635.890625 C 337.027344 634.453125 337.0625 633.097656 338.003906 631.175781 C 340.761719 625.546875 347.832031 622.464844 354.039062 624.292969 C 360.375 626.164062 364.601562 632.355469 363.855469 638.625 C 363.65625 640.3125 363.101562 641.640625 361.460938 642.472656 C 359.355469 643.539062 357.378906 644.929688 356.042969 646.871094 C 354.496094 649.117188 352.730469 650.421875 349.9375 649.617188 Z M 347.871094 631.226562 C 347.625 629.253906 346.191406 628.40625 344.332031 628.472656 C 342.136719 628.546875 341.023438 630.074219 341.089844 632.128906 C 341.152344 634.046875 342.753906 634.914062 344.394531 634.875 C 346.4375 634.828125 347.742188 633.570312 347.871094 631.226562 Z M 347.871094 631.226562 " fill-opacity="1" fill-rule="nonzero"/><path fill="#ffffff" d="M 310.738281 715.824219 C 304.203125 715.921875 298.550781 711.710938 296.855469 705.949219 C 295.175781 700.246094 297.589844 694.238281 302.792969 690.925781 C 304.347656 689.933594 305.554688 689.695312 306.902344 691.320312 C 309.398438 694.335938 312.5625 696.441406 316.4375 697.234375 C 318.042969 697.5625 318.820312 698.238281 318.75 699.917969 C 318.683594 701.550781 319.304688 703.046875 319.9375 704.519531 C 321.839844 708.949219 321.007812 711.40625 316.800781 713.910156 C 314.738281 715.140625 312.441406 715.507812 310.738281 715.824219 Z M 307.84375 695.929688 C 307.578125 694.226562 306.648438 692.898438 304.753906 693.03125 C 302.769531 693.167969 301.074219 694.238281 301.136719 696.464844 C 301.183594 698.21875 302.421875 699.527344 304.277344 699.472656 C 306.339844 699.417969 307.746094 698.316406 307.84375 695.929688 Z M 307.84375 695.929688 " fill-opacity="1" fill-rule="nonzero"/><g clip-path="url(#e36a7f4250)"><path fill="#ffffff" d="M 420 368.613281 C 414.316406 368.613281 408.628906 368.480469 402.953125 368.675781 C 400.34375 368.765625 399.261719 368.023438 399.746094 365.390625 C 399.8125 365.03125 399.761719 364.652344 399.769531 364.28125 C 399.859375 360.003906 399.859375 360 404.003906 360 C 414.875 359.996094 425.746094 360.09375 436.613281 359.925781 C 439.34375 359.886719 440.542969 360.59375 440.28125 363.375 C 440.199219 364.226562 440.25 365.113281 440.390625 365.960938 C 440.746094 368.09375 439.890625 368.71875 437.785156 368.675781 C 431.859375 368.554688 425.925781 368.632812 419.996094 368.632812 C 419.996094 368.628906 420 368.621094 420 368.613281 Z M 420 368.613281 " fill-opacity="1" fill-rule="nonzero"/></g><path fill="#ffffff" d="M 362.527344 654.324219 C 358.894531 651.730469 358.800781 650.945312 362.199219 648.117188 C 366.285156 644.714844 370.929688 643.6875 376.027344 645.414062 C 380.742188 647.007812 383.609375 650.304688 384.605469 655.183594 C 384.964844 656.953125 384.992188 658.511719 382.875 659.445312 C 378.480469 661.386719 375.585938 664.890625 373.789062 669.234375 C 373.007812 671.117188 371.886719 671.496094 370.078125 671.277344 C 367.886719 671.011719 368.488281 669.390625 368.519531 668.183594 C 368.652344 663.085938 366.722656 658.84375 363.367188 655.144531 C 363.832031 655.292969 364.292969 655.453125 364.761719 655.589844 C 366.226562 656.011719 367.515625 655.558594 368.328125 654.394531 C 369.058594 653.347656 369.027344 652.007812 368.355469 650.886719 C 367.609375 649.640625 366.265625 649.808594 365.046875 649.820312 C 361.59375 649.855469 362.523438 652.351562 362.527344 654.324219 Z M 362.527344 654.324219 " fill-opacity="1" fill-rule="nonzero"/><path fill="#ffffff" d="M 368.730469 636.910156 C 368.964844 633.214844 367.496094 630.019531 365.445312 626.996094 C 365 626.339844 363.625 625.730469 365.273438 624.71875 C 367.28125 623.488281 366.835938 621.605469 365.496094 620.40625 C 363.785156 618.871094 361.703125 618.835938 359.957031 620.726562 C 359.5625 621.15625 359.691406 622.5 358.558594 621.652344 C 357.824219 621.101562 358.078125 620.320312 358.535156 619.683594 C 360.855469 616.453125 364.210938 614.9375 367.988281 614.507812 C 375.96875 613.597656 383.535156 621.539062 382.527344 629.492188 C 382.359375 630.820312 381.78125 631.515625 380.617188 631.855469 C 376.921875 632.9375 374.128906 635.296875 371.628906 638.097656 C 370.910156 638.902344 370.140625 640.3125 369.105469 639.917969 C 367.921875 639.46875 368.953125 637.988281 368.730469 636.910156 Z M 368.730469 636.910156 " fill-opacity="1" fill-rule="nonzero"/><path fill="#ffffff" d="M 399.160156 649.992188 C 398.84375 651.332031 399.625 653.457031 398.257812 654.332031 C 396.015625 655.761719 393.398438 656.632812 390.882812 657.59375 C 389.722656 658.039062 389.800781 656.890625 389.789062 656.265625 C 389.671875 650.652344 385.828125 646.84375 383.101562 642.523438 C 381.898438 640.617188 380.042969 639.660156 377.679688 640.882812 C 377.210938 641.128906 376.550781 641.851562 376.136719 641.089844 C 375.832031 640.53125 376.59375 640.054688 377.019531 639.628906 C 380.433594 636.195312 386.078125 635.140625 390.746094 637.0625 C 396.152344 639.285156 399.1875 643.875 399.160156 649.992188 Z M 399.160156 649.992188 " fill-opacity="1" fill-rule="nonzero"/><path fill="#ffffff" d="M 409.445312 676.601562 C 409.085938 669.460938 406.070312 664.164062 400.027344 660.632812 C 399.441406 660.292969 398.445312 660.15625 398.660156 659.214844 C 398.699219 659.046875 400.007812 659.042969 400.691406 659.164062 C 411.164062 660.984375 415.964844 672.128906 410.140625 681.074219 C 409.820312 681.566406 409.050781 682.378906 408.980469 682.328125 C 408.21875 681.804688 408.792969 681.082031 408.875 680.433594 C 409.039062 679.09375 409.269531 677.761719 409.445312 676.601562 Z M 409.445312 676.601562 " fill-opacity="1" fill-rule="nonzero"/><g clip-path="url(#758c5e5f87)"><g clip-path="url(#ef836e26f4)"><g clip-path="url(#1000316295)"><path fill="#ffffff" d="M 264.375 317.050781 C 266.757812 317.046875 269.195312 316.789062 271.523438 316.296875 C 276.648438 315.019531 281.796875 313.980469 287.105469 313.667969 C 291.355469 313.46875 296.027344 313.386719 299.878906 315.609375 C 303.285156 317.550781 305.578125 320.59375 307.871094 323.640625 C 310.441406 326.984375 313.550781 330.761719 317.976562 331.445312 C 320.152344 331.792969 322.351562 331.644531 324.507812 331.828125 C 325.753906 331.941406 327.175781 332.203125 328.351562 331.667969 C 329.304688 331.320312 330.0625 330.75 330.914062 330.246094 C 337.261719 326.539062 346.289062 322.546875 353.101562 327.171875 C 353.183594 327.160156 353.183594 327.160156 353.273438 327.234375 C 353.363281 327.308594 353.441406 327.296875 353.53125 327.371094 C 356.976562 329.636719 360.273438 332.082031 364.199219 333.476562 C 364.632812 333.675781 364.636719 334.5 364.066406 334.558594 C 360.160156 334.886719 355.945312 336.234375 352.046875 335.085938 C 349.414062 334.296875 347.113281 332.730469 344.492188 332.019531 C 341.789062 331.320312 338.964844 331.78125 336.253906 332.5625 C 335.53125 332.71875 330.347656 334.992188 329.890625 334.546875 C 331.964844 336.300781 333.066406 338.976562 334.851562 341.089844 C 335.136719 341.46875 334.710938 342.089844 334.277344 341.886719 C 332.207031 340.957031 330.25 339.519531 327.90625 340.671875 C 326.023438 341.527344 324.347656 342.769531 322.574219 343.863281 C 319.875 345.542969 316.914062 347.085938 313.710938 347.09375 C 309.933594 347.082031 306.167969 345.671875 302.519531 344.578125 C 298.359375 343.292969 294.132812 342.175781 289.753906 342.71875 C 289.1875 342.78125 288.9375 341.984375 289.488281 341.761719 C 292.085938 340.667969 294.917969 341.023438 297.652344 340.492188 C 298.945312 340.273438 300.859375 339.742188 300.851562 338.097656 C 300.890625 336.125 298.851562 333.132812 297.785156 331.605469 C 293.050781 324.875 285.570312 318.597656 276.773438 320.097656 C 275.398438 320.324219 274.027344 320.550781 272.574219 320.789062 C 268.527344 321.378906 263.019531 322.121094 259.46875 319.621094 C 258.320312 318.839844 257.945312 317.644531 257.183594 316.660156 C 258.152344 316.472656 259.59375 316.898438 260.667969 316.949219 C 261.902344 316.984375 263.136719 317.015625 264.375 317.050781 Z M 264.375 317.050781 " fill-opacity="1" fill-rule="nonzero"/></g></g></g><g fill="#ffffff" fill-opacity="1"><g transform="translate(206.896807, 933.45693)"><g><path d="M 75 0 L 45.296875 0 L 45.296875 -2.03125 C 49.421875 -2.3125 52.019531 -3.054688 53.09375 -4.265625 C 54.164062 -5.484375 54.703125 -8.332031 54.703125 -12.8125 L 54.703125 -33.65625 L 22.328125 -33.65625 L 22.328125 -11.640625 C 22.328125 -7.867188 22.894531 -5.410156 24.03125 -4.265625 C 25.175781 -3.128906 27.742188 -2.382812 31.734375 -2.03125 L 31.734375 0 L 2.03125 0 L 2.03125 -2.03125 C 6.15625 -2.3125 8.753906 -3.054688 9.828125 -4.265625 C 10.898438 -5.484375 11.4375 -8.332031 11.4375 -12.8125 L 11.4375 -59.078125 C 11.4375 -62.921875 10.898438 -65.394531 9.828125 -66.5 C 8.753906 -67.601562 6.15625 -68.332031 2.03125 -68.6875 L 2.03125 -70.71875 L 31.734375 -70.71875 L 31.734375 -68.6875 C 27.597656 -68.332031 24.992188 -67.601562 23.921875 -66.5 C 22.859375 -65.394531 22.328125 -62.921875 22.328125 -59.078125 L 22.328125 -38.34375 L 54.703125 -38.34375 L 54.703125 -59.078125 C 54.703125 -62.921875 54.164062 -65.394531 53.09375 -66.5 C 52.019531 -67.601562 49.421875 -68.332031 45.296875 -68.6875 L 45.296875 -70.71875 L 75 -70.71875 L 75 -68.6875 C 70.863281 -68.332031 68.257812 -67.601562 67.1875 -66.5 C 66.125 -65.394531 65.59375 -62.921875 65.59375 -59.078125 L 65.59375 -11.640625 C 65.59375 -7.867188 66.160156 -5.410156 67.296875 -4.265625 C 68.441406 -3.128906 71.007812 -2.382812 75 -2.03125 Z M 75 0 "/></g></g></g><g fill="#ffffff" fill-opacity="1"><g transform="translate(284.00635, 933.45693)"><g><path d="M 75.421875 0 L 48.171875 0 L 48.171875 -2.03125 C 51.097656 -2.03125 53.09375 -2.347656 54.15625 -2.984375 C 55.15625 -3.484375 55.65625 -4.34375 55.65625 -5.5625 C 55.65625 -7.269531 54.976562 -9.6875 53.625 -12.8125 L 49.25 -23.078125 L 21.265625 -23.078125 L 16.34375 -10.578125 C 15.769531 -9.078125 15.484375 -7.6875 15.484375 -6.40625 C 15.484375 -3.488281 17.90625 -2.03125 22.75 -2.03125 L 22.75 0 L 1.609375 0 L 1.609375 -2.03125 C 4.171875 -2.175781 6.160156 -3.191406 7.578125 -5.078125 C 9.003906 -6.960938 11.425781 -11.785156 14.84375 -19.546875 L 37.0625 -72 L 39.203125 -72 L 65.8125 -11.328125 C 67.65625 -7.335938 69.109375 -4.828125 70.171875 -3.796875 C 71.242188 -2.765625 72.992188 -2.175781 75.421875 -2.03125 Z M 47.75 -27.453125 L 35.359375 -56.828125 L 23.078125 -27.453125 Z M 47.75 -27.453125 "/></g></g></g><g fill="#ffffff" fill-opacity="1"><g transform="translate(347.22815, 933.45693)"><g><path d="M 74.453125 -68.6875 C 71.890625 -68.550781 70.054688 -67.910156 68.953125 -66.765625 C 67.847656 -65.628906 66.40625 -62.957031 64.625 -58.75 L 40.921875 1.171875 L 39.3125 1.171875 L 13.03125 -57.46875 C 10.75 -62.238281 8.945312 -65.28125 7.625 -66.59375 C 6.3125 -67.914062 4.335938 -68.613281 1.703125 -68.6875 L 1.703125 -70.71875 L 30.125 -70.71875 L 30.125 -68.6875 C 28.132812 -68.550781 27.101562 -68.484375 27.03125 -68.484375 C 23.75 -68.265625 22.109375 -67.160156 22.109375 -65.171875 C 22.109375 -63.742188 23.570312 -59.789062 26.5 -53.3125 L 42.625 -17.203125 L 58.328125 -56.40625 C 59.679688 -59.820312 60.359375 -62.421875 60.359375 -64.203125 C 60.359375 -65.703125 59.785156 -66.789062 58.640625 -67.46875 C 57.503906 -68.144531 55.476562 -68.550781 52.5625 -68.6875 L 52.5625 -70.71875 L 74.453125 -70.71875 Z M 74.453125 -68.6875 "/></g></g></g><g fill="#ffffff" fill-opacity="1"><g transform="translate(424.337694, 933.45693)"><g><path d="M 63.34375 -19.234375 C 63.34375 -13.890625 61.347656 -9.4375 57.359375 -5.875 C 53.085938 -1.957031 46.46875 0 37.5 0 L 1.8125 0 L 1.8125 -2.03125 C 6.226562 -2.175781 9.039062 -2.816406 10.25 -3.953125 C 11.46875 -5.085938 12.078125 -7.648438 12.078125 -11.640625 L 12.078125 -59.078125 C 12.078125 -62.992188 11.488281 -65.503906 10.3125 -66.609375 C 9.132812 -67.710938 6.300781 -68.40625 1.8125 -68.6875 L 1.8125 -70.71875 L 31.734375 -70.71875 C 50.390625 -70.71875 59.71875 -64.664062 59.71875 -52.5625 C 59.71875 -47.925781 58.289062 -44.363281 55.4375 -41.875 C 53.164062 -39.882812 49.710938 -38.316406 45.078125 -37.171875 C 48.566406 -36.316406 51.21875 -35.476562 53.03125 -34.65625 C 54.851562 -33.84375 56.546875 -32.722656 58.109375 -31.296875 C 61.597656 -28.023438 63.34375 -24.003906 63.34375 -19.234375 Z M 51.0625 -19.125 C 51.0625 -25.675781 48.070312 -30.195312 42.09375 -32.6875 C 38.675781 -34.113281 32.300781 -34.828125 22.96875 -34.828125 L 22.96875 -8.328125 C 22.96875 -6.617188 23.429688 -5.460938 24.359375 -4.859375 C 25.285156 -4.253906 27.066406 -3.953125 29.703125 -3.953125 C 36.328125 -3.953125 41.273438 -4.878906 44.546875 -6.734375 C 48.890625 -9.222656 51.0625 -13.351562 51.0625 -19.125 Z M 48.828125 -52.125 C 48.828125 -56.90625 47.222656 -60.539062 44.015625 -63.03125 C 40.804688 -65.519531 36.140625 -66.765625 30.015625 -66.765625 L 25.3125 -66.765625 C 23.75 -66.765625 22.96875 -65.695312 22.96875 -63.5625 L 22.96875 -39.09375 L 33.109375 -39.09375 C 38.097656 -39.09375 41.960938 -40.210938 44.703125 -42.453125 C 47.453125 -44.703125 48.828125 -47.925781 48.828125 -52.125 Z M 48.828125 -52.125 "/></g></g></g><g fill="#ffffff" fill-opacity="1"><g transform="translate(495.573243, 933.45693)"><g><path d="M 63.890625 -18.59375 L 58.75 0 L 1.28125 0 L 1.28125 -2.03125 C 5.195312 -2.3125 7.722656 -3.039062 8.859375 -4.21875 C 10.003906 -5.394531 10.578125 -7.867188 10.578125 -11.640625 L 10.578125 -59.078125 C 10.578125 -62.847656 10.023438 -65.300781 8.921875 -66.4375 C 7.816406 -67.582031 5.269531 -68.332031 1.28125 -68.6875 L 1.28125 -70.71875 L 31.40625 -70.71875 L 31.40625 -68.6875 C 27.207031 -68.40625 24.5 -67.675781 23.28125 -66.5 C 22.070312 -65.320312 21.46875 -62.847656 21.46875 -59.078125 L 21.46875 -8.546875 C 21.46875 -6.691406 22.019531 -5.5 23.125 -4.96875 C 24.226562 -4.4375 26.738281 -4.171875 30.65625 -4.171875 L 37.8125 -4.171875 C 46.71875 -4.171875 52.988281 -6.34375 56.625 -10.6875 C 57.976562 -12.25 59.507812 -14.882812 61.21875 -18.59375 Z M 63.890625 -18.59375 "/></g></g></g><g fill="#ffffff" fill-opacity="1"><g transform="translate(560.827984, 933.45693)"><g><path d="M 33.65625 0 L 1.921875 0 L 1.921875 -2.03125 C 6.410156 -2.175781 9.257812 -2.816406 10.46875 -3.953125 C 11.675781 -5.085938 12.28125 -7.648438 12.28125 -11.640625 L 12.28125 -59.078125 C 12.28125 -62.992188 11.691406 -65.503906 10.515625 -66.609375 C 9.347656 -67.710938 6.484375 -68.40625 1.921875 -68.6875 L 1.921875 -70.71875 L 33.65625 -70.71875 L 33.65625 -68.6875 C 29.164062 -68.476562 26.296875 -67.800781 25.046875 -66.65625 C 23.804688 -65.519531 23.1875 -62.992188 23.1875 -59.078125 L 23.1875 -11.640625 C 23.1875 -7.722656 23.828125 -5.175781 25.109375 -4 C 26.390625 -2.832031 29.238281 -2.175781 33.65625 -2.03125 Z M 33.65625 0 "/></g></g></g><g fill="#ffffff" fill-opacity="1"><g transform="translate(596.392365, 933.45693)"><g><path d="M 75.53125 -68.6875 C 72.113281 -68.332031 69.765625 -67.691406 68.484375 -66.765625 C 66.410156 -65.335938 65.375 -61.421875 65.375 -55.015625 L 65.375 1.171875 L 63.5625 1.171875 L 16.34375 -57.578125 L 16.34375 -15.703125 C 16.34375 -10.285156 16.984375 -6.703125 18.265625 -4.953125 C 19.546875 -3.210938 22.253906 -2.238281 26.390625 -2.03125 L 26.390625 0 L 1.28125 0 L 1.28125 -2.03125 C 5.695312 -2.3125 8.523438 -3.289062 9.765625 -4.96875 C 11.015625 -6.644531 11.640625 -10.222656 11.640625 -15.703125 L 11.640625 -62.8125 C 9.503906 -65.300781 7.8125 -66.898438 6.5625 -67.609375 C 5.320312 -68.328125 3.5625 -68.6875 1.28125 -68.6875 L 1.28125 -70.71875 L 19.546875 -70.71875 L 60.671875 -19.015625 L 60.671875 -55.015625 C 60.671875 -61.566406 59.640625 -65.554688 57.578125 -66.984375 C 56.085938 -67.835938 53.703125 -68.40625 50.421875 -68.6875 L 50.421875 -70.71875 L 75.53125 -70.71875 Z M 75.53125 -68.6875 "/></g></g></g><g fill="#ffffff" fill-opacity="1"><g transform="translate(673.501908, 933.45693)"><g><path d="M 77.234375 0 L 44.65625 0 L 44.65625 -2.03125 C 45.507812 -2.101562 46.503906 -2.140625 47.640625 -2.140625 C 50.628906 -2.273438 52.125 -3.054688 52.125 -4.484375 C 52.125 -5.765625 50.820312 -8.113281 48.21875 -11.53125 C 45.625 -14.957031 42.300781 -18.660156 38.25 -22.640625 L 26.921875 -33.859375 L 24.140625 -31.625 L 24.140625 -11.640625 C 24.140625 -7.722656 24.707031 -5.210938 25.84375 -4.109375 C 26.988281 -3.003906 29.625 -2.3125 33.75 -2.03125 L 33.75 0 L 3.625 0 L 3.625 -2.03125 C 7.832031 -2.3125 10.488281 -3.078125 11.59375 -4.328125 C 12.695312 -5.578125 13.25 -8.40625 13.25 -12.8125 L 13.25 -59.078125 C 13.25 -62.847656 12.675781 -65.320312 11.53125 -66.5 C 10.394531 -67.675781 7.757812 -68.40625 3.625 -68.6875 L 3.625 -70.71875 L 33.96875 -70.71875 L 33.96875 -68.6875 C 29.625 -68.40625 26.898438 -67.710938 25.796875 -66.609375 C 24.691406 -65.503906 24.140625 -62.992188 24.140625 -59.078125 L 24.140625 -37.171875 L 43.046875 -54.375 C 48.609375 -59.5 51.390625 -63.164062 51.390625 -65.375 C 51.390625 -66.445312 51.050781 -67.210938 50.375 -67.671875 C 49.695312 -68.140625 48.535156 -68.441406 46.890625 -68.578125 C 45.898438 -68.578125 44.976562 -68.613281 44.125 -68.6875 L 44.125 -70.71875 L 72.109375 -70.71875 L 72.109375 -68.6875 C 68.472656 -68.40625 65.765625 -67.816406 63.984375 -66.921875 C 62.203125 -66.035156 59.5 -63.847656 55.875 -60.359375 L 35.578125 -40.28125 L 60.46875 -13.5625 C 65.3125 -8.363281 68.625 -5.160156 70.40625 -3.953125 C 72.1875 -2.742188 74.460938 -2.101562 77.234375 -2.03125 Z M 77.234375 0 "/></g></g></g><g fill="#ffffff" fill-opacity="1"><g transform="translate(750.616759, 933.45693)"><g/></g></g><g fill="#ffffff" fill-opacity="1"><g transform="translate(311.649726, 1008.906802)"><g><path d="M 51.40625 -47.421875 C 49.632812 -47.328125 48.367188 -46.882812 47.609375 -46.09375 C 46.847656 -45.300781 45.851562 -43.457031 44.625 -40.5625 L 28.25 0.8125 L 27.140625 0.8125 L 9 -39.671875 C 7.425781 -42.972656 6.179688 -45.078125 5.265625 -45.984375 C 4.359375 -46.890625 3 -47.367188 1.1875 -47.421875 L 1.1875 -48.828125 L 20.796875 -48.828125 L 20.796875 -47.421875 C 19.421875 -47.328125 18.707031 -47.28125 18.65625 -47.28125 C 16.394531 -47.125 15.265625 -46.359375 15.265625 -44.984375 C 15.265625 -44.003906 16.273438 -41.273438 18.296875 -36.796875 L 29.421875 -11.875 L 40.265625 -38.9375 C 41.203125 -41.300781 41.671875 -43.097656 41.671875 -44.328125 C 41.671875 -45.359375 41.273438 -46.109375 40.484375 -46.578125 C 39.703125 -47.046875 38.300781 -47.328125 36.28125 -47.421875 L 36.28125 -48.828125 L 51.40625 -48.828125 Z M 51.40625 -47.421875 "/></g></g></g><g fill="#ffffff" fill-opacity="1"><g transform="translate(364.900269, 1008.906802)"><g><path d="M 23.234375 0 L 1.328125 0 L 1.328125 -1.40625 C 4.421875 -1.5 6.382812 -1.9375 7.21875 -2.71875 C 8.0625 -3.507812 8.484375 -5.28125 8.484375 -8.03125 L 8.484375 -40.78125 C 8.484375 -43.488281 8.078125 -45.222656 7.265625 -45.984375 C 6.453125 -46.742188 4.472656 -47.222656 1.328125 -47.421875 L 1.328125 -48.828125 L 23.234375 -48.828125 L 23.234375 -47.421875 C 20.128906 -47.273438 18.144531 -46.804688 17.28125 -46.015625 C 16.425781 -45.234375 16 -43.488281 16 -40.78125 L 16 -8.03125 C 16 -5.332031 16.441406 -3.578125 17.328125 -2.765625 C 18.210938 -1.953125 20.179688 -1.5 23.234375 -1.40625 Z M 23.234375 0 "/></g></g></g><g fill="#ffffff" fill-opacity="1"><g transform="translate(389.460429, 1008.906802)"><g><path d="M 52.140625 -47.421875 C 49.773438 -47.171875 48.15625 -46.726562 47.28125 -46.09375 C 45.851562 -45.113281 45.140625 -42.410156 45.140625 -37.984375 L 45.140625 0.8125 L 43.875 0.8125 L 11.28125 -39.75 L 11.28125 -10.84375 C 11.28125 -7.101562 11.722656 -4.628906 12.609375 -3.421875 C 13.492188 -2.222656 15.363281 -1.550781 18.21875 -1.40625 L 18.21875 0 L 0.890625 0 L 0.890625 -1.40625 C 3.929688 -1.601562 5.878906 -2.273438 6.734375 -3.421875 C 7.597656 -4.578125 8.03125 -7.050781 8.03125 -10.84375 L 8.03125 -43.359375 C 6.5625 -45.085938 5.394531 -46.195312 4.53125 -46.6875 C 3.675781 -47.175781 2.460938 -47.421875 0.890625 -47.421875 L 0.890625 -48.828125 L 13.5 -48.828125 L 41.890625 -13.125 L 41.890625 -37.984375 C 41.890625 -42.503906 41.175781 -45.253906 39.75 -46.234375 C 38.71875 -46.828125 37.070312 -47.222656 34.8125 -47.421875 L 34.8125 -48.828125 L 52.140625 -48.828125 Z M 52.140625 -47.421875 "/></g></g></g><g fill="#ffffff" fill-opacity="1"><g transform="translate(441.235831, 1008.906802)"><g><path d="M 52.28125 -24.78125 C 50.125 -24.582031 48.722656 -24.125 48.078125 -23.40625 C 47.441406 -22.695312 47.125 -21.257812 47.125 -19.09375 L 47.125 -4.125 C 45.644531 -2.851562 42.972656 -1.675781 39.109375 -0.59375 C 35.253906 0.488281 31.753906 1.03125 28.609375 1.03125 C 20.304688 1.03125 13.597656 -1.597656 8.484375 -6.859375 C 4.398438 -11.140625 2.359375 -16.84375 2.359375 -23.96875 C 2.359375 -31.488281 4.726562 -37.679688 9.46875 -42.546875 C 14.21875 -47.421875 20.28125 -49.859375 27.65625 -49.859375 C 30.945312 -49.859375 34.289062 -49.289062 37.6875 -48.15625 C 38.96875 -47.664062 40.050781 -47.421875 40.9375 -47.421875 C 41.71875 -47.421875 42.398438 -47.65625 42.984375 -48.125 C 43.578125 -48.59375 44 -49.171875 44.25 -49.859375 L 45.875 -49.859375 L 46.46875 -34.296875 L 44.765625 -34.296875 C 43.140625 -38.273438 41.394531 -41.125 39.53125 -42.84375 C 36.582031 -45.550781 33.039062 -46.90625 28.90625 -46.90625 C 23.695312 -46.90625 19.421875 -45.035156 16.078125 -41.296875 C 14.453125 -39.484375 13.160156 -37.015625 12.203125 -33.890625 C 11.242188 -30.765625 10.765625 -27.484375 10.765625 -24.046875 C 10.765625 -17.210938 12.5 -11.816406 15.96875 -7.859375 C 19.4375 -3.898438 24.164062 -1.921875 30.15625 -1.921875 C 32.8125 -1.921875 35.109375 -2.347656 37.046875 -3.203125 C 38.992188 -4.066406 39.96875 -5.085938 39.96875 -6.265625 L 39.96875 -18.21875 C 39.96875 -21.257812 39.453125 -23.101562 38.421875 -23.75 C 37.640625 -24.238281 35.992188 -24.582031 33.484375 -24.78125 L 33.484375 -26.109375 L 52.28125 -26.109375 Z M 52.28125 -24.78125 "/></g></g></g><g fill="#ffffff" fill-opacity="1"><g transform="translate(492.642435, 1008.906802)"><g><path d="M 52.0625 0 L 33.265625 0 L 33.265625 -1.40625 C 35.273438 -1.40625 36.648438 -1.625 37.390625 -2.0625 C 38.078125 -2.40625 38.421875 -2.992188 38.421875 -3.828125 C 38.421875 -5.015625 37.953125 -6.6875 37.015625 -8.84375 L 34 -15.9375 L 14.671875 -15.9375 L 11.28125 -7.296875 C 10.882812 -6.265625 10.6875 -5.304688 10.6875 -4.421875 C 10.6875 -2.410156 12.359375 -1.40625 15.703125 -1.40625 L 15.703125 0 L 1.109375 0 L 1.109375 -1.40625 C 2.878906 -1.5 4.253906 -2.195312 5.234375 -3.5 C 6.222656 -4.800781 7.894531 -8.132812 10.25 -13.5 L 25.59375 -49.703125 L 27.0625 -49.703125 L 45.4375 -7.8125 C 46.707031 -5.0625 47.710938 -3.328125 48.453125 -2.609375 C 49.191406 -1.898438 50.394531 -1.5 52.0625 -1.40625 Z M 32.96875 -18.953125 L 24.40625 -39.234375 L 15.9375 -18.953125 Z M 31.53125 -63.90625 C 32.976562 -62.457031 33.703125 -60.722656 33.703125 -58.703125 C 33.703125 -56.691406 32.976562 -54.972656 31.53125 -53.546875 C 30.082031 -52.117188 28.347656 -51.40625 26.328125 -51.40625 C 24.265625 -51.40625 22.53125 -52.117188 21.125 -53.546875 C 19.726562 -54.972656 19.03125 -56.71875 19.03125 -58.78125 C 19.03125 -60.789062 19.742188 -62.507812 21.171875 -63.9375 C 22.597656 -65.363281 24.316406 -66.078125 26.328125 -66.078125 C 28.347656 -66.078125 30.082031 -65.351562 31.53125 -63.90625 Z M 29.75 -55.3125 C 30.71875 -56.25 31.203125 -57.378906 31.203125 -58.703125 C 31.203125 -60.035156 30.71875 -61.179688 29.75 -62.140625 C 28.789062 -63.097656 27.675781 -63.578125 26.40625 -63.578125 C 25.070312 -63.578125 23.925781 -63.109375 22.96875 -62.171875 C 22.007812 -61.234375 21.53125 -60.097656 21.53125 -58.765625 C 21.53125 -57.441406 22 -56.300781 22.9375 -55.34375 C 23.875 -54.382812 24.976562 -53.90625 26.25 -53.90625 C 27.625 -53.90625 28.789062 -54.375 29.75 -55.3125 Z M 29.75 -55.3125 "/></g></g></g><g fill="#ffffff" fill-opacity="1"><g transform="translate(545.892978, 1008.906802)"><g><path d="M 48.59375 0 L 36.734375 0 L 19.171875 -22.71875 L 15.046875 -22.5625 L 15.046875 -8.03125 C 15.046875 -5.382812 15.4375 -3.664062 16.21875 -2.875 C 17.007812 -2.09375 18.832031 -1.601562 21.6875 -1.40625 L 21.6875 0 L 1.25 0 L 1.25 -1.40625 C 4.007812 -1.601562 5.742188 -2.128906 6.453125 -2.984375 C 7.160156 -3.847656 7.515625 -5.800781 7.515625 -8.84375 L 7.515625 -40.78125 C 7.515625 -43.382812 7.160156 -45.066406 6.453125 -45.828125 C 5.742188 -46.597656 4.007812 -47.128906 1.25 -47.421875 L 1.25 -48.828125 L 21.609375 -48.828125 C 25.046875 -48.828125 28.191406 -48.382812 31.046875 -47.5 C 33.898438 -46.613281 36.039062 -45.40625 37.46875 -43.875 C 39.382812 -41.71875 40.34375 -39.039062 40.34375 -35.84375 C 40.34375 -32.207031 39.085938 -29.378906 36.578125 -27.359375 C 34.460938 -25.640625 31.269531 -24.363281 27 -23.53125 L 42.1875 -4.875 C 43.21875 -3.644531 44.1875 -2.78125 45.09375 -2.28125 C 46.007812 -1.789062 47.175781 -1.5 48.59375 -1.40625 Z M 32.296875 -35.984375 C 32.296875 -39.429688 31.203125 -41.976562 29.015625 -43.625 C 26.828125 -45.269531 23.425781 -46.09375 18.8125 -46.09375 C 17.332031 -46.09375 16.332031 -45.90625 15.8125 -45.53125 C 15.300781 -45.164062 15.046875 -44.46875 15.046875 -43.4375 L 15.046875 -25.296875 C 18.628906 -25.390625 21.28125 -25.597656 23 -25.921875 C 24.726562 -26.242188 26.425781 -26.867188 28.09375 -27.796875 C 30.894531 -29.273438 32.296875 -32.003906 32.296875 -35.984375 Z M 32.296875 -35.984375 "/></g></g></g><g fill="#ffffff" fill-opacity="1"><g transform="translate(595.087041, 1008.906802)"><g><path d="M 50.515625 -24.625 C 50.515625 -17.15625 48.007812 -11.132812 43 -6.5625 C 40.738281 -4.5 37.765625 -2.890625 34.078125 -1.734375 C 30.390625 -0.578125 26.40625 0 22.125 0 L 1.1875 0 L 1.1875 -1.40625 C 3.988281 -1.601562 5.769531 -2.09375 6.53125 -2.875 C 7.289062 -3.664062 7.671875 -5.382812 7.671875 -8.03125 L 7.671875 -40.78125 C 7.671875 -43.488281 7.3125 -45.207031 6.59375 -45.9375 C 5.882812 -46.675781 4.082031 -47.171875 1.1875 -47.421875 L 1.1875 -48.828125 L 21.09375 -48.828125 C 31.46875 -48.828125 39.1875 -46.242188 44.25 -41.078125 C 48.425781 -36.898438 50.515625 -31.414062 50.515625 -24.625 Z M 42.484375 -24.109375 C 42.484375 -32.273438 39.554688 -38.375 33.703125 -42.40625 C 30.210938 -44.863281 25.320312 -46.09375 19.03125 -46.09375 C 17.5 -46.09375 16.472656 -45.894531 15.953125 -45.5 C 15.441406 -45.101562 15.1875 -44.34375 15.1875 -43.21875 L 15.1875 -5.75 C 15.1875 -4.570312 15.457031 -3.773438 16 -3.359375 C 16.539062 -2.941406 17.550781 -2.734375 19.03125 -2.734375 C 25.125 -2.734375 29.941406 -3.738281 33.484375 -5.75 C 39.484375 -9.238281 42.484375 -15.359375 42.484375 -24.109375 Z M 42.484375 -24.109375 "/></g></g></g></svg>