<svg xmlns="http://www.w3.org/2000/svg" xmlns:xlink="http://www.w3.org/1999/xlink" width="500" zoomAndPan="magnify" viewBox="0 0 375 374.999991" height="500" preserveAspectRatio="xMidYMid meet" version="1.0"><defs><g/><clipPath id="de55f57e1a"><path d="M 139 208 L 315.476562 208 L 315.476562 272.710938 L 139 272.710938 Z M 139 208 " clip-rule="nonzero"/></clipPath><clipPath id="be396b0f75"><path d="M 144 28.210938 L 166 28.210938 L 166 33 L 144 33 Z M 144 28.210938 " clip-rule="nonzero"/></clipPath><clipPath id="de8c636a14"><path d="M 69 4 L 126 4 L 126 22 L 69 22 Z M 69 4 " clip-rule="nonzero"/></clipPath><clipPath id="b045b3199e"><path d="M 69.898438 5.730469 L 124.347656 -0.0078125 L 126.3125 18.640625 L 71.863281 24.378906 Z M 69.898438 5.730469 " clip-rule="nonzero"/></clipPath><clipPath id="02464d5d3a"><path d="M 124.277344 0 L 69.828125 5.738281 L 71.792969 24.386719 L 126.242188 18.648438 Z M 124.277344 0 " clip-rule="nonzero"/></clipPath></defs><path fill="#ffffff" d="M 182.222656 148.046875 C 182.222656 160.011719 182.195312 171.976562 182.257812 183.941406 C 182.265625 185.375 181.839844 185.898438 180.460938 186.214844 C 171.550781 188.242188 162.9375 191.191406 154.53125 194.757812 C 154.296875 194.859375 154.070312 194.988281 153.828125 195.070312 C 153.476562 195.1875 152.996094 195.460938 152.785156 195.328125 C 152.371094 195.0625 152.820312 194.65625 152.902344 194.3125 C 154.058594 189.695312 152.941406 185.820312 148.984375 183.375 C 146.917969 182.097656 146.25 180.9375 146.261719 178.542969 C 146.28125 174.535156 143.078125 170.976562 139.152344 169.941406 C 138.148438 169.679688 137.527344 169.480469 137.527344 168.125 C 137.523438 163.136719 135.003906 160.03125 130.070312 158.753906 C 128.929688 158.457031 128.367188 158.179688 128.628906 156.792969 C 128.964844 155.011719 128.777344 153.164062 127.894531 151.535156 C 127.152344 150.175781 127.019531 148.773438 127.023438 147.277344 C 127.054688 136.535156 127.035156 125.789062 127.0625 115.046875 C 127.074219 110.472656 127.449219 105.9375 128.601562 101.484375 C 130.609375 93.738281 134.617188 87.3125 141.21875 82.699219 C 143.457031 81.136719 144.320312 79.230469 144.371094 76.546875 C 144.566406 66.515625 144.929688 56.488281 145.226562 46.457031 C 145.25 45.691406 145.09375 44.933594 146.339844 44.917969 C 147.65625 44.894531 147.566406 45.675781 147.585938 46.539062 C 147.8125 56.375 148.03125 66.214844 148.292969 76.054688 C 148.363281 78.570312 147.535156 80.847656 146.648438 83.125 C 146.515625 83.472656 146.238281 83.792969 146.515625 84.1875 C 146.761719 83.996094 147.054688 83.839844 147.242188 83.601562 C 148.8125 81.644531 150.28125 79.617188 151.558594 77.453125 C 152.046875 76.617188 152.007812 75.738281 151.988281 74.835938 C 151.785156 65.511719 151.621094 56.1875 151.375 46.863281 C 151.335938 45.410156 151.648438 44.832031 153.242188 44.90625 C 156.195312 45.046875 159.160156 44.988281 162.117188 44.941406 C 163.191406 44.921875 163.722656 45.109375 163.761719 46.382812 C 164.089844 56.539062 164.542969 66.691406 164.835938 76.847656 C 164.90625 79.375 165.734375 81.210938 167.796875 82.734375 C 176.507812 89.179688 180.84375 98.097656 181.851562 108.691406 C 182.703125 117.605469 182.089844 126.5625 182.21875 135.5 C 182.277344 139.679688 182.226562 143.863281 182.226562 148.046875 C 182.226562 148.046875 182.222656 148.046875 182.222656 148.046875 Z M 169.222656 143.804688 C 169.292969 150.019531 169.027344 158.246094 168.582031 166.46875 C 168.542969 167.191406 168.222656 167.917969 168.578125 168.644531 C 168.765625 167.90625 169.019531 167.175781 169.125 166.429688 C 170.027344 160.195312 170.734375 153.945312 171.210938 147.664062 C 172.089844 136.046875 172.363281 124.421875 172.21875 112.773438 C 172.125 105.335938 169.75 98.8125 165.117188 93.054688 C 164.878906 92.765625 164.59375 92.511719 164.332031 92.242188 C 163.933594 92.679688 164.324219 93.0625 164.441406 93.441406 C 166.074219 98.796875 167.347656 104.238281 167.933594 109.804688 C 169.058594 120.433594 169.222656 131.109375 169.222656 143.804688 Z M 131.964844 128.175781 C 132.125 128.175781 132.289062 128.175781 132.453125 128.175781 C 132.453125 130.105469 132.40625 132.035156 132.460938 133.960938 C 132.632812 140.128906 132.742188 146.296875 133.210938 152.453125 C 133.234375 152.761719 133.347656 153.0625 133.417969 153.371094 C 133.460938 153.074219 133.53125 152.785156 133.542969 152.488281 C 134.101562 139.582031 134.6875 126.679688 135.191406 113.773438 C 135.4375 107.339844 136.445312 101.140625 139.777344 95.492188 C 140.953125 93.5 142.144531 91.523438 143.632812 89.738281 C 143.792969 89.542969 144.230469 89.304688 143.84375 88.984375 C 143.75 88.902344 143.375 89.0625 143.191406 89.199219 C 142.164062 89.96875 141.09375 90.695312 140.144531 91.554688 C 134.960938 96.242188 131.800781 101.855469 131.9375 109.089844 C 132.058594 115.449219 131.964844 121.8125 131.964844 128.175781 Z M 131.964844 128.175781 " fill-opacity="1" fill-rule="nonzero"/><path fill="#ffffff" d="M 293.320312 202.199219 C 285.726562 200.707031 278.355469 199.277344 270.898438 198.339844 C 245.28125 195.125 220.054688 195.996094 195.789062 205.953125 C 186.703125 209.679688 177.898438 214.09375 168.578125 217.253906 C 152.136719 222.824219 135.359375 227.03125 117.953125 227.621094 C 97.304688 228.320312 77.742188 223.929688 59.730469 213.472656 C 58.898438 212.988281 58.109375 212.425781 57.34375 211.84375 C 56.902344 211.507812 56 211.199219 56.21875 210.710938 C 56.472656 210.140625 57.214844 210.703125 57.734375 210.832031 C 60.476562 211.5 63.199219 212.257812 65.960938 212.84375 C 87.3125 217.394531 108.347656 216.121094 129.15625 209.59375 C 139.984375 206.195312 150.25 201.515625 160.519531 196.789062 C 172.054688 191.480469 184.226562 188.476562 196.808594 186.925781 C 210.425781 185.246094 224.027344 185.527344 237.621094 187.042969 C 249.476562 188.363281 260.96875 191.363281 272.335938 194.882812 C 279.265625 197.027344 286.136719 199.34375 292.988281 201.710938 C 293.285156 201.8125 293.539062 202.03125 293.8125 202.199219 C 293.574219 202.199219 293.335938 202.199219 293.320312 202.199219 Z M 293.320312 202.199219 " fill-opacity="1" fill-rule="nonzero"/><g clip-path="url(#de55f57e1a)"><path fill="#ffffff" d="M 179.152344 272.320312 C 165.839844 272.257812 152.941406 270.046875 140.605469 264.917969 C 140.054688 264.691406 139.3125 264.675781 139.066406 263.9375 C 139.636719 263.953125 140.210938 263.945312 140.78125 263.984375 C 150.460938 264.679688 160.058594 264.0625 169.558594 262.105469 C 189.710938 257.949219 207.824219 249.246094 224.523438 237.398438 C 235.035156 229.945312 245.96875 223.242188 258.003906 218.460938 C 269.902344 213.738281 282.226562 210.796875 294.925781 209.324219 C 301.515625 208.5625 308.121094 208.140625 314.757812 208.304688 C 315.082031 208.3125 315.625 208.039062 315.714844 208.566406 C 315.773438 208.917969 315.269531 208.925781 314.988281 209.035156 C 299.515625 215.066406 285.722656 223.992188 272.605469 233.984375 C 259.988281 243.589844 247.027344 252.558594 232.382812 258.863281 C 220.378906 264.035156 208.136719 268.4375 195.273438 270.941406 C 189.957031 271.972656 184.570312 272.359375 179.152344 272.320312 Z M 179.152344 272.320312 " fill-opacity="1" fill-rule="nonzero"/></g><path fill="#ffffff" d="M 143.199219 251.367188 C 129.277344 250.972656 114.980469 248.582031 101.53125 242.261719 C 100.699219 241.871094 99.679688 241.714844 99.183594 240.773438 C 100.09375 240.457031 100.9375 240.917969 101.800781 241.027344 C 123.0625 243.746094 143.390625 240.007812 163.167969 232.289062 C 172.601562 228.609375 181.484375 223.867188 190.183594 218.734375 C 203.648438 210.789062 218.035156 205.265625 233.464844 202.609375 C 244.277344 200.746094 255.160156 200.089844 266.136719 200.746094 C 278.417969 201.480469 290.519531 203.398438 302.554688 205.835938 C 302.742188 205.871094 302.9375 205.886719 303.128906 205.914062 C 303.449219 205.964844 303.910156 206.046875 303.875 206.359375 C 303.832031 206.703125 303.355469 206.527344 303.082031 206.527344 C 296.582031 206.574219 290.09375 206.8125 283.613281 207.40625 C 262.359375 209.34375 242.089844 214.601562 223.71875 225.777344 C 204.328125 237.570312 183.441406 245.308594 161.261719 249.738281 C 155.574219 250.875 149.804688 251.367188 143.199219 251.367188 Z M 143.199219 251.367188 " fill-opacity="1" fill-rule="nonzero"/><path fill="#ffffff" d="M 219.746094 117.085938 C 227.921875 116.964844 236.078125 117.484375 244.226562 118.109375 C 248.171875 118.414062 249.097656 117.652344 249.546875 113.65625 C 250.097656 108.789062 249.121094 104.070312 248.144531 99.34375 C 248.023438 98.753906 247.117188 97.789062 248.195312 97.445312 C 249.464844 97.039062 250.070312 97.761719 250.277344 99.167969 C 251.023438 104.121094 252.152344 109.015625 252.582031 114.015625 C 253.433594 123.964844 249.457031 131.667969 241.394531 137.289062 C 236.703125 140.558594 231.417969 142.660156 225.789062 143.59375 C 219.609375 144.621094 213.964844 142.839844 208.734375 139.539062 C 200.632812 134.417969 194.453125 127.824219 192.179688 118.1875 C 191.074219 113.515625 191.414062 108.851562 192.398438 104.230469 C 194.179688 95.886719 196.117188 87.574219 197.867188 79.222656 C 198.242188 77.433594 199.089844 77.046875 200.75 77.054688 C 207.121094 77.089844 213.492188 76.972656 219.859375 76.953125 C 222.761719 76.945312 225.648438 76.796875 228.535156 76.546875 C 229.222656 76.488281 230.140625 76.601562 230.339844 75.785156 C 230.570312 74.855469 229.855469 74.214844 229.054688 73.863281 C 227.824219 73.320312 226.542969 72.894531 225.300781 72.378906 C 222.734375 71.308594 221.429688 69.097656 221.734375 66.398438 C 221.777344 66.023438 221.765625 65.371094 222.125 65.414062 C 224.164062 65.664062 223.105469 64.203125 223.242188 63.453125 C 223.433594 62.394531 222.730469 60.785156 224.90625 61.125 C 225.550781 61.226562 225.558594 60.679688 225.566406 60.207031 C 225.582031 58.890625 225.394531 57.5625 227.019531 56.832031 C 227.507812 56.609375 227.605469 55.59375 227.953125 54.980469 C 228.277344 54.40625 228.710938 54.183594 228.96875 55.035156 C 229.140625 55.601562 229.402344 56.132812 230 55.671875 C 231.464844 54.542969 232.164062 55.386719 232.792969 56.597656 C 232.964844 56.929688 233.070312 57.398438 233.511719 57.375 C 233.640625 57.367188 233.742188 56.824219 233.851562 56.523438 C 234.285156 55.316406 234.765625 54.121094 235.136719 52.898438 C 235.496094 51.722656 236.03125 51.746094 236.625 52.644531 C 237.441406 53.894531 237.925781 53.382812 238.476562 52.4375 C 238.765625 51.945312 239.183594 51.527344 239.558594 51.085938 C 239.964844 50.609375 240.425781 50.484375 240.808594 51.082031 C 241.476562 52.132812 241.941406 51.613281 242.539062 50.980469 C 243.273438 50.210938 243.976562 48.992188 245.28125 50.261719 C 248.3125 49.277344 248.121094 51.214844 247.953125 53.175781 C 247.933594 53.386719 248.105469 53.765625 248.261719 53.8125 C 250.332031 54.417969 249.453125 55.78125 249.152344 57.035156 C 248.875 58.183594 248.027344 59.476562 250.015625 60.097656 C 250.554688 60.269531 250.160156 61.011719 249.929688 61.464844 C 249.261719 62.78125 248.613281 64.109375 247.886719 65.394531 C 247.457031 66.160156 247.695312 66.308594 248.421875 66.125 C 250.113281 65.695312 251.847656 65.582031 253.574219 65.4375 C 254.113281 65.390625 255.023438 65.175781 255.050781 65.894531 C 255.117188 67.5625 256.0625 67.042969 256.976562 66.910156 C 258.253906 66.722656 259.542969 66.757812 260.828125 66.871094 C 261.851562 66.960938 262.335938 67.316406 261.511719 68.269531 C 260.601562 69.324219 261.351562 69.597656 262.207031 69.902344 C 263.351562 70.3125 264.488281 70.757812 265.613281 71.222656 C 266.226562 71.476562 266.332031 71.777344 265.765625 72.308594 C 265.175781 72.867188 263.609375 72.9375 264.59375 74.492188 C 264.726562 74.703125 263.359375 74.976562 262.847656 75.429688 C 262.546875 75.695312 260.851562 75.597656 262.332031 76.726562 C 262.6875 77 262.078125 77.15625 261.820312 77.242188 C 261.21875 77.453125 260.585938 77.59375 260 77.839844 C 259.664062 77.976562 259.039062 78.175781 259.175781 78.527344 C 260 80.664062 258.257812 79.808594 257.507812 79.941406 C 256.695312 80.085938 255.839844 79.996094 255.003906 80.03125 C 254.429688 80.058594 253.890625 80 253.945312 80.953125 C 254 81.953125 252.941406 81.628906 252.382812 81.890625 C 252.109375 82.015625 251.6875 81.902344 251.570312 82.265625 C 251.4375 82.660156 251.84375 82.792969 252.066406 82.984375 C 252.410156 83.277344 252.769531 83.546875 253.132812 83.816406 C 254.730469 85.003906 254.761719 85.039062 253.257812 86.285156 C 252.601562 86.824219 252.5625 87.152344 253.136719 87.800781 C 254.242188 89.050781 255.207031 90.421875 256.28125 91.703125 C 256.910156 92.449219 256.652344 92.628906 255.851562 92.953125 C 254.960938 93.3125 253.332031 92.5 253.296875 94.496094 C 253.289062 94.859375 252.246094 94.652344 251.695312 94.558594 C 250.625 94.375 249.742188 93.960938 248.460938 94.542969 C 247.277344 95.078125 245.765625 93.996094 244.609375 93.1875 C 243.460938 92.382812 242.625 91.96875 242.285156 93.851562 C 242.128906 94.722656 241.550781 94.535156 241.003906 94.1875 C 239.910156 93.496094 238.886719 92.71875 238.121094 91.65625 C 237.484375 90.773438 237.183594 91.023438 236.746094 91.875 C 235.355469 94.589844 235.351562 94.550781 233.464844 92.082031 C 231.429688 89.417969 230.539062 86.582031 231.640625 83.25 C 231.972656 82.246094 232.25 81.152344 231.976562 80.027344 C 231.542969 78.257812 231.042969 78.039062 229.742188 79.292969 C 225.082031 83.773438 222.65625 89.148438 223.273438 95.722656 C 223.367188 96.726562 224.015625 98.300781 222.359375 98.296875 C 220.835938 98.289062 221.261719 96.65625 221.34375 95.652344 C 221.820312 89.78125 223.417969 84.296875 227.082031 79.554688 C 227.300781 79.273438 227.773438 79.003906 227.488281 78.605469 C 227.367188 78.433594 226.898438 78.476562 226.585938 78.480469 C 217.960938 78.601562 209.34375 78.386719 200.738281 77.777344 C 199.175781 77.667969 199.109375 78.609375 198.890625 79.601562 C 197.511719 85.9375 196.148438 92.28125 195.125 98.6875 C 194.269531 104.019531 193.503906 109.359375 194.132812 114.804688 C 195.441406 126.15625 201.796875 133.578125 212.089844 137.871094 C 215.667969 139.363281 219.496094 139.953125 223.367188 140.183594 C 223.652344 140.199219 223.945312 140.105469 224.234375 140.058594 C 223.976562 139.894531 223.738281 139.652344 223.457031 139.570312 C 219.519531 138.402344 215.632812 137.078125 211.839844 135.503906 C 204.652344 132.527344 199.476562 127.554688 196.886719 120.09375 C 196.15625 117.996094 196.160156 118.03125 198.34375 117.878906 C 205.46875 117.386719 212.597656 116.980469 219.746094 117.085938 Z M 239.683594 76.195312 C 245.683594 76.3125 251.058594 74.640625 256.542969 73.644531 C 256.828125 73.59375 257.085938 73.375 257.355469 73.234375 C 257.117188 72.957031 256.792969 73.078125 256.507812 73.0625 C 254.515625 72.957031 252.523438 72.847656 250.53125 72.777344 C 246.007812 72.617188 241.554688 73.042969 237.230469 74.492188 C 236.703125 74.671875 236.089844 75.234375 235.613281 74.835938 C 235.058594 74.367188 235.589844 73.628906 235.605469 73.007812 C 235.613281 72.695312 235.769531 72.390625 235.839844 72.078125 C 236.558594 69.007812 237.746094 66.09375 238.804688 63.136719 C 238.890625 62.898438 239.058594 62.683594 238.875 62.425781 C 238.707031 62.597656 238.484375 62.738281 238.382812 62.945312 C 236.507812 66.597656 234.589844 70.230469 232.808594 73.929688 C 231.871094 75.886719 232.128906 76.546875 234.011719 77.761719 C 236.550781 79.394531 239.128906 80.96875 241.722656 82.511719 C 242.289062 82.847656 242.761719 83.488281 243.558594 83.34375 C 243.378906 82.59375 242.683594 82.324219 242.167969 81.910156 C 240.316406 80.417969 238.414062 78.980469 236.832031 77.183594 C 236.636719 76.960938 236.296875 76.730469 236.472656 76.375 C 236.652344 76.011719 237.039062 76.207031 237.328125 76.199219 C 238.230469 76.179688 239.128906 76.195312 239.683594 76.195312 Z M 239.683594 76.195312 " fill-opacity="1" fill-rule="nonzero"/><path fill="#ffffff" d="M 226.066406 159.894531 C 226.066406 164.011719 226.121094 168.132812 226.035156 172.25 C 226.003906 173.65625 226.464844 174.753906 227.371094 175.726562 C 230.644531 179.246094 234.898438 181.019531 239.378906 182.324219 C 240.910156 182.769531 242.519531 182.953125 244.082031 183.3125 C 244.558594 183.421875 245.226562 183.597656 245.148438 184.230469 C 245.054688 185.007812 244.332031 184.691406 243.902344 184.632812 C 241.230469 184.261719 238.570312 183.808594 235.902344 183.433594 C 226.707031 182.140625 217.476562 181.589844 208.195312 182.203125 C 207.875 182.222656 207.554688 182.238281 207.234375 182.242188 C 207.042969 182.242188 206.851562 182.21875 206.65625 182.203125 C 206.761719 181.902344 207.050781 182.027344 207.25 181.957031 C 208.996094 181.328125 210.820312 180.914062 212.492188 180.070312 C 213.816406 179.402344 215.113281 178.695312 216.269531 177.765625 C 218.328125 176.109375 219.523438 174.132812 219.402344 171.308594 C 219.050781 163.339844 218.894531 155.363281 218.601562 147.390625 C 218.554688 146.09375 218.6875 145.609375 220.210938 145.871094 C 223.183594 146.378906 223.253906 146.265625 223.140625 149.277344 C 222.886719 156.160156 222.785156 163.042969 222.824219 169.929688 C 222.824219 170.226562 222.929688 170.523438 222.984375 170.820312 C 223.3125 170.597656 223.179688 170.238281 223.238281 169.941406 C 224.621094 162.847656 225.003906 155.660156 225.171875 148.457031 C 225.175781 148.199219 225.136719 147.929688 225.195312 147.6875 C 225.351562 147.023438 224.804688 145.800781 225.976562 145.90625 C 226.765625 145.976562 226.34375 147.097656 226.351562 147.734375 C 226.386719 151.789062 226.367188 155.84375 226.367188 159.894531 C 226.265625 159.894531 226.167969 159.894531 226.066406 159.894531 Z M 226.066406 159.894531 " fill-opacity="1" fill-rule="nonzero"/><path fill="#ffffff" d="M 154.832031 42.535156 C 151.679688 42.535156 148.523438 42.46875 145.375 42.566406 C 143.964844 42.613281 143.597656 42.117188 143.730469 40.796875 C 143.882812 39.265625 143.902344 37.714844 143.914062 36.171875 C 143.917969 35.207031 144.261719 34.835938 145.277344 34.84375 C 151.582031 34.878906 157.886719 34.875 164.191406 34.839844 C 165.113281 34.832031 165.445312 35.15625 165.449219 36.058594 C 165.457031 37.792969 165.496094 39.53125 165.605469 41.265625 C 165.671875 42.292969 165.289062 42.589844 164.289062 42.574219 C 161.136719 42.523438 157.984375 42.554688 154.832031 42.554688 C 154.832031 42.550781 154.832031 42.542969 154.832031 42.535156 Z M 154.832031 42.535156 " fill-opacity="1" fill-rule="nonzero"/><path fill="#ffffff" d="M 118.976562 204.734375 C 118.957031 208.570312 115.671875 211.695312 111.695312 211.660156 C 107.625 211.628906 104.519531 208.496094 104.503906 204.410156 C 104.492188 200.769531 107.867188 197.535156 111.691406 197.515625 C 115.640625 197.496094 118.996094 200.816406 118.976562 204.734375 Z M 108.320312 203.25 C 109.664062 203.1875 110.386719 202.65625 110.371094 201.609375 C 110.359375 200.570312 109.667969 199.992188 108.582031 200.078125 C 107.550781 200.160156 106.878906 200.65625 106.96875 201.789062 C 107.046875 202.773438 107.59375 203.292969 108.320312 203.25 Z M 108.320312 203.25 " fill-opacity="1" fill-rule="nonzero"/><path fill="#ffffff" d="M 128.347656 206.699219 C 124.328125 206.703125 121.136719 203.519531 121.140625 199.511719 C 121.144531 195.867188 124.34375 192.703125 128.0625 192.671875 C 132.222656 192.636719 135.453125 195.671875 135.460938 199.625 C 135.472656 203.535156 132.292969 206.695312 128.347656 206.699219 Z M 127.019531 196.5 C 126.824219 195.578125 126.339844 194.984375 125.316406 195.0625 C 124.320312 195.136719 123.53125 195.550781 123.578125 196.675781 C 123.617188 197.644531 124.257812 198.167969 125.230469 198.167969 C 126.3125 198.164062 126.8125 197.484375 127.019531 196.5 Z M 127.019531 196.5 " fill-opacity="1" fill-rule="nonzero"/><path fill="#ffffff" d="M 98.859375 146.992188 C 98.886719 143.214844 101.753906 140.351562 105.726562 140.136719 C 109.421875 139.933594 112.703125 142.628906 113.195312 146.214844 C 113.3125 147.066406 113.136719 147.652344 112.449219 148.21875 C 111.246094 149.207031 110.265625 150.464844 109.792969 151.925781 C 109.339844 153.324219 108.464844 153.722656 107.160156 153.953125 C 102.984375 154.691406 98.828125 151.253906 98.859375 146.992188 Z M 104.675781 143.847656 C 104.46875 142.773438 103.746094 142.414062 102.738281 142.476562 C 101.742188 142.542969 101.203125 143.15625 101.242188 144.09375 C 101.285156 145.132812 101.9375 145.734375 103.007812 145.628906 C 104.027344 145.53125 104.566406 144.875 104.675781 143.847656 Z M 104.675781 143.847656 " fill-opacity="1" fill-rule="nonzero"/><path fill="#ffffff" d="M 118.375 181.5625 C 121.324219 181.582031 123.894531 183.375 124.917969 186.121094 C 125.851562 188.621094 125.359375 190.132812 123.125 191.609375 C 122.089844 192.289062 121.136719 193.085938 120.527344 194.152344 C 119.886719 195.269531 119.019531 195.546875 117.808594 195.476562 C 114.042969 195.257812 110.84375 192 110.988281 188.4375 C 111.144531 184.535156 114.367188 181.539062 118.375 181.5625 Z M 115.066406 183.84375 C 114.238281 184.097656 113.433594 184.457031 113.503906 185.609375 C 113.570312 186.691406 114.25 187.265625 115.273438 187.195312 C 116.246094 187.125 117.003906 186.5625 116.980469 185.476562 C 116.957031 184.363281 116.128906 184.011719 115.066406 183.84375 Z M 115.066406 183.84375 " fill-opacity="1" fill-rule="nonzero"/><path fill="#ffffff" d="M 106.382812 172.253906 C 110.175781 172.234375 113.363281 175.089844 113.570312 178.636719 C 113.625 179.609375 113.417969 180.3125 112.5625 180.929688 C 110.867188 182.15625 109.484375 183.695312 108.984375 185.800781 C 108.792969 186.605469 108.492188 186.496094 107.960938 186.199219 C 106.820312 185.5625 105.53125 185.101562 104.285156 185.1875 C 101.914062 185.351562 100.777344 183.953125 99.859375 182.183594 C 98.84375 180.230469 98.867188 178.199219 99.828125 176.246094 C 101.074219 173.71875 103.542969 172.265625 106.382812 172.253906 Z M 105.054688 176.246094 C 105.042969 175.21875 104.371094 174.738281 103.496094 174.660156 C 102.4375 174.5625 101.597656 175.0625 101.460938 176.191406 C 101.324219 177.289062 102.0625 177.855469 103.054688 177.886719 C 104.109375 177.921875 104.839844 177.347656 105.054688 176.246094 Z M 105.054688 176.246094 " fill-opacity="1" fill-rule="nonzero"/><path fill="#ffffff" d="M 88.851562 199.265625 C 85.457031 199.277344 82.605469 197.035156 81.851562 193.765625 C 81.101562 190.527344 82.695312 187.328125 85.8125 185.808594 C 88.832031 184.332031 92.539062 185.101562 94.578125 187.59375 C 95.15625 188.300781 95.355469 188.90625 94.820312 189.8125 C 93.613281 191.863281 93.121094 194.109375 93.664062 196.484375 C 93.804688 197.09375 93.652344 197.460938 93.160156 197.777344 C 91.84375 198.628906 90.460938 199.269531 88.851562 199.265625 Z M 85.820312 190.828125 C 86.832031 190.683594 87.574219 190.152344 87.636719 189.140625 C 87.707031 188.023438 86.855469 187.523438 85.882812 187.519531 C 84.917969 187.511719 84.0625 187.992188 84.074219 189.105469 C 84.085938 190.160156 84.832031 190.664062 85.820312 190.828125 Z M 85.820312 190.828125 " fill-opacity="1" fill-rule="nonzero"/><path fill="#ffffff" d="M 119.199219 148.292969 C 124.027344 148.390625 127.253906 152.753906 125.925781 157.347656 C 125.675781 158.214844 125.246094 158.84375 124.394531 159.183594 C 122.824219 159.804688 121.429688 160.679688 120.230469 161.890625 C 119.886719 162.238281 119.367188 162.445312 118.890625 162.617188 C 116.863281 163.335938 116.667969 163.234375 116.105469 161.179688 C 115.609375 159.382812 114.667969 157.839844 113.179688 156.757812 C 111.664062 155.65625 111.722656 154.355469 112.257812 152.847656 C 113.230469 150.105469 116.082031 148.230469 119.199219 148.292969 Z M 116.230469 153.789062 C 116.980469 153.734375 117.730469 153.21875 117.6875 152.175781 C 117.648438 151.167969 116.933594 150.613281 115.871094 150.636719 C 114.8125 150.660156 114.132812 151.191406 114.171875 152.257812 C 114.214844 153.289062 114.867188 153.851562 116.230469 153.789062 Z M 116.230469 153.789062 " fill-opacity="1" fill-rule="nonzero"/><path fill="#ffffff" d="M 92.535156 182.730469 C 89.078125 182.71875 86.011719 180.285156 85.433594 177.09375 C 84.832031 173.769531 86.800781 170.371094 90.074219 169.097656 C 93.261719 167.851562 97.199219 169.054688 99 171.730469 C 99.492188 172.464844 99.210938 172.832031 98.757812 173.363281 C 97.199219 175.191406 96.269531 177.3125 96.539062 179.722656 C 96.734375 181.484375 96.195312 182.3125 94.429688 182.5 C 93.804688 182.566406 93.175781 182.710938 92.535156 182.730469 Z M 89.765625 174.242188 C 90.699219 174.132812 91.425781 173.613281 91.316406 172.546875 C 91.230469 171.695312 90.734375 170.976562 89.667969 171.070312 C 88.671875 171.15625 87.84375 171.601562 87.882812 172.660156 C 87.917969 173.636719 88.589844 174.261719 89.765625 174.242188 Z M 89.765625 174.242188 " fill-opacity="1" fill-rule="nonzero"/><path fill="#ffffff" d="M 107.476562 169.546875 C 106.765625 169.613281 106.183594 169.636719 105.613281 169.722656 C 103.019531 170.121094 101.582031 169.5 100.410156 167.175781 C 99.171875 164.71875 99.054688 162.214844 100.804688 159.90625 C 102.78125 157.300781 105.453125 156.3125 108.640625 156.976562 C 111.308594 157.535156 113.394531 159.9375 113.828125 162.605469 C 113.976562 163.492188 113.683594 164.054688 112.980469 164.5625 C 111.292969 165.785156 109.808594 167.210938 109.097656 169.234375 C 108.683594 170.414062 107.894531 169.324219 107.476562 169.546875 Z M 103.667969 162.335938 C 104.695312 162.304688 105.410156 161.867188 105.4375 160.765625 C 105.464844 159.65625 104.78125 159.175781 103.742188 159.148438 C 102.667969 159.117188 102.03125 159.675781 101.996094 160.734375 C 101.957031 161.816406 102.570312 162.367188 103.667969 162.335938 Z M 103.667969 162.335938 " fill-opacity="1" fill-rule="nonzero"/><path fill="#ffffff" d="M 96.066406 194.414062 C 96.117188 191.546875 97.640625 189.574219 100.042969 188.296875 C 102.515625 186.984375 105.054688 187.230469 107.324219 188.804688 C 109.285156 190.160156 109.28125 192.585938 110.011719 194.597656 C 110.160156 195.003906 109.738281 195.09375 109.4375 195.1875 C 106.300781 196.160156 103.757812 197.828125 102.582031 201.085938 C 102.34375 201.75 101.863281 201.625 101.320312 201.457031 C 98.15625 200.488281 96.042969 197.671875 96.066406 194.414062 Z M 100.375 193.175781 C 101.265625 193.132812 101.910156 192.589844 101.933594 191.546875 C 101.964844 190.417969 101.210938 190 100.179688 190.050781 C 99.175781 190.097656 98.449219 190.539062 98.453125 191.65625 C 98.453125 192.796875 99.191406 193.167969 100.375 193.175781 Z M 100.375 193.175781 " fill-opacity="1" fill-rule="nonzero"/><path fill="#ffffff" d="M 138.859375 185.835938 C 143.296875 185.851562 146.496094 188.972656 146.457031 192.722656 C 146.414062 196.773438 143.28125 199.847656 139.363281 199.71875 C 138.605469 199.695312 137.992188 199.699219 137.921875 198.667969 C 137.71875 195.765625 136.160156 193.605469 133.832031 192.050781 C 132.75 191.332031 132.769531 190.695312 133.253906 189.683594 C 134.503906 187.089844 136.636719 185.972656 138.859375 185.835938 Z M 136.453125 191.554688 C 137.390625 191.273438 138.265625 190.835938 138.21875 189.671875 C 138.179688 188.671875 137.40625 188.214844 136.511719 188.253906 C 135.476562 188.300781 134.660156 188.765625 134.761719 190.027344 C 134.847656 191.035156 135.496094 191.429688 136.453125 191.554688 Z M 136.453125 191.554688 " fill-opacity="1" fill-rule="nonzero"/><path fill="#ffffff" d="M 87.683594 159.214844 C 87.71875 156.238281 89.644531 153.652344 92.519531 152.726562 C 95.488281 151.769531 99.050781 152.789062 100.699219 155.046875 C 101.132812 155.636719 101.300781 156.019531 100.570312 156.609375 C 97.640625 158.992188 96.554688 162.15625 97.027344 165.855469 C 97.128906 166.667969 97.117188 166.902344 96.222656 166.621094 C 95.371094 166.351562 94.464844 166.253906 93.578125 166.117188 C 89.960938 165.574219 87.640625 162.863281 87.683594 159.214844 Z M 93.558594 156.269531 C 93.441406 155.144531 92.738281 154.582031 91.769531 154.644531 C 90.84375 154.707031 89.96875 155.253906 90.097656 156.335938 C 90.214844 157.269531 90.886719 158.007812 91.921875 157.949219 C 92.898438 157.890625 93.554688 157.3125 93.558594 156.269531 Z M 93.558594 156.269531 " fill-opacity="1" fill-rule="nonzero"/><path fill="#ffffff" d="M 118.179688 179.089844 C 116.726562 179.5625 116.109375 178.996094 115.917969 177.523438 C 115.617188 175.183594 114.34375 173.320312 112.476562 171.941406 C 111.460938 171.195312 111.480469 170.488281 111.96875 169.488281 C 113.402344 166.558594 117.085938 164.953125 120.316406 165.90625 C 123.613281 166.878906 125.8125 170.101562 125.425781 173.367188 C 125.320312 174.246094 125.03125 174.933594 124.175781 175.371094 C 123.082031 175.925781 122.054688 176.648438 121.359375 177.65625 C 120.550781 178.828125 119.632812 179.507812 118.179688 179.089844 Z M 117.105469 169.515625 C 116.976562 168.488281 116.230469 168.046875 115.261719 168.082031 C 114.121094 168.121094 113.542969 168.914062 113.574219 169.984375 C 113.605469 170.984375 114.441406 171.433594 115.296875 171.414062 C 116.359375 171.390625 117.039062 170.734375 117.105469 169.515625 Z M 117.105469 169.515625 " fill-opacity="1" fill-rule="nonzero"/><path fill="#ffffff" d="M 97.777344 213.546875 C 94.375 213.597656 91.433594 211.40625 90.550781 208.410156 C 89.679688 205.4375 90.933594 202.3125 93.640625 200.585938 C 94.449219 200.074219 95.078125 199.945312 95.78125 200.792969 C 97.078125 202.363281 98.726562 203.460938 100.746094 203.871094 C 101.582031 204.042969 101.984375 204.394531 101.949219 205.269531 C 101.914062 206.117188 102.234375 206.898438 102.566406 207.664062 C 103.554688 209.96875 103.125 211.25 100.933594 212.550781 C 99.859375 213.191406 98.664062 213.382812 97.777344 213.546875 Z M 96.269531 203.191406 C 96.132812 202.304688 95.648438 201.613281 94.664062 201.683594 C 93.628906 201.753906 92.746094 202.3125 92.78125 203.472656 C 92.804688 204.382812 93.449219 205.0625 94.414062 205.039062 C 95.488281 205.007812 96.21875 204.433594 96.269531 203.191406 Z M 96.269531 203.191406 " fill-opacity="1" fill-rule="nonzero"/><g clip-path="url(#be396b0f75)"><path fill="#ffffff" d="M 154.644531 32.832031 C 151.6875 32.832031 148.726562 32.761719 145.773438 32.863281 C 144.417969 32.910156 143.851562 32.523438 144.105469 31.152344 C 144.136719 30.964844 144.113281 30.769531 144.117188 30.574219 C 144.164062 28.347656 144.164062 28.347656 146.320312 28.34375 C 151.980469 28.34375 157.636719 28.394531 163.292969 28.308594 C 164.714844 28.285156 165.339844 28.65625 165.203125 30.101562 C 165.160156 30.546875 165.1875 31.007812 165.261719 31.449219 C 165.445312 32.558594 165 32.886719 163.902344 32.863281 C 160.820312 32.796875 157.730469 32.839844 154.644531 32.839844 C 154.644531 32.835938 154.644531 32.832031 154.644531 32.832031 Z M 154.644531 32.832031 " fill-opacity="1" fill-rule="nonzero"/></g><path fill="#ffffff" d="M 124.734375 181.539062 C 122.839844 180.1875 122.792969 179.777344 124.5625 178.304688 C 126.6875 176.535156 129.105469 176 131.761719 176.898438 C 134.210938 177.730469 135.707031 179.445312 136.222656 181.984375 C 136.410156 182.90625 136.425781 183.714844 135.324219 184.203125 C 133.035156 185.214844 131.53125 187.039062 130.59375 189.296875 C 130.1875 190.277344 129.605469 190.476562 128.664062 190.359375 C 127.523438 190.222656 127.835938 189.378906 127.851562 188.75 C 127.921875 186.097656 126.917969 183.890625 125.167969 181.964844 C 125.410156 182.042969 125.652344 182.125 125.898438 182.195312 C 126.65625 182.417969 127.332031 182.179688 127.753906 181.574219 C 128.132812 181.03125 128.117188 180.332031 127.765625 179.75 C 127.378906 179.097656 126.679688 179.1875 126.042969 179.191406 C 124.246094 179.210938 124.730469 180.511719 124.734375 181.539062 Z M 124.734375 181.539062 " fill-opacity="1" fill-rule="nonzero"/><path fill="#ffffff" d="M 127.960938 172.476562 C 128.082031 170.550781 127.320312 168.886719 126.25 167.316406 C 126.019531 166.972656 125.304688 166.65625 126.160156 166.128906 C 127.207031 165.488281 126.976562 164.507812 126.277344 163.882812 C 125.386719 163.085938 124.304688 163.066406 123.394531 164.050781 C 123.1875 164.273438 123.257812 164.972656 122.667969 164.53125 C 122.285156 164.246094 122.417969 163.839844 122.65625 163.507812 C 123.863281 161.824219 125.609375 161.039062 127.574219 160.8125 C 131.726562 160.339844 135.667969 164.472656 135.140625 168.613281 C 135.054688 169.304688 134.753906 169.664062 134.148438 169.84375 C 132.226562 170.40625 130.769531 171.632812 129.46875 173.089844 C 129.09375 173.511719 128.695312 174.246094 128.15625 174.039062 C 127.539062 173.804688 128.078125 173.035156 127.960938 172.476562 Z M 127.960938 172.476562 " fill-opacity="1" fill-rule="nonzero"/><path fill="#ffffff" d="M 143.800781 179.285156 C 143.632812 179.980469 144.042969 181.085938 143.332031 181.539062 C 142.164062 182.285156 140.800781 182.738281 139.492188 183.238281 C 138.886719 183.472656 138.929688 182.871094 138.921875 182.546875 C 138.863281 179.628906 136.859375 177.644531 135.441406 175.394531 C 134.816406 174.402344 133.847656 173.90625 132.621094 174.542969 C 132.375 174.667969 132.03125 175.046875 131.816406 174.648438 C 131.65625 174.359375 132.054688 174.109375 132.277344 173.886719 C 134.054688 172.101562 136.992188 171.554688 139.421875 172.554688 C 142.234375 173.710938 143.8125 176.097656 143.800781 179.285156 Z M 143.800781 179.285156 " fill-opacity="1" fill-rule="nonzero"/><path fill="#ffffff" d="M 149.152344 193.132812 C 148.964844 189.414062 147.394531 186.660156 144.25 184.820312 C 143.945312 184.644531 143.425781 184.574219 143.539062 184.082031 C 143.558594 183.996094 144.238281 183.996094 144.597656 184.054688 C 150.046875 185.003906 152.546875 190.804688 149.515625 195.460938 C 149.347656 195.714844 148.949219 196.140625 148.910156 196.113281 C 148.515625 195.839844 148.8125 195.464844 148.855469 195.128906 C 148.941406 194.429688 149.0625 193.734375 149.152344 193.132812 Z M 149.152344 193.132812 " fill-opacity="1" fill-rule="nonzero"/><g clip-path="url(#de8c636a14)"><g clip-path="url(#b045b3199e)"><g clip-path="url(#02464d5d3a)"><path fill="#ffffff" d="M 73.644531 5.988281 C 74.886719 5.984375 76.152344 5.851562 77.367188 5.59375 C 80.03125 4.929688 82.710938 4.390625 85.472656 4.226562 C 87.6875 4.121094 90.117188 4.078125 92.121094 5.238281 C 93.894531 6.246094 95.089844 7.832031 96.28125 9.417969 C 97.621094 11.15625 99.238281 13.125 101.542969 13.480469 C 102.671875 13.660156 103.820312 13.582031 104.941406 13.675781 C 105.585938 13.738281 106.328125 13.871094 106.941406 13.59375 C 107.433594 13.414062 107.832031 13.117188 108.273438 12.855469 C 111.578125 10.925781 116.273438 8.847656 119.820312 11.253906 C 119.863281 11.25 119.863281 11.25 119.910156 11.285156 C 119.957031 11.324219 119.996094 11.320312 120.042969 11.359375 C 121.835938 12.539062 123.550781 13.808594 125.59375 14.535156 C 125.820312 14.640625 125.824219 15.066406 125.527344 15.097656 C 123.492188 15.269531 121.300781 15.972656 119.269531 15.375 C 117.902344 14.960938 116.703125 14.148438 115.339844 13.777344 C 113.933594 13.414062 112.460938 13.652344 111.050781 14.058594 C 110.675781 14.140625 107.976562 15.324219 107.738281 15.09375 C 108.820312 16.003906 109.394531 17.398438 110.320312 18.496094 C 110.472656 18.695312 110.25 19.015625 110.023438 18.914062 C 108.945312 18.429688 107.925781 17.679688 106.707031 18.277344 C 105.730469 18.722656 104.855469 19.371094 103.933594 19.941406 C 102.527344 20.816406 100.988281 21.617188 99.320312 21.621094 C 97.355469 21.617188 95.394531 20.882812 93.496094 20.3125 C 91.332031 19.644531 89.132812 19.0625 86.855469 19.34375 C 86.558594 19.375 86.429688 18.960938 86.714844 18.847656 C 88.066406 18.277344 89.539062 18.464844 90.964844 18.183594 C 91.636719 18.070312 92.632812 17.796875 92.628906 16.941406 C 92.648438 15.914062 91.585938 14.355469 91.03125 13.5625 C 88.570312 10.058594 84.675781 6.792969 80.097656 7.574219 C 79.382812 7.691406 78.667969 7.808594 77.914062 7.933594 C 75.808594 8.238281 72.941406 8.625 71.09375 7.324219 C 70.496094 6.917969 70.300781 6.296875 69.90625 5.78125 C 70.40625 5.6875 71.15625 5.90625 71.714844 5.933594 C 72.359375 5.953125 73.003906 5.96875 73.644531 5.988281 Z M 73.644531 5.988281 " fill-opacity="1" fill-rule="nonzero"/></g></g></g><g fill="#ffffff" fill-opacity="1"><g transform="translate(43.729521, 326.822565)"><g><path d="M 39.03125 0 L 23.578125 0 L 23.578125 -1.0625 C 25.722656 -1.207031 27.070312 -1.59375 27.625 -2.21875 C 28.1875 -2.851562 28.46875 -4.335938 28.46875 -6.671875 L 28.46875 -17.515625 L 11.625 -17.515625 L 11.625 -6.0625 C 11.625 -4.09375 11.921875 -2.8125 12.515625 -2.21875 C 13.109375 -1.625 14.441406 -1.238281 16.515625 -1.0625 L 16.515625 0 L 1.0625 0 L 1.0625 -1.0625 C 3.207031 -1.207031 4.554688 -1.59375 5.109375 -2.21875 C 5.671875 -2.851562 5.953125 -4.335938 5.953125 -6.671875 L 5.953125 -30.75 C 5.953125 -32.75 5.671875 -34.035156 5.109375 -34.609375 C 4.554688 -35.191406 3.207031 -35.570312 1.0625 -35.75 L 1.0625 -36.8125 L 16.515625 -36.8125 L 16.515625 -35.75 C 14.367188 -35.570312 13.015625 -35.191406 12.453125 -34.609375 C 11.898438 -34.035156 11.625 -32.75 11.625 -30.75 L 11.625 -19.96875 L 28.46875 -19.96875 L 28.46875 -30.75 C 28.46875 -32.75 28.1875 -34.035156 27.625 -34.609375 C 27.070312 -35.191406 25.722656 -35.570312 23.578125 -35.75 L 23.578125 -36.8125 L 39.03125 -36.8125 L 39.03125 -35.75 C 36.882812 -35.570312 35.53125 -35.191406 34.96875 -34.609375 C 34.414062 -34.035156 34.140625 -32.75 34.140625 -30.75 L 34.140625 -6.0625 C 34.140625 -4.09375 34.4375 -2.8125 35.03125 -2.21875 C 35.625 -1.625 36.957031 -1.238281 39.03125 -1.0625 Z M 39.03125 0 "/></g></g></g><g fill="#ffffff" fill-opacity="1"><g transform="translate(83.864235, 326.822565)"><g><path d="M 39.265625 0 L 25.078125 0 L 25.078125 -1.0625 C 26.597656 -1.0625 27.632812 -1.226562 28.1875 -1.5625 C 28.707031 -1.820312 28.96875 -2.265625 28.96875 -2.890625 C 28.96875 -3.773438 28.617188 -5.035156 27.921875 -6.671875 L 25.640625 -12.015625 L 11.0625 -12.015625 L 8.515625 -5.5 C 8.210938 -4.726562 8.0625 -4.007812 8.0625 -3.34375 C 8.0625 -1.820312 9.320312 -1.0625 11.84375 -1.0625 L 11.84375 0 L 0.828125 0 L 0.828125 -1.0625 C 2.171875 -1.132812 3.210938 -1.660156 3.953125 -2.640625 C 4.691406 -3.617188 5.953125 -6.128906 7.734375 -10.171875 L 19.296875 -37.484375 L 20.40625 -37.484375 L 34.25 -5.890625 C 35.21875 -3.816406 35.976562 -2.507812 36.53125 -1.96875 C 37.09375 -1.4375 38.003906 -1.132812 39.265625 -1.0625 Z M 24.859375 -14.296875 L 18.40625 -29.578125 L 12.015625 -14.296875 Z M 24.859375 -14.296875 "/></g></g></g><g fill="#ffffff" fill-opacity="1"><g transform="translate(116.770524, 326.822565)"><g><path d="M 38.765625 -35.75 C 37.429688 -35.675781 36.472656 -35.34375 35.890625 -34.75 C 35.316406 -34.15625 34.566406 -32.765625 33.640625 -30.578125 L 21.296875 0.609375 L 20.46875 0.609375 L 6.78125 -29.921875 C 5.59375 -32.398438 4.65625 -33.984375 3.96875 -34.671875 C 3.289062 -35.359375 2.265625 -35.71875 0.890625 -35.75 L 0.890625 -36.8125 L 15.6875 -36.8125 L 15.6875 -35.75 C 14.644531 -35.675781 14.101562 -35.640625 14.0625 -35.640625 C 12.363281 -35.535156 11.515625 -34.960938 11.515625 -33.921875 C 11.515625 -33.179688 12.273438 -31.125 13.796875 -27.75 L 22.1875 -8.953125 L 30.359375 -29.359375 C 31.066406 -31.140625 31.421875 -32.492188 31.421875 -33.421875 C 31.421875 -34.203125 31.125 -34.765625 30.53125 -35.109375 C 29.9375 -35.460938 28.878906 -35.675781 27.359375 -35.75 L 27.359375 -36.8125 L 38.765625 -36.8125 Z M 38.765625 -35.75 "/></g></g></g><g fill="#ffffff" fill-opacity="1"><g transform="translate(156.905238, 326.822565)"><g><path d="M 32.96875 -10.015625 C 32.96875 -7.234375 31.929688 -4.914062 29.859375 -3.0625 C 27.640625 -1.019531 24.191406 0 19.515625 0 L 0.953125 0 L 0.953125 -1.0625 C 3.242188 -1.132812 4.703125 -1.46875 5.328125 -2.0625 C 5.960938 -2.65625 6.28125 -3.988281 6.28125 -6.0625 L 6.28125 -30.75 C 6.28125 -32.789062 5.972656 -34.097656 5.359375 -34.671875 C 4.753906 -35.242188 3.285156 -35.601562 0.953125 -35.75 L 0.953125 -36.8125 L 16.515625 -36.8125 C 26.222656 -36.8125 31.078125 -33.660156 31.078125 -27.359375 C 31.078125 -24.953125 30.335938 -23.097656 28.859375 -21.796875 C 27.671875 -20.753906 25.875 -19.941406 23.46875 -19.359375 C 25.28125 -18.910156 26.660156 -18.472656 27.609375 -18.046875 C 28.554688 -17.617188 29.4375 -17.035156 30.25 -16.296875 C 32.0625 -14.585938 32.96875 -12.492188 32.96875 -10.015625 Z M 26.578125 -9.953125 C 26.578125 -13.359375 25.019531 -15.710938 21.90625 -17.015625 C 20.125 -17.753906 16.804688 -18.125 11.953125 -18.125 L 11.953125 -4.34375 C 11.953125 -3.445312 12.191406 -2.84375 12.671875 -2.53125 C 13.160156 -2.21875 14.085938 -2.0625 15.453125 -2.0625 C 18.898438 -2.0625 21.476562 -2.539062 23.1875 -3.5 C 25.445312 -4.800781 26.578125 -6.953125 26.578125 -9.953125 Z M 25.40625 -27.140625 C 25.40625 -29.617188 24.570312 -31.503906 22.90625 -32.796875 C 21.238281 -34.097656 18.8125 -34.75 15.625 -34.75 L 13.171875 -34.75 C 12.359375 -34.75 11.953125 -34.195312 11.953125 -33.09375 L 11.953125 -20.359375 L 17.234375 -20.359375 C 19.828125 -20.359375 21.835938 -20.941406 23.265625 -22.109375 C 24.691406 -23.273438 25.40625 -24.953125 25.40625 -27.140625 Z M 25.40625 -27.140625 "/></g></g></g><g fill="#ffffff" fill-opacity="1"><g transform="translate(193.9826, 326.822565)"><g><path d="M 33.25 -9.671875 L 30.578125 0 L 0.671875 0 L 0.671875 -1.0625 C 2.703125 -1.207031 4.015625 -1.582031 4.609375 -2.1875 C 5.203125 -2.800781 5.5 -4.09375 5.5 -6.0625 L 5.5 -30.75 C 5.5 -32.71875 5.210938 -34 4.640625 -34.59375 C 4.066406 -35.1875 2.742188 -35.570312 0.671875 -35.75 L 0.671875 -36.8125 L 16.34375 -36.8125 L 16.34375 -35.75 C 14.15625 -35.601562 12.742188 -35.222656 12.109375 -34.609375 C 11.484375 -34.003906 11.171875 -32.71875 11.171875 -30.75 L 11.171875 -4.453125 C 11.171875 -3.484375 11.457031 -2.859375 12.03125 -2.578125 C 12.613281 -2.304688 13.921875 -2.171875 15.953125 -2.171875 L 19.6875 -2.171875 C 24.320312 -2.171875 27.582031 -3.300781 29.46875 -5.5625 C 30.175781 -6.375 30.972656 -7.742188 31.859375 -9.671875 Z M 33.25 -9.671875 "/></g></g></g><g fill="#ffffff" fill-opacity="1"><g transform="translate(227.947013, 326.822565)"><g><path d="M 17.515625 0 L 1 0 L 1 -1.0625 C 3.332031 -1.132812 4.8125 -1.46875 5.4375 -2.0625 C 6.070312 -2.65625 6.390625 -3.988281 6.390625 -6.0625 L 6.390625 -30.75 C 6.390625 -32.789062 6.082031 -34.097656 5.46875 -34.671875 C 4.863281 -35.242188 3.375 -35.601562 1 -35.75 L 1 -36.8125 L 17.515625 -36.8125 L 17.515625 -35.75 C 15.179688 -35.644531 13.6875 -35.296875 13.03125 -34.703125 C 12.382812 -34.109375 12.0625 -32.789062 12.0625 -30.75 L 12.0625 -6.0625 C 12.0625 -4.019531 12.394531 -2.691406 13.0625 -2.078125 C 13.726562 -1.472656 15.210938 -1.132812 17.515625 -1.0625 Z M 17.515625 0 "/></g></g></g><g fill="#ffffff" fill-opacity="1"><g transform="translate(246.457903, 326.822565)"><g><path d="M 39.3125 -35.75 C 37.53125 -35.570312 36.304688 -35.238281 35.640625 -34.75 C 34.566406 -34.007812 34.03125 -31.972656 34.03125 -28.640625 L 34.03125 0.609375 L 33.09375 0.609375 L 8.515625 -29.96875 L 8.515625 -8.171875 C 8.515625 -5.359375 8.847656 -3.492188 9.515625 -2.578125 C 10.179688 -1.671875 11.585938 -1.164062 13.734375 -1.0625 L 13.734375 0 L 0.671875 0 L 0.671875 -1.0625 C 2.960938 -1.207031 4.429688 -1.710938 5.078125 -2.578125 C 5.734375 -3.453125 6.0625 -5.316406 6.0625 -8.171875 L 6.0625 -32.703125 C 4.945312 -33.992188 4.066406 -34.820312 3.421875 -35.1875 C 2.773438 -35.5625 1.859375 -35.75 0.671875 -35.75 L 0.671875 -36.8125 L 10.171875 -36.8125 L 31.59375 -9.90625 L 31.59375 -28.640625 C 31.59375 -32.046875 31.050781 -34.117188 29.96875 -34.859375 C 29.195312 -35.304688 27.957031 -35.601562 26.25 -35.75 L 26.25 -36.8125 L 39.3125 -36.8125 Z M 39.3125 -35.75 "/></g></g></g><g fill="#ffffff" fill-opacity="1"><g transform="translate(286.592617, 326.822565)"><g><path d="M 40.203125 0 L 23.25 0 L 23.25 -1.0625 C 23.6875 -1.09375 24.203125 -1.109375 24.796875 -1.109375 C 26.359375 -1.179688 27.140625 -1.585938 27.140625 -2.328125 C 27.140625 -3.003906 26.460938 -4.226562 25.109375 -6 C 23.753906 -7.78125 22.019531 -9.710938 19.90625 -11.796875 L 14.015625 -17.625 L 12.5625 -16.453125 L 12.5625 -6.0625 C 12.5625 -4.019531 12.859375 -2.710938 13.453125 -2.140625 C 14.046875 -1.566406 15.421875 -1.207031 17.578125 -1.0625 L 17.578125 0 L 1.890625 0 L 1.890625 -1.0625 C 4.078125 -1.207031 5.457031 -1.601562 6.03125 -2.25 C 6.601562 -2.894531 6.890625 -4.367188 6.890625 -6.671875 L 6.890625 -30.75 C 6.890625 -32.71875 6.59375 -34.003906 6 -34.609375 C 5.40625 -35.222656 4.035156 -35.601562 1.890625 -35.75 L 1.890625 -36.8125 L 17.6875 -36.8125 L 17.6875 -35.75 C 15.425781 -35.601562 14.003906 -35.242188 13.421875 -34.671875 C 12.847656 -34.097656 12.5625 -32.789062 12.5625 -30.75 L 12.5625 -19.359375 L 22.40625 -28.3125 C 25.300781 -30.976562 26.75 -32.882812 26.75 -34.03125 C 26.75 -34.582031 26.570312 -34.976562 26.21875 -35.21875 C 25.863281 -35.46875 25.257812 -35.628906 24.40625 -35.703125 C 23.894531 -35.703125 23.414062 -35.71875 22.96875 -35.75 L 22.96875 -36.8125 L 37.53125 -36.8125 L 37.53125 -35.75 C 35.644531 -35.601562 34.238281 -35.296875 33.3125 -34.828125 C 32.382812 -34.367188 30.972656 -33.234375 29.078125 -31.421875 L 18.515625 -20.96875 L 31.46875 -7.0625 C 33.988281 -4.351562 35.710938 -2.679688 36.640625 -2.046875 C 37.566406 -1.421875 38.753906 -1.09375 40.203125 -1.0625 Z M 40.203125 0 "/></g></g></g><g fill="#ffffff" fill-opacity="1"><g transform="translate(326.730094, 326.822565)"><g/></g></g><g fill="#ffffff" fill-opacity="1"><g transform="translate(98.252332, 366.093458)"><g><path d="M 26.765625 -24.6875 C 25.835938 -24.632812 25.175781 -24.398438 24.78125 -23.984375 C 24.382812 -23.578125 23.863281 -22.617188 23.21875 -21.109375 L 14.703125 0.421875 L 14.125 0.421875 L 4.6875 -20.65625 C 3.863281 -22.363281 3.210938 -23.453125 2.734375 -23.921875 C 2.265625 -24.398438 1.554688 -24.65625 0.609375 -24.6875 L 0.609375 -25.421875 L 10.828125 -25.421875 L 10.828125 -24.6875 C 10.109375 -24.632812 9.738281 -24.609375 9.71875 -24.609375 C 8.539062 -24.535156 7.953125 -24.140625 7.953125 -23.421875 C 7.953125 -22.910156 8.472656 -21.488281 9.515625 -19.15625 L 15.3125 -6.1875 L 20.96875 -20.265625 C 21.445312 -21.492188 21.6875 -22.429688 21.6875 -23.078125 C 21.6875 -23.609375 21.484375 -23.992188 21.078125 -24.234375 C 20.671875 -24.484375 19.941406 -24.632812 18.890625 -24.6875 L 18.890625 -25.421875 L 26.765625 -25.421875 Z M 26.765625 -24.6875 "/></g></g></g><g fill="#ffffff" fill-opacity="1"><g transform="translate(125.968689, 366.093458)"><g><path d="M 12.09375 0 L 0.6875 0 L 0.6875 -0.734375 C 2.300781 -0.785156 3.328125 -1.015625 3.765625 -1.421875 C 4.203125 -1.828125 4.421875 -2.75 4.421875 -4.1875 L 4.421875 -21.234375 C 4.421875 -22.640625 4.207031 -23.539062 3.78125 -23.9375 C 3.351562 -24.332031 2.320312 -24.582031 0.6875 -24.6875 L 0.6875 -25.421875 L 12.09375 -25.421875 L 12.09375 -24.6875 C 10.476562 -24.601562 9.445312 -24.359375 9 -23.953125 C 8.550781 -23.546875 8.328125 -22.640625 8.328125 -21.234375 L 8.328125 -4.1875 C 8.328125 -2.78125 8.554688 -1.863281 9.015625 -1.4375 C 9.484375 -1.019531 10.507812 -0.785156 12.09375 -0.734375 Z M 12.09375 0 "/></g></g></g><g fill="#ffffff" fill-opacity="1"><g transform="translate(138.751998, 366.093458)"><g><path d="M 27.140625 -24.6875 C 25.910156 -24.5625 25.066406 -24.332031 24.609375 -24 C 23.867188 -23.476562 23.5 -22.066406 23.5 -19.765625 L 23.5 0.421875 L 22.84375 0.421875 L 5.875 -20.6875 L 5.875 -5.640625 C 5.875 -3.691406 6.101562 -2.40625 6.5625 -1.78125 C 7.019531 -1.15625 7.992188 -0.804688 9.484375 -0.734375 L 9.484375 0 L 0.453125 0 L 0.453125 -0.734375 C 2.046875 -0.835938 3.066406 -1.1875 3.515625 -1.78125 C 3.960938 -2.382812 4.1875 -3.671875 4.1875 -5.640625 L 4.1875 -22.578125 C 3.414062 -23.472656 2.804688 -24.046875 2.359375 -24.296875 C 1.910156 -24.554688 1.273438 -24.6875 0.453125 -24.6875 L 0.453125 -25.421875 L 7.03125 -25.421875 L 21.8125 -6.828125 L 21.8125 -19.765625 C 21.8125 -22.117188 21.4375 -23.554688 20.6875 -24.078125 C 20.15625 -24.378906 19.300781 -24.582031 18.125 -24.6875 L 18.125 -25.421875 L 27.140625 -25.421875 Z M 27.140625 -24.6875 "/></g></g></g><g fill="#ffffff" fill-opacity="1"><g transform="translate(165.700559, 366.093458)"><g><path d="M 27.21875 -12.90625 C 26.09375 -12.800781 25.363281 -12.5625 25.03125 -12.1875 C 24.695312 -11.8125 24.53125 -11.0625 24.53125 -9.9375 L 24.53125 -2.15625 C 23.757812 -1.488281 22.367188 -0.875 20.359375 -0.3125 C 18.359375 0.25 16.535156 0.53125 14.890625 0.53125 C 10.566406 0.53125 7.078125 -0.835938 4.421875 -3.578125 C 2.296875 -5.796875 1.234375 -8.765625 1.234375 -12.484375 C 1.234375 -16.390625 2.46875 -19.609375 4.9375 -22.140625 C 7.40625 -24.679688 10.554688 -25.953125 14.390625 -25.953125 C 16.109375 -25.953125 17.851562 -25.65625 19.625 -25.0625 C 20.28125 -24.8125 20.84375 -24.6875 21.3125 -24.6875 C 21.71875 -24.6875 22.070312 -24.804688 22.375 -25.046875 C 22.6875 -25.296875 22.90625 -25.597656 23.03125 -25.953125 L 23.875 -25.953125 L 24.1875 -17.859375 L 23.296875 -17.859375 C 22.453125 -19.929688 21.546875 -21.414062 20.578125 -22.3125 C 19.046875 -23.71875 17.203125 -24.421875 15.046875 -24.421875 C 12.335938 -24.421875 10.113281 -23.445312 8.375 -21.5 C 7.53125 -20.550781 6.859375 -19.265625 6.359375 -17.640625 C 5.859375 -16.015625 5.609375 -14.304688 5.609375 -12.515625 C 5.609375 -8.953125 6.507812 -6.140625 8.3125 -4.078125 C 10.113281 -2.023438 12.578125 -1 15.703125 -1 C 17.085938 -1 18.285156 -1.222656 19.296875 -1.671875 C 20.304688 -2.117188 20.8125 -2.648438 20.8125 -3.265625 L 20.8125 -9.484375 C 20.8125 -11.066406 20.539062 -12.023438 20 -12.359375 C 19.59375 -12.617188 18.734375 -12.800781 17.421875 -12.90625 L 17.421875 -13.59375 L 27.21875 -13.59375 Z M 27.21875 -12.90625 "/></g></g></g><g fill="#ffffff" fill-opacity="1"><g transform="translate(192.457165, 366.093458)"><g><path d="M 27.109375 0 L 17.3125 0 L 17.3125 -0.734375 C 18.363281 -0.734375 19.082031 -0.847656 19.46875 -1.078125 C 19.820312 -1.253906 20 -1.5625 20 -2 C 20 -2.613281 19.753906 -3.484375 19.265625 -4.609375 L 17.703125 -8.296875 L 7.640625 -8.296875 L 5.875 -3.796875 C 5.664062 -3.265625 5.5625 -2.765625 5.5625 -2.296875 C 5.5625 -1.253906 6.429688 -0.734375 8.171875 -0.734375 L 8.171875 0 L 0.578125 0 L 0.578125 -0.734375 C 1.492188 -0.785156 2.207031 -1.148438 2.71875 -1.828125 C 3.238281 -2.503906 4.113281 -4.238281 5.34375 -7.03125 L 13.328125 -25.875 L 14.09375 -25.875 L 23.65625 -4.0625 C 24.3125 -2.632812 24.832031 -1.734375 25.21875 -1.359375 C 25.601562 -0.992188 26.234375 -0.785156 27.109375 -0.734375 Z M 17.15625 -9.859375 L 12.703125 -20.421875 L 8.296875 -9.859375 Z M 16.40625 -33.265625 C 17.164062 -32.515625 17.546875 -31.613281 17.546875 -30.5625 C 17.546875 -29.507812 17.164062 -28.613281 16.40625 -27.875 C 15.65625 -27.132812 14.753906 -26.765625 13.703125 -26.765625 C 12.628906 -26.765625 11.726562 -27.132812 11 -27.875 C 10.269531 -28.613281 9.90625 -29.519531 9.90625 -30.59375 C 9.90625 -31.644531 10.273438 -32.539062 11.015625 -33.28125 C 11.753906 -34.019531 12.648438 -34.390625 13.703125 -34.390625 C 14.753906 -34.390625 15.65625 -34.015625 16.40625 -33.265625 Z M 15.484375 -28.78125 C 15.984375 -29.269531 16.234375 -29.859375 16.234375 -30.546875 C 16.234375 -31.242188 15.984375 -31.84375 15.484375 -32.34375 C 14.984375 -32.84375 14.40625 -33.09375 13.75 -33.09375 C 13.050781 -33.09375 12.453125 -32.847656 11.953125 -32.359375 C 11.453125 -31.878906 11.203125 -31.289062 11.203125 -30.59375 C 11.203125 -29.90625 11.445312 -29.3125 11.9375 -28.8125 C 12.425781 -28.3125 13.003906 -28.0625 13.671875 -28.0625 C 14.378906 -28.0625 14.984375 -28.300781 15.484375 -28.78125 Z M 15.484375 -28.78125 "/></g></g></g><g fill="#ffffff" fill-opacity="1"><g transform="translate(220.173522, 366.093458)"><g><path d="M 25.296875 0 L 19.125 0 L 9.984375 -11.828125 L 7.828125 -11.75 L 7.828125 -4.1875 C 7.828125 -2.800781 8.03125 -1.90625 8.4375 -1.5 C 8.851562 -1.09375 9.800781 -0.835938 11.28125 -0.734375 L 11.28125 0 L 0.65625 0 L 0.65625 -0.734375 C 2.082031 -0.835938 2.984375 -1.113281 3.359375 -1.5625 C 3.734375 -2.007812 3.921875 -3.023438 3.921875 -4.609375 L 3.921875 -21.234375 C 3.921875 -22.585938 3.734375 -23.460938 3.359375 -23.859375 C 2.984375 -24.253906 2.082031 -24.53125 0.65625 -24.6875 L 0.65625 -25.421875 L 11.25 -25.421875 C 13.039062 -25.421875 14.675781 -25.1875 16.15625 -24.71875 C 17.644531 -24.257812 18.757812 -23.632812 19.5 -22.84375 C 20.5 -21.71875 21 -20.320312 21 -18.65625 C 21 -16.757812 20.347656 -15.289062 19.046875 -14.25 C 17.941406 -13.351562 16.273438 -12.6875 14.046875 -12.25 L 21.953125 -2.53125 C 22.492188 -1.894531 23 -1.445312 23.46875 -1.1875 C 23.945312 -0.9375 24.554688 -0.785156 25.296875 -0.734375 Z M 16.8125 -18.734375 C 16.8125 -20.523438 16.238281 -21.847656 15.09375 -22.703125 C 13.957031 -23.566406 12.191406 -24 9.796875 -24 C 9.023438 -24 8.503906 -23.898438 8.234375 -23.703125 C 7.960938 -23.515625 7.828125 -23.148438 7.828125 -22.609375 L 7.828125 -13.171875 C 9.703125 -13.222656 11.085938 -13.332031 11.984375 -13.5 C 12.878906 -13.664062 13.757812 -13.988281 14.625 -14.46875 C 16.082031 -15.238281 16.8125 -16.660156 16.8125 -18.734375 Z M 16.8125 -18.734375 "/></g></g></g><g fill="#ffffff" fill-opacity="1"><g transform="translate(245.778522, 366.093458)"><g><path d="M 26.296875 -12.828125 C 26.296875 -8.929688 24.988281 -5.796875 22.375 -3.421875 C 21.195312 -2.335938 19.648438 -1.492188 17.734375 -0.890625 C 15.816406 -0.296875 13.742188 0 11.515625 0 L 0.609375 0 L 0.609375 -0.734375 C 2.066406 -0.835938 2.992188 -1.09375 3.390625 -1.5 C 3.796875 -1.90625 4 -2.800781 4 -4.1875 L 4 -21.234375 C 4 -22.640625 3.8125 -23.535156 3.4375 -23.921875 C 3.0625 -24.304688 2.117188 -24.5625 0.609375 -24.6875 L 0.609375 -25.421875 L 10.984375 -25.421875 C 16.378906 -25.421875 20.394531 -24.078125 23.03125 -21.390625 C 25.207031 -19.210938 26.296875 -16.359375 26.296875 -12.828125 Z M 22.109375 -12.546875 C 22.109375 -16.796875 20.585938 -19.972656 17.546875 -22.078125 C 15.722656 -23.359375 13.175781 -24 9.90625 -24 C 9.113281 -24 8.582031 -23.894531 8.3125 -23.6875 C 8.039062 -23.476562 7.90625 -23.082031 7.90625 -22.5 L 7.90625 -3 C 7.90625 -2.382812 8.046875 -1.96875 8.328125 -1.75 C 8.609375 -1.53125 9.132812 -1.421875 9.90625 -1.421875 C 13.082031 -1.421875 15.585938 -1.945312 17.421875 -3 C 20.546875 -4.8125 22.109375 -7.992188 22.109375 -12.546875 Z M 22.109375 -12.546875 "/></g></g></g></svg>