<svg xmlns="http://www.w3.org/2000/svg" xmlns:xlink="http://www.w3.org/1999/xlink" width="500" zoomAndPan="magnify" viewBox="0 0 375 374.999991" height="500" preserveAspectRatio="xMidYMid meet" version="1.0"><defs><g/><clipPath id="ba71f75555"><path d="M 90.011719 190 L 269 190 L 269 223 L 90.011719 223 Z M 90.011719 190 " clip-rule="nonzero"/></clipPath><clipPath id="c651f2a77c"><path d="M 152 207 L 285 207 L 285 255.558594 L 152 255.558594 Z M 152 207 " clip-rule="nonzero"/></clipPath><clipPath id="d320ce2368"><path d="M 156 72.558594 L 173 72.558594 L 173 77 L 156 77 Z M 156 72.558594 " clip-rule="nonzero"/></clipPath><clipPath id="05f215062e"><path d="M 100 54 L 143 54 L 143 68 L 100 68 Z M 100 54 " clip-rule="nonzero"/></clipPath><clipPath id="c7dfdddeb0"><path d="M 100.460938 55.6875 L 141.480469 51.363281 L 142.976562 65.535156 L 101.953125 69.855469 Z M 100.460938 55.6875 " clip-rule="nonzero"/></clipPath><clipPath id="8a5798c726"><path d="M 141.273438 51.382812 L 100.25 55.707031 L 101.742188 69.878906 L 142.765625 65.554688 Z M 141.273438 51.382812 " clip-rule="nonzero"/></clipPath></defs><path fill="#ffffff" d="M 184.757812 162.488281 C 184.757812 171.46875 184.738281 180.449219 184.785156 189.429688 C 184.792969 190.503906 184.472656 190.898438 183.4375 191.132812 C 176.75 192.65625 170.285156 194.871094 163.976562 197.546875 C 163.800781 197.621094 163.632812 197.71875 163.449219 197.78125 C 163.1875 197.867188 162.824219 198.074219 162.664062 197.972656 C 162.355469 197.777344 162.691406 197.46875 162.753906 197.214844 C 163.621094 193.746094 162.785156 190.839844 159.8125 189.003906 C 158.261719 188.046875 157.761719 187.171875 157.769531 185.378906 C 157.785156 182.367188 155.382812 179.695312 152.4375 178.921875 C 151.679688 178.722656 151.214844 178.574219 151.214844 177.558594 C 151.210938 173.8125 149.320312 171.480469 145.617188 170.523438 C 144.761719 170.300781 144.339844 170.09375 144.535156 169.054688 C 144.789062 167.71875 144.648438 166.332031 143.984375 165.109375 C 143.429688 164.085938 143.328125 163.035156 143.332031 161.910156 C 143.355469 153.847656 143.339844 145.785156 143.359375 137.722656 C 143.371094 134.289062 143.648438 130.886719 144.515625 127.542969 C 146.023438 121.730469 149.03125 116.910156 153.984375 113.445312 C 155.664062 112.273438 156.3125 110.84375 156.351562 108.828125 C 156.5 101.300781 156.769531 93.773438 156.992188 86.246094 C 157.011719 85.671875 156.894531 85.101562 157.828125 85.089844 C 158.816406 85.074219 158.746094 85.660156 158.761719 86.304688 C 158.933594 93.691406 159.097656 101.074219 159.296875 108.457031 C 159.347656 110.347656 158.726562 112.054688 158.0625 113.761719 C 157.960938 114.023438 157.75 114.265625 157.960938 114.5625 C 158.144531 114.417969 158.363281 114.300781 158.507812 114.121094 C 159.683594 112.652344 160.789062 111.132812 161.746094 109.507812 C 162.113281 108.878906 162.082031 108.222656 162.066406 107.546875 C 161.917969 100.546875 161.792969 93.546875 161.605469 86.550781 C 161.578125 85.460938 161.8125 85.023438 163.007812 85.082031 C 165.226562 85.1875 167.449219 85.144531 169.671875 85.105469 C 170.476562 85.09375 170.875 85.234375 170.90625 86.191406 C 171.152344 93.8125 171.492188 101.429688 171.710938 109.054688 C 171.765625 110.949219 172.382812 112.328125 173.929688 113.472656 C 180.472656 118.308594 183.722656 125.003906 184.480469 132.953125 C 185.117188 139.644531 184.660156 146.367188 184.753906 153.074219 C 184.800781 156.210938 184.761719 159.351562 184.761719 162.488281 C 184.761719 162.488281 184.757812 162.488281 184.757812 162.488281 Z M 175 159.304688 C 175.054688 163.972656 174.855469 170.144531 174.523438 176.316406 C 174.492188 176.859375 174.253906 177.402344 174.519531 177.949219 C 174.660156 177.394531 174.847656 176.847656 174.929688 176.285156 C 175.605469 171.605469 176.136719 166.914062 176.496094 162.199219 C 177.15625 153.480469 177.359375 144.757812 177.25 136.015625 C 177.179688 130.433594 175.398438 125.539062 171.921875 121.21875 C 171.742188 121 171.527344 120.808594 171.332031 120.605469 C 171.03125 120.933594 171.324219 121.222656 171.414062 121.507812 C 172.640625 125.527344 173.59375 129.609375 174.035156 133.789062 C 174.878906 141.765625 175 149.777344 175 159.304688 Z M 147.039062 147.578125 C 147.160156 147.574219 147.285156 147.574219 147.40625 147.574219 C 147.40625 149.023438 147.371094 150.472656 147.414062 151.917969 C 147.542969 156.546875 147.625 161.175781 147.976562 165.792969 C 147.992188 166.027344 148.078125 166.253906 148.132812 166.484375 C 148.164062 166.261719 148.214844 166.042969 148.226562 165.824219 C 148.644531 156.136719 149.085938 146.453125 149.460938 136.765625 C 149.648438 131.941406 150.402344 127.285156 152.902344 123.046875 C 153.785156 121.550781 154.679688 120.070312 155.796875 118.730469 C 155.917969 118.582031 156.246094 118.402344 155.957031 118.160156 C 155.886719 118.101562 155.605469 118.222656 155.46875 118.324219 C 154.695312 118.898438 153.890625 119.445312 153.179688 120.089844 C 149.289062 123.609375 146.917969 127.824219 147.019531 133.25 C 147.109375 138.023438 147.039062 142.800781 147.039062 147.578125 Z M 147.039062 147.578125 " fill-opacity="1" fill-rule="nonzero"/><g clip-path="url(#ba71f75555)"><path fill="#ffffff" d="M 268.136719 203.128906 C 262.441406 202.011719 256.90625 200.9375 251.3125 200.234375 C 232.082031 197.820312 213.152344 198.476562 194.941406 205.949219 C 188.121094 208.746094 181.515625 212.058594 174.519531 214.429688 C 162.179688 218.613281 149.585938 221.765625 136.523438 222.210938 C 121.027344 222.734375 106.34375 219.4375 92.828125 211.589844 C 92.203125 211.230469 91.613281 210.804688 91.035156 210.367188 C 90.703125 210.117188 90.027344 209.886719 90.191406 209.519531 C 90.382812 209.089844 90.941406 209.515625 91.332031 209.609375 C 93.386719 210.109375 95.433594 210.679688 97.503906 211.121094 C 113.527344 214.535156 129.316406 213.582031 144.933594 208.679688 C 153.058594 206.128906 160.761719 202.621094 168.46875 199.070312 C 177.125 195.085938 186.261719 192.832031 195.707031 191.667969 C 205.925781 190.410156 216.136719 190.617188 226.335938 191.753906 C 235.234375 192.746094 243.859375 195 252.390625 197.640625 C 257.589844 199.25 262.746094 200.988281 267.890625 202.765625 C 268.113281 202.839844 268.300781 203.007812 268.507812 203.128906 C 268.328125 203.128906 268.148438 203.128906 268.136719 203.128906 Z M 268.136719 203.128906 " fill-opacity="1" fill-rule="nonzero"/></g><g clip-path="url(#c651f2a77c)"><path fill="#ffffff" d="M 182.453125 255.757812 C 172.464844 255.710938 162.78125 254.050781 153.523438 250.203125 C 153.109375 250.03125 152.554688 250.023438 152.371094 249.464844 C 152.800781 249.476562 153.230469 249.472656 153.65625 249.5 C 160.921875 250.023438 168.125 249.558594 175.253906 248.089844 C 190.378906 244.96875 203.972656 238.441406 216.507812 229.550781 C 224.394531 223.953125 232.601562 218.921875 241.632812 215.335938 C 250.5625 211.789062 259.8125 209.585938 269.34375 208.480469 C 274.289062 207.90625 279.246094 207.589844 284.226562 207.714844 C 284.46875 207.71875 284.878906 207.515625 284.945312 207.910156 C 284.988281 208.175781 284.613281 208.179688 284.398438 208.261719 C 272.785156 212.785156 262.4375 219.488281 252.589844 226.984375 C 243.125 234.195312 233.394531 240.925781 222.402344 245.660156 C 213.394531 249.539062 204.207031 252.84375 194.554688 254.722656 C 190.566406 255.496094 186.519531 255.785156 182.453125 255.757812 Z M 182.453125 255.757812 " fill-opacity="1" fill-rule="nonzero"/></g><path fill="#ffffff" d="M 155.472656 240.03125 C 145.023438 239.734375 134.292969 237.941406 124.199219 233.199219 C 123.574219 232.90625 122.808594 232.789062 122.4375 232.078125 C 123.121094 231.84375 123.753906 232.1875 124.402344 232.273438 C 140.359375 234.3125 155.617188 231.503906 170.460938 225.714844 C 177.539062 222.953125 184.203125 219.394531 190.734375 215.539062 C 200.839844 209.578125 211.636719 205.433594 223.214844 203.4375 C 231.332031 202.039062 239.5 201.546875 247.738281 202.039062 C 256.953125 202.59375 266.035156 204.03125 275.070312 205.859375 C 275.210938 205.886719 275.355469 205.898438 275.5 205.917969 C 275.738281 205.957031 276.085938 206.019531 276.058594 206.253906 C 276.027344 206.511719 275.667969 206.378906 275.464844 206.378906 C 270.585938 206.414062 265.714844 206.59375 260.855469 207.039062 C 244.902344 208.492188 229.6875 212.4375 215.902344 220.824219 C 201.347656 229.675781 185.671875 235.484375 169.027344 238.808594 C 164.757812 239.664062 160.429688 240.03125 155.472656 240.03125 Z M 155.472656 240.03125 " fill-opacity="1" fill-rule="nonzero"/><path fill="#ffffff" d="M 212.917969 139.253906 C 219.058594 139.164062 225.175781 139.550781 231.292969 140.019531 C 234.253906 140.25 234.949219 139.679688 235.289062 136.679688 C 235.699219 133.023438 234.964844 129.484375 234.234375 125.9375 C 234.140625 125.496094 233.460938 124.769531 234.269531 124.511719 C 235.226562 124.207031 235.679688 124.75 235.835938 125.804688 C 236.394531 129.523438 237.242188 133.195312 237.5625 136.949219 C 238.203125 144.414062 235.21875 150.199219 229.167969 154.414062 C 225.648438 156.867188 221.679688 158.445312 217.457031 159.148438 C 212.820312 159.917969 208.582031 158.582031 204.65625 156.101562 C 198.574219 152.261719 193.9375 147.3125 192.230469 140.082031 C 191.402344 136.570312 191.65625 133.074219 192.398438 129.605469 C 193.734375 123.339844 195.1875 117.105469 196.5 110.835938 C 196.78125 109.492188 197.417969 109.203125 198.664062 109.210938 C 203.445312 109.234375 208.226562 109.148438 213.007812 109.132812 C 215.183594 109.128906 217.351562 109.015625 219.515625 108.828125 C 220.035156 108.78125 220.722656 108.867188 220.871094 108.257812 C 221.042969 107.558594 220.507812 107.078125 219.90625 106.8125 C 218.984375 106.40625 218.023438 106.089844 217.089844 105.699219 C 215.164062 104.894531 214.183594 103.238281 214.414062 101.210938 C 214.445312 100.929688 214.4375 100.441406 214.707031 100.472656 C 216.238281 100.660156 215.441406 99.5625 215.542969 99 C 215.6875 98.207031 215.160156 96.996094 216.792969 97.253906 C 217.277344 97.328125 217.285156 96.917969 217.289062 96.5625 C 217.300781 95.578125 217.160156 94.582031 218.378906 94.03125 C 218.746094 93.863281 218.820312 93.101562 219.082031 92.640625 C 219.324219 92.210938 219.648438 92.042969 219.84375 92.683594 C 219.972656 93.105469 220.167969 93.507812 220.617188 93.160156 C 221.714844 92.3125 222.238281 92.945312 222.710938 93.855469 C 222.839844 94.105469 222.921875 94.457031 223.25 94.4375 C 223.347656 94.433594 223.425781 94.023438 223.507812 93.796875 C 223.832031 92.894531 224.191406 92 224.472656 91.078125 C 224.742188 90.199219 225.144531 90.214844 225.585938 90.890625 C 226.203125 91.828125 226.5625 91.441406 226.980469 90.734375 C 227.195312 90.363281 227.507812 90.050781 227.789062 89.71875 C 228.09375 89.363281 228.441406 89.265625 228.726562 89.71875 C 229.230469 90.503906 229.578125 90.113281 230.027344 89.640625 C 230.578125 89.0625 231.105469 88.148438 232.085938 89.101562 C 234.359375 88.363281 234.21875 89.816406 234.089844 91.289062 C 234.078125 91.445312 234.203125 91.730469 234.324219 91.765625 C 235.875 92.21875 235.214844 93.246094 234.992188 94.183594 C 234.78125 95.046875 234.144531 96.015625 235.636719 96.484375 C 236.042969 96.609375 235.746094 97.167969 235.574219 97.507812 C 235.074219 98.496094 234.585938 99.492188 234.042969 100.457031 C 233.71875 101.035156 233.894531 101.144531 234.441406 101.003906 C 235.710938 100.683594 237.011719 100.597656 238.308594 100.488281 C 238.710938 100.457031 239.394531 100.292969 239.417969 100.832031 C 239.46875 102.082031 240.175781 101.695312 240.863281 101.59375 C 241.820312 101.457031 242.789062 101.480469 243.753906 101.566406 C 244.523438 101.636719 244.886719 101.898438 244.265625 102.617188 C 243.582031 103.40625 244.144531 103.609375 244.789062 103.839844 C 245.648438 104.148438 246.5 104.484375 247.34375 104.832031 C 247.804688 105.023438 247.882812 105.25 247.460938 105.648438 C 247.015625 106.066406 245.839844 106.117188 246.578125 107.285156 C 246.679688 107.441406 245.652344 107.648438 245.269531 107.988281 C 245.042969 108.191406 243.769531 108.117188 244.882812 108.960938 C 245.148438 109.167969 244.691406 109.285156 244.5 109.351562 C 244.046875 109.507812 243.570312 109.613281 243.128906 109.796875 C 242.878906 109.902344 242.410156 110.050781 242.511719 110.3125 C 243.132812 111.917969 241.824219 111.277344 241.261719 111.375 C 240.652344 111.484375 240.007812 111.414062 239.382812 111.441406 C 238.949219 111.460938 238.546875 111.417969 238.585938 112.136719 C 238.628906 112.886719 237.835938 112.644531 237.414062 112.839844 C 237.210938 112.933594 236.894531 112.847656 236.804688 113.121094 C 236.707031 113.417969 237.007812 113.515625 237.179688 113.660156 C 237.433594 113.878906 237.707031 114.082031 237.976562 114.285156 C 239.175781 115.175781 239.199219 115.199219 238.070312 116.136719 C 237.582031 116.542969 237.550781 116.789062 237.980469 117.273438 C 238.808594 118.210938 239.535156 119.242188 240.34375 120.203125 C 240.8125 120.761719 240.621094 120.898438 240.019531 121.140625 C 239.351562 121.410156 238.125 120.800781 238.101562 122.300781 C 238.09375 122.570312 237.3125 122.414062 236.898438 122.34375 C 236.09375 122.207031 235.433594 121.894531 234.472656 122.332031 C 233.582031 122.738281 232.449219 121.921875 231.582031 121.316406 C 230.71875 120.714844 230.09375 120.402344 229.835938 121.8125 C 229.71875 122.46875 229.285156 122.328125 228.875 122.066406 C 228.054688 121.546875 227.285156 120.964844 226.710938 120.167969 C 226.234375 119.503906 226.007812 119.691406 225.679688 120.332031 C 224.636719 122.371094 224.632812 122.339844 223.214844 120.488281 C 221.6875 118.488281 221.019531 116.359375 221.847656 113.859375 C 222.097656 113.105469 222.304688 112.285156 222.097656 111.4375 C 221.773438 110.113281 221.398438 109.949219 220.421875 110.890625 C 216.925781 114.25 215.105469 118.285156 215.566406 123.21875 C 215.636719 123.972656 216.125 125.15625 214.882812 125.152344 C 213.738281 125.144531 214.058594 123.917969 214.117188 123.164062 C 214.476562 118.761719 215.675781 114.644531 218.425781 111.085938 C 218.589844 110.875 218.945312 110.671875 218.730469 110.371094 C 218.640625 110.246094 218.289062 110.277344 218.054688 110.277344 C 211.582031 110.367188 205.113281 110.207031 198.65625 109.753906 C 197.484375 109.667969 197.429688 110.375 197.269531 111.121094 C 196.234375 115.875 195.210938 120.636719 194.441406 125.445312 C 193.800781 129.445312 193.226562 133.457031 193.699219 137.539062 C 194.679688 146.058594 199.449219 151.628906 207.171875 154.851562 C 209.859375 155.972656 212.734375 156.417969 215.636719 156.585938 C 215.851562 156.601562 216.070312 156.527344 216.289062 156.496094 C 216.09375 156.371094 215.917969 156.1875 215.707031 156.125 C 212.75 155.25 209.832031 154.257812 206.988281 153.078125 C 201.59375 150.839844 197.707031 147.109375 195.765625 141.511719 C 195.21875 139.933594 195.21875 139.960938 196.855469 139.847656 C 202.207031 139.476562 207.554688 139.171875 212.917969 139.253906 Z M 227.882812 108.5625 C 232.386719 108.652344 236.421875 107.394531 240.535156 106.648438 C 240.753906 106.609375 240.945312 106.445312 241.148438 106.339844 C 240.96875 106.132812 240.722656 106.222656 240.511719 106.210938 C 239.015625 106.132812 237.523438 106.054688 236.027344 106 C 232.628906 105.878906 229.289062 106.199219 226.042969 107.285156 C 225.644531 107.417969 225.1875 107.84375 224.828125 107.542969 C 224.414062 107.195312 224.808594 106.636719 224.824219 106.171875 C 224.832031 105.9375 224.945312 105.707031 225 105.472656 C 225.539062 103.167969 226.429688 100.980469 227.226562 98.761719 C 227.289062 98.582031 227.417969 98.421875 227.277344 98.230469 C 227.152344 98.359375 226.984375 98.464844 226.90625 98.617188 C 225.5 101.359375 224.058594 104.085938 222.726562 106.863281 C 222.019531 108.332031 222.214844 108.828125 223.628906 109.738281 C 225.53125 110.964844 227.464844 112.148438 229.414062 113.304688 C 229.839844 113.558594 230.195312 114.035156 230.792969 113.929688 C 230.65625 113.367188 230.132812 113.164062 229.75 112.851562 C 228.359375 111.734375 226.929688 110.65625 225.746094 109.308594 C 225.597656 109.140625 225.339844 108.964844 225.472656 108.699219 C 225.609375 108.425781 225.898438 108.574219 226.117188 108.566406 C 226.792969 108.554688 227.46875 108.5625 227.882812 108.5625 Z M 227.882812 108.5625 " fill-opacity="1" fill-rule="nonzero"/><path fill="#ffffff" d="M 217.664062 171.382812 C 217.664062 174.472656 217.703125 177.5625 217.640625 180.652344 C 217.617188 181.710938 217.964844 182.53125 218.644531 183.265625 C 221.101562 185.90625 224.292969 187.234375 227.65625 188.214844 C 228.804688 188.550781 230.011719 188.6875 231.183594 188.957031 C 231.542969 189.039062 232.042969 189.167969 231.984375 189.644531 C 231.914062 190.226562 231.371094 189.992188 231.050781 189.945312 C 229.046875 189.667969 227.050781 189.328125 225.046875 189.046875 C 218.144531 188.078125 211.21875 187.664062 204.253906 188.121094 C 204.011719 188.136719 203.769531 188.148438 203.53125 188.152344 C 203.386719 188.152344 203.242188 188.132812 203.097656 188.125 C 203.175781 187.898438 203.390625 187.992188 203.542969 187.9375 C 204.851562 187.46875 206.21875 187.15625 207.476562 186.523438 C 208.472656 186.023438 209.445312 185.492188 210.3125 184.792969 C 211.855469 183.550781 212.753906 182.066406 212.660156 179.949219 C 212.398438 173.964844 212.28125 167.980469 212.0625 161.996094 C 212.027344 161.023438 212.125 160.660156 213.269531 160.855469 C 215.5 161.238281 215.554688 161.152344 215.46875 163.414062 C 215.277344 168.578125 215.199219 173.746094 215.230469 178.914062 C 215.230469 179.136719 215.308594 179.359375 215.351562 179.582031 C 215.597656 179.414062 215.5 179.144531 215.542969 178.921875 C 216.582031 173.597656 216.867188 168.203125 216.992188 162.796875 C 216.996094 162.601562 216.964844 162.402344 217.007812 162.21875 C 217.128906 161.722656 216.71875 160.800781 217.597656 160.882812 C 218.191406 160.933594 217.875 161.777344 217.878906 162.253906 C 217.902344 165.296875 217.890625 168.339844 217.890625 171.382812 C 217.816406 171.382812 217.738281 171.382812 217.664062 171.382812 Z M 217.664062 171.382812 " fill-opacity="1" fill-rule="nonzero"/><path fill="#ffffff" d="M 164.203125 83.300781 C 161.835938 83.300781 159.46875 83.25 157.105469 83.324219 C 156.046875 83.359375 155.769531 82.988281 155.871094 82 C 155.984375 80.847656 156 79.683594 156.007812 78.527344 C 156.011719 77.800781 156.269531 77.523438 157.03125 77.53125 C 161.761719 77.558594 166.496094 77.550781 171.226562 77.527344 C 171.917969 77.523438 172.167969 77.765625 172.171875 78.441406 C 172.175781 79.742188 172.207031 81.046875 172.289062 82.347656 C 172.335938 83.117188 172.050781 83.34375 171.300781 83.332031 C 168.933594 83.292969 166.566406 83.316406 164.203125 83.316406 C 164.203125 83.3125 164.203125 83.308594 164.203125 83.300781 Z M 164.203125 83.300781 " fill-opacity="1" fill-rule="nonzero"/><path fill="#ffffff" d="M 137.292969 205.03125 C 137.277344 207.910156 134.8125 210.257812 131.828125 210.234375 C 128.773438 210.207031 126.441406 207.855469 126.433594 204.789062 C 126.421875 202.058594 128.953125 199.628906 131.824219 199.617188 C 134.789062 199.601562 137.304688 202.09375 137.292969 205.03125 Z M 129.292969 203.921875 C 130.300781 203.875 130.847656 203.472656 130.835938 202.6875 C 130.824219 201.910156 130.304688 201.476562 129.492188 201.539062 C 128.714844 201.597656 128.210938 201.972656 128.28125 202.824219 C 128.339844 203.5625 128.75 203.953125 129.292969 203.921875 Z M 129.292969 203.921875 " fill-opacity="1" fill-rule="nonzero"/><path fill="#ffffff" d="M 144.324219 206.507812 C 141.308594 206.511719 138.914062 204.121094 138.914062 201.113281 C 138.917969 198.378906 141.320312 196.003906 144.109375 195.980469 C 147.234375 195.957031 149.65625 198.230469 149.664062 201.199219 C 149.671875 204.132812 147.289062 206.503906 144.324219 206.507812 Z M 143.328125 198.855469 C 143.179688 198.160156 142.820312 197.714844 142.050781 197.773438 C 141.304688 197.832031 140.710938 198.140625 140.746094 198.988281 C 140.777344 199.714844 141.257812 200.105469 141.988281 200.105469 C 142.796875 200.101562 143.171875 199.59375 143.328125 198.855469 Z M 143.328125 198.855469 " fill-opacity="1" fill-rule="nonzero"/><path fill="#ffffff" d="M 122.195312 161.699219 C 122.214844 158.863281 124.367188 156.714844 127.347656 156.550781 C 130.121094 156.402344 132.582031 158.421875 132.953125 161.117188 C 133.042969 161.753906 132.910156 162.195312 132.394531 162.621094 C 131.492188 163.359375 130.757812 164.304688 130.402344 165.402344 C 130.0625 166.449219 129.402344 166.75 128.425781 166.921875 C 125.289062 167.476562 122.171875 164.894531 122.195312 161.699219 Z M 126.558594 159.335938 C 126.40625 158.53125 125.863281 158.261719 125.105469 158.308594 C 124.355469 158.359375 123.953125 158.820312 123.980469 159.523438 C 124.011719 160.300781 124.503906 160.753906 125.308594 160.675781 C 126.070312 160.601562 126.476562 160.109375 126.558594 159.335938 Z M 126.558594 159.335938 " fill-opacity="1" fill-rule="nonzero"/><path fill="#ffffff" d="M 136.84375 187.644531 C 139.054688 187.660156 140.984375 189.003906 141.75 191.0625 C 142.453125 192.941406 142.082031 194.074219 140.40625 195.183594 C 139.628906 195.691406 138.914062 196.289062 138.453125 197.09375 C 137.976562 197.929688 137.324219 198.136719 136.417969 198.085938 C 133.589844 197.921875 131.1875 195.476562 131.296875 192.800781 C 131.414062 189.875 133.832031 187.625 136.84375 187.644531 Z M 134.359375 189.355469 C 133.738281 189.546875 133.132812 189.816406 133.183594 190.679688 C 133.234375 191.492188 133.746094 191.921875 134.515625 191.871094 C 135.242188 191.816406 135.8125 191.394531 135.796875 190.578125 C 135.777344 189.746094 135.15625 189.480469 134.359375 189.355469 Z M 134.359375 189.355469 " fill-opacity="1" fill-rule="nonzero"/><path fill="#ffffff" d="M 127.839844 180.65625 C 130.6875 180.644531 133.078125 182.785156 133.234375 185.445312 C 133.277344 186.179688 133.121094 186.707031 132.476562 187.167969 C 131.207031 188.085938 130.167969 189.246094 129.792969 190.824219 C 129.652344 191.425781 129.421875 191.347656 129.023438 191.125 C 128.167969 190.644531 127.203125 190.296875 126.269531 190.363281 C 124.484375 190.484375 123.632812 189.4375 122.945312 188.109375 C 122.183594 186.644531 122.199219 185.121094 122.921875 183.652344 C 123.855469 181.753906 125.710938 180.664062 127.839844 180.65625 Z M 126.84375 183.652344 C 126.835938 182.882812 126.332031 182.523438 125.675781 182.460938 C 124.878906 182.390625 124.25 182.761719 124.148438 183.609375 C 124.046875 184.4375 124.597656 184.863281 125.339844 184.886719 C 126.132812 184.910156 126.683594 184.480469 126.84375 183.652344 Z M 126.84375 183.652344 " fill-opacity="1" fill-rule="nonzero"/><path fill="#ffffff" d="M 114.683594 200.929688 C 112.136719 200.9375 109.996094 199.257812 109.429688 196.800781 C 108.867188 194.371094 110.0625 191.972656 112.402344 190.828125 C 114.667969 189.722656 117.449219 190.296875 118.980469 192.171875 C 119.414062 192.699219 119.5625 193.15625 119.164062 193.835938 C 118.257812 195.375 117.886719 197.058594 118.296875 198.839844 C 118.402344 199.296875 118.285156 199.574219 117.917969 199.8125 C 116.929688 200.453125 115.890625 200.933594 114.683594 200.929688 Z M 112.410156 194.597656 C 113.167969 194.488281 113.722656 194.089844 113.773438 193.328125 C 113.824219 192.492188 113.183594 192.117188 112.457031 192.113281 C 111.730469 192.109375 111.089844 192.46875 111.097656 193.304688 C 111.105469 194.09375 111.667969 194.472656 112.410156 194.597656 Z M 112.410156 194.597656 " fill-opacity="1" fill-rule="nonzero"/><path fill="#ffffff" d="M 137.460938 162.671875 C 141.082031 162.746094 143.503906 166.019531 142.507812 169.46875 C 142.320312 170.121094 142 170.59375 141.359375 170.847656 C 140.179688 171.3125 139.132812 171.96875 138.234375 172.878906 C 137.976562 173.140625 137.585938 173.296875 137.230469 173.421875 C 135.707031 173.964844 135.5625 173.886719 135.136719 172.347656 C 134.765625 170.996094 134.058594 169.839844 132.941406 169.027344 C 131.804688 168.199219 131.847656 167.222656 132.25 166.09375 C 132.980469 164.035156 135.121094 162.625 137.460938 162.671875 Z M 135.234375 166.796875 C 135.792969 166.757812 136.355469 166.371094 136.324219 165.589844 C 136.296875 164.832031 135.757812 164.417969 134.960938 164.433594 C 134.167969 164.449219 133.65625 164.847656 133.6875 165.648438 C 133.71875 166.425781 134.207031 166.84375 135.234375 166.796875 Z M 135.234375 166.796875 " fill-opacity="1" fill-rule="nonzero"/><path fill="#ffffff" d="M 117.445312 188.519531 C 114.851562 188.507812 112.550781 186.683594 112.117188 184.289062 C 111.664062 181.792969 113.144531 179.246094 115.601562 178.285156 C 117.992188 177.351562 120.949219 178.257812 122.300781 180.261719 C 122.671875 180.816406 122.457031 181.09375 122.117188 181.492188 C 120.949219 182.859375 120.25 184.453125 120.453125 186.261719 C 120.601562 187.582031 120.195312 188.207031 118.871094 188.347656 C 118.398438 188.394531 117.929688 188.507812 117.445312 188.519531 Z M 115.367188 182.148438 C 116.070312 182.066406 116.613281 181.675781 116.535156 180.875 C 116.46875 180.238281 116.097656 179.699219 115.292969 179.769531 C 114.550781 179.832031 113.925781 180.167969 113.957031 180.960938 C 113.984375 181.695312 114.488281 182.164062 115.367188 182.148438 Z M 115.367188 182.148438 " fill-opacity="1" fill-rule="nonzero"/><path fill="#ffffff" d="M 128.664062 178.625 C 128.128906 178.671875 127.691406 178.691406 127.265625 178.757812 C 125.316406 179.054688 124.238281 178.589844 123.359375 176.84375 C 122.429688 175.003906 122.339844 173.121094 123.652344 171.390625 C 125.136719 169.433594 127.144531 168.691406 129.535156 169.191406 C 131.539062 169.609375 133.101562 171.414062 133.429688 173.414062 C 133.539062 174.082031 133.320312 174.5 132.792969 174.882812 C 131.527344 175.800781 130.414062 176.871094 129.878906 178.390625 C 129.566406 179.277344 128.976562 178.457031 128.664062 178.625 Z M 125.804688 173.210938 C 126.574219 173.191406 127.109375 172.863281 127.132812 172.035156 C 127.152344 171.203125 126.636719 170.839844 125.859375 170.820312 C 125.054688 170.800781 124.574219 171.21875 124.546875 172.011719 C 124.519531 172.824219 124.976562 173.234375 125.804688 173.210938 Z M 125.804688 173.210938 " fill-opacity="1" fill-rule="nonzero"/><path fill="#ffffff" d="M 120.097656 197.289062 C 120.136719 195.136719 121.277344 193.65625 123.082031 192.699219 C 124.9375 191.710938 126.84375 191.898438 128.546875 193.078125 C 130.019531 194.097656 130.015625 195.917969 130.566406 197.425781 C 130.675781 197.730469 130.359375 197.796875 130.132812 197.867188 C 127.777344 198.601562 125.871094 199.847656 124.988281 202.296875 C 124.808594 202.792969 124.449219 202.699219 124.039062 202.574219 C 121.667969 201.847656 120.082031 199.734375 120.097656 197.289062 Z M 123.332031 196.359375 C 124 196.328125 124.484375 195.917969 124.503906 195.136719 C 124.523438 194.289062 123.960938 193.972656 123.183594 194.011719 C 122.429688 194.050781 121.886719 194.378906 121.890625 195.21875 C 121.890625 196.074219 122.441406 196.351562 123.332031 196.359375 Z M 123.332031 196.359375 " fill-opacity="1" fill-rule="nonzero"/><path fill="#ffffff" d="M 152.214844 190.847656 C 155.546875 190.863281 157.945312 193.203125 157.914062 196.019531 C 157.882812 199.058594 155.535156 201.367188 152.59375 201.269531 C 152.023438 201.253906 151.566406 201.253906 151.511719 200.480469 C 151.359375 198.304688 150.191406 196.683594 148.441406 195.515625 C 147.628906 194.972656 147.644531 194.496094 148.007812 193.738281 C 148.945312 191.789062 150.546875 190.953125 152.214844 190.847656 Z M 150.40625 195.140625 C 151.109375 194.929688 151.769531 194.605469 151.734375 193.726562 C 151.707031 192.976562 151.125 192.636719 150.453125 192.664062 C 149.675781 192.699219 149.0625 193.046875 149.140625 193.996094 C 149.203125 194.75 149.691406 195.050781 150.40625 195.140625 Z M 150.40625 195.140625 " fill-opacity="1" fill-rule="nonzero"/><path fill="#ffffff" d="M 113.804688 170.871094 C 113.832031 168.636719 115.277344 166.695312 117.433594 166 C 119.664062 165.28125 122.335938 166.050781 123.574219 167.742188 C 123.902344 168.1875 124.023438 168.472656 123.480469 168.914062 C 121.28125 170.703125 120.464844 173.078125 120.816406 175.851562 C 120.894531 176.464844 120.886719 176.640625 120.214844 176.429688 C 119.578125 176.226562 118.898438 176.152344 118.230469 176.050781 C 115.515625 175.644531 113.773438 173.609375 113.804688 170.871094 Z M 118.21875 168.660156 C 118.128906 167.816406 117.601562 167.394531 116.871094 167.441406 C 116.179688 167.488281 115.519531 167.898438 115.621094 168.710938 C 115.707031 169.410156 116.210938 169.964844 116.988281 169.921875 C 117.722656 169.878906 118.214844 169.445312 118.21875 168.660156 Z M 118.21875 168.660156 " fill-opacity="1" fill-rule="nonzero"/><path fill="#ffffff" d="M 136.695312 185.785156 C 135.605469 186.140625 135.140625 185.714844 134.996094 184.613281 C 134.769531 182.855469 133.816406 181.457031 132.414062 180.421875 C 131.652344 179.863281 131.664062 179.332031 132.035156 178.582031 C 133.109375 176.382812 135.871094 175.179688 138.296875 175.894531 C 140.773438 176.625 142.421875 179.042969 142.132812 181.492188 C 142.054688 182.152344 141.835938 182.667969 141.195312 182.996094 C 140.375 183.410156 139.601562 183.953125 139.078125 184.710938 C 138.476562 185.589844 137.785156 186.101562 136.695312 185.785156 Z M 135.886719 178.601562 C 135.789062 177.832031 135.230469 177.5 134.503906 177.523438 C 133.648438 177.554688 133.214844 178.152344 133.238281 178.953125 C 133.261719 179.703125 133.890625 180.042969 134.53125 180.027344 C 135.328125 180.007812 135.835938 179.519531 135.886719 178.601562 Z M 135.886719 178.601562 " fill-opacity="1" fill-rule="nonzero"/><path fill="#ffffff" d="M 121.382812 211.648438 C 118.828125 211.683594 116.621094 210.042969 115.960938 207.789062 C 115.304688 205.5625 116.246094 203.214844 118.277344 201.921875 C 118.886719 201.535156 119.359375 201.441406 119.882812 202.074219 C 120.859375 203.253906 122.09375 204.078125 123.609375 204.386719 C 124.234375 204.515625 124.539062 204.777344 124.511719 205.433594 C 124.484375 206.070312 124.726562 206.65625 124.976562 207.230469 C 125.71875 208.960938 125.394531 209.921875 123.75 210.902344 C 122.945312 211.378906 122.046875 211.523438 121.382812 211.648438 Z M 120.25 203.875 C 120.148438 203.210938 119.785156 202.691406 119.042969 202.742188 C 118.269531 202.796875 117.609375 203.214844 117.632812 204.085938 C 117.652344 204.769531 118.132812 205.28125 118.859375 205.261719 C 119.664062 205.238281 120.214844 204.808594 120.25 203.875 Z M 120.25 203.875 " fill-opacity="1" fill-rule="nonzero"/><g clip-path="url(#d320ce2368)"><path fill="#ffffff" d="M 164.0625 76.019531 C 161.84375 76.019531 159.621094 75.964844 157.402344 76.042969 C 156.386719 76.078125 155.960938 75.785156 156.152344 74.757812 C 156.175781 74.617188 156.15625 74.46875 156.160156 74.324219 C 156.195312 72.65625 156.195312 72.652344 157.8125 72.652344 C 162.0625 72.652344 166.308594 72.691406 170.554688 72.625 C 171.621094 72.609375 172.089844 72.882812 171.984375 73.972656 C 171.953125 74.304688 171.972656 74.652344 172.027344 74.980469 C 172.167969 75.8125 171.832031 76.058594 171.011719 76.042969 C 168.695312 75.996094 166.378906 76.027344 164.0625 76.027344 C 164.0625 76.023438 164.0625 76.019531 164.0625 76.019531 Z M 164.0625 76.019531 " fill-opacity="1" fill-rule="nonzero"/></g><path fill="#ffffff" d="M 141.613281 187.625 C 140.191406 186.609375 140.15625 186.304688 141.484375 185.199219 C 143.082031 183.871094 144.894531 183.46875 146.886719 184.144531 C 148.726562 184.765625 149.847656 186.054688 150.234375 187.960938 C 150.378906 188.648438 150.386719 189.257812 149.5625 189.625 C 147.84375 190.382812 146.714844 191.753906 146.011719 193.449219 C 145.707031 194.183594 145.269531 194.332031 144.5625 194.246094 C 143.707031 194.144531 143.941406 193.507812 143.953125 193.039062 C 144.003906 191.046875 143.25 189.390625 141.941406 187.945312 C 142.121094 188.003906 142.300781 188.066406 142.484375 188.117188 C 143.058594 188.285156 143.5625 188.105469 143.878906 187.652344 C 144.164062 187.242188 144.152344 186.71875 143.890625 186.28125 C 143.597656 185.792969 143.074219 185.859375 142.597656 185.863281 C 141.246094 185.878906 141.609375 186.855469 141.613281 187.625 Z M 141.613281 187.625 " fill-opacity="1" fill-rule="nonzero"/><path fill="#ffffff" d="M 144.035156 180.824219 C 144.125 179.378906 143.554688 178.128906 142.753906 176.949219 C 142.578125 176.691406 142.042969 176.453125 142.683594 176.058594 C 143.46875 175.578125 143.296875 174.84375 142.773438 174.375 C 142.105469 173.777344 141.289062 173.761719 140.609375 174.5 C 140.453125 174.667969 140.503906 175.191406 140.0625 174.859375 C 139.773438 174.644531 139.875 174.339844 140.054688 174.09375 C 140.960938 172.832031 142.269531 172.238281 143.746094 172.070312 C 146.863281 171.714844 149.816406 174.816406 149.425781 177.921875 C 149.359375 178.441406 149.132812 178.714844 148.679688 178.847656 C 147.234375 179.269531 146.144531 180.191406 145.167969 181.285156 C 144.886719 181.601562 144.585938 182.152344 144.183594 181.996094 C 143.71875 181.820312 144.121094 181.242188 144.035156 180.824219 Z M 144.035156 180.824219 " fill-opacity="1" fill-rule="nonzero"/><path fill="#ffffff" d="M 155.921875 185.933594 C 155.796875 186.457031 156.105469 187.285156 155.570312 187.625 C 154.695312 188.1875 153.671875 188.527344 152.6875 188.902344 C 152.234375 189.074219 152.265625 188.625 152.261719 188.382812 C 152.214844 186.191406 150.714844 184.703125 149.648438 183.015625 C 149.179688 182.269531 148.453125 181.894531 147.53125 182.375 C 147.347656 182.46875 147.089844 182.753906 146.929688 182.457031 C 146.808594 182.238281 147.105469 182.050781 147.273438 181.882812 C 148.609375 180.542969 150.8125 180.132812 152.636719 180.882812 C 154.746094 181.75 155.933594 183.542969 155.921875 185.933594 Z M 155.921875 185.933594 " fill-opacity="1" fill-rule="nonzero"/><path fill="#ffffff" d="M 159.9375 196.328125 C 159.800781 193.535156 158.621094 191.46875 156.261719 190.089844 C 156.03125 189.957031 155.644531 189.902344 155.726562 189.535156 C 155.742188 189.46875 156.253906 189.46875 156.519531 189.515625 C 160.609375 190.226562 162.488281 194.578125 160.210938 198.074219 C 160.085938 198.265625 159.785156 198.582031 159.757812 198.5625 C 159.460938 198.359375 159.683594 198.074219 159.714844 197.824219 C 159.78125 197.300781 159.871094 196.78125 159.9375 196.328125 Z M 159.9375 196.328125 " fill-opacity="1" fill-rule="nonzero"/><g clip-path="url(#05f215062e)"><g clip-path="url(#c7dfdddeb0)"><g clip-path="url(#8a5798c726)"><path fill="#ffffff" d="M 103.269531 55.875 C 104.203125 55.875 105.152344 55.773438 106.0625 55.582031 C 108.066406 55.082031 110.074219 54.679688 112.148438 54.554688 C 113.808594 54.476562 115.636719 54.445312 117.136719 55.3125 C 118.46875 56.070312 119.363281 57.261719 120.261719 58.449219 C 121.265625 59.757812 122.480469 61.234375 124.207031 61.5 C 125.054688 61.636719 125.917969 61.578125 126.757812 61.648438 C 127.246094 61.691406 127.800781 61.796875 128.261719 61.585938 C 128.632812 61.449219 128.929688 61.226562 129.261719 61.03125 C 131.738281 59.582031 135.265625 58.023438 137.925781 59.828125 C 137.957031 59.824219 137.957031 59.824219 137.992188 59.855469 C 138.027344 59.882812 138.058594 59.878906 138.09375 59.90625 C 139.441406 60.792969 140.726562 61.75 142.261719 62.292969 C 142.429688 62.371094 142.433594 62.691406 142.210938 62.714844 C 140.683594 62.84375 139.039062 63.371094 137.515625 62.921875 C 136.488281 62.613281 135.589844 62 134.5625 61.722656 C 133.507812 61.449219 132.40625 61.628906 131.34375 61.933594 C 131.0625 61.996094 129.039062 62.882812 128.859375 62.710938 C 129.671875 63.394531 130.101562 64.441406 130.796875 65.265625 C 130.910156 65.414062 130.742188 65.65625 130.574219 65.578125 C 129.765625 65.214844 129 64.652344 128.085938 65.101562 C 127.351562 65.4375 126.695312 65.921875 126.003906 66.347656 C 124.949219 67.003906 123.792969 67.609375 122.542969 67.613281 C 121.066406 67.605469 119.59375 67.054688 118.171875 66.628906 C 116.546875 66.125 114.894531 65.691406 113.183594 65.902344 C 112.960938 65.925781 112.863281 65.617188 113.082031 65.527344 C 114.09375 65.101562 115.199219 65.242188 116.269531 65.03125 C 116.773438 64.945312 117.523438 64.738281 117.519531 64.097656 C 117.535156 63.328125 116.738281 62.160156 116.320312 61.5625 C 114.472656 58.933594 111.550781 56.480469 108.113281 57.066406 C 107.578125 57.15625 107.042969 57.246094 106.472656 57.335938 C 104.894531 57.566406 102.742188 57.859375 101.355469 56.882812 C 100.90625 56.574219 100.761719 56.109375 100.464844 55.722656 C 100.839844 55.652344 101.402344 55.816406 101.824219 55.835938 C 102.304688 55.851562 102.789062 55.863281 103.269531 55.875 Z M 103.269531 55.875 " fill-opacity="1" fill-rule="nonzero"/></g></g></g><g fill="#ffffff" fill-opacity="1"><g transform="translate(80.819061, 296.66292)"><g><path d="M 29.296875 0 L 17.703125 0 L 17.703125 -0.796875 C 19.304688 -0.898438 20.316406 -1.1875 20.734375 -1.65625 C 21.160156 -2.132812 21.375 -3.253906 21.375 -5.015625 L 21.375 -13.140625 L 8.71875 -13.140625 L 8.71875 -4.546875 C 8.71875 -3.078125 8.941406 -2.117188 9.390625 -1.671875 C 9.835938 -1.222656 10.835938 -0.929688 12.390625 -0.796875 L 12.390625 0 L 0.796875 0 L 0.796875 -0.796875 C 2.410156 -0.898438 3.425781 -1.1875 3.84375 -1.65625 C 4.257812 -2.132812 4.46875 -3.253906 4.46875 -5.015625 L 4.46875 -23.078125 C 4.46875 -24.578125 4.257812 -25.539062 3.84375 -25.96875 C 3.425781 -26.40625 2.410156 -26.691406 0.796875 -26.828125 L 0.796875 -27.625 L 12.390625 -27.625 L 12.390625 -26.828125 C 10.773438 -26.691406 9.757812 -26.40625 9.34375 -25.96875 C 8.925781 -25.539062 8.71875 -24.578125 8.71875 -23.078125 L 8.71875 -14.984375 L 21.375 -14.984375 L 21.375 -23.078125 C 21.375 -24.578125 21.160156 -25.539062 20.734375 -25.96875 C 20.316406 -26.40625 19.304688 -26.691406 17.703125 -26.828125 L 17.703125 -27.625 L 29.296875 -27.625 L 29.296875 -26.828125 C 27.679688 -26.691406 26.664062 -26.40625 26.25 -25.96875 C 25.832031 -25.539062 25.625 -24.578125 25.625 -23.078125 L 25.625 -4.546875 C 25.625 -3.078125 25.84375 -2.117188 26.28125 -1.671875 C 26.726562 -1.222656 27.734375 -0.929688 29.296875 -0.796875 Z M 29.296875 0 "/></g></g></g><g fill="#ffffff" fill-opacity="1"><g transform="translate(110.939977, 296.66292)"><g><path d="M 29.46875 0 L 18.828125 0 L 18.828125 -0.796875 C 19.960938 -0.796875 20.738281 -0.921875 21.15625 -1.171875 C 21.550781 -1.359375 21.75 -1.691406 21.75 -2.171875 C 21.75 -2.835938 21.484375 -3.785156 20.953125 -5.015625 L 19.234375 -9.015625 L 8.3125 -9.015625 L 6.390625 -4.125 C 6.160156 -3.539062 6.046875 -3 6.046875 -2.5 C 6.046875 -1.363281 6.992188 -0.796875 8.890625 -0.796875 L 8.890625 0 L 0.625 0 L 0.625 -0.796875 C 1.625 -0.847656 2.398438 -1.242188 2.953125 -1.984375 C 3.515625 -2.722656 4.460938 -4.609375 5.796875 -7.640625 L 14.484375 -28.125 L 15.3125 -28.125 L 25.703125 -4.421875 C 26.429688 -2.867188 27.003906 -1.890625 27.421875 -1.484375 C 27.835938 -1.078125 28.519531 -0.847656 29.46875 -0.796875 Z M 18.65625 -10.71875 L 13.8125 -22.203125 L 9.015625 -10.71875 Z M 18.65625 -10.71875 "/></g></g></g><g fill="#ffffff" fill-opacity="1"><g transform="translate(135.635993, 296.66292)"><g><path d="M 29.09375 -26.828125 C 28.09375 -26.773438 27.375 -26.523438 26.9375 -26.078125 C 26.507812 -25.640625 25.945312 -24.597656 25.25 -22.953125 L 15.984375 0.453125 L 15.359375 0.453125 L 5.09375 -22.453125 C 4.195312 -24.316406 3.492188 -25.503906 2.984375 -26.015625 C 2.472656 -26.535156 1.703125 -26.804688 0.671875 -26.828125 L 0.671875 -27.625 L 11.765625 -27.625 L 11.765625 -26.828125 C 10.984375 -26.773438 10.582031 -26.75 10.5625 -26.75 C 9.28125 -26.664062 8.640625 -26.234375 8.640625 -25.453125 C 8.640625 -24.898438 9.207031 -23.359375 10.34375 -20.828125 L 16.65625 -6.71875 L 22.78125 -22.03125 C 23.3125 -23.363281 23.578125 -24.378906 23.578125 -25.078125 C 23.578125 -25.660156 23.351562 -26.082031 22.90625 -26.34375 C 22.46875 -26.613281 21.675781 -26.773438 20.53125 -26.828125 L 20.53125 -27.625 L 29.09375 -27.625 Z M 29.09375 -26.828125 "/></g></g></g><g fill="#ffffff" fill-opacity="1"><g transform="translate(165.756909, 296.66292)"><g><path d="M 24.75 -7.515625 C 24.75 -5.421875 23.96875 -3.679688 22.40625 -2.296875 C 20.738281 -0.765625 18.15625 0 14.65625 0 L 0.703125 0 L 0.703125 -0.796875 C 2.429688 -0.847656 3.53125 -1.097656 4 -1.546875 C 4.476562 -1.992188 4.71875 -2.992188 4.71875 -4.546875 L 4.71875 -23.078125 C 4.71875 -24.609375 4.488281 -25.585938 4.03125 -26.015625 C 3.570312 -26.453125 2.460938 -26.722656 0.703125 -26.828125 L 0.703125 -27.625 L 12.390625 -27.625 C 19.679688 -27.625 23.328125 -25.257812 23.328125 -20.53125 C 23.328125 -18.726562 22.769531 -17.335938 21.65625 -16.359375 C 20.769531 -15.578125 19.421875 -14.96875 17.609375 -14.53125 C 18.972656 -14.1875 20.007812 -13.851562 20.71875 -13.53125 C 21.425781 -13.21875 22.085938 -12.785156 22.703125 -12.234375 C 24.066406 -10.953125 24.75 -9.378906 24.75 -7.515625 Z M 19.953125 -7.46875 C 19.953125 -10.03125 18.78125 -11.796875 16.4375 -12.765625 C 15.101562 -13.328125 12.613281 -13.609375 8.96875 -13.609375 L 8.96875 -3.25 C 8.96875 -2.582031 9.148438 -2.128906 9.515625 -1.890625 C 9.878906 -1.660156 10.578125 -1.546875 11.609375 -1.546875 C 14.191406 -1.546875 16.125 -1.90625 17.40625 -2.625 C 19.101562 -3.601562 19.953125 -5.21875 19.953125 -7.46875 Z M 19.078125 -20.359375 C 19.078125 -22.222656 18.445312 -23.640625 17.1875 -24.609375 C 15.9375 -25.585938 14.117188 -26.078125 11.734375 -26.078125 L 9.890625 -26.078125 C 9.273438 -26.078125 8.96875 -25.660156 8.96875 -24.828125 L 8.96875 -15.28125 L 12.9375 -15.28125 C 14.882812 -15.28125 16.394531 -15.71875 17.46875 -16.59375 C 18.539062 -17.46875 19.078125 -18.722656 19.078125 -20.359375 Z M 19.078125 -20.359375 "/></g></g></g><g fill="#ffffff" fill-opacity="1"><g transform="translate(193.583296, 296.66292)"><g><path d="M 24.953125 -7.265625 L 22.953125 0 L 0.5 0 L 0.5 -0.796875 C 2.03125 -0.898438 3.015625 -1.179688 3.453125 -1.640625 C 3.898438 -2.109375 4.125 -3.078125 4.125 -4.546875 L 4.125 -23.078125 C 4.125 -24.554688 3.910156 -25.515625 3.484375 -25.953125 C 3.054688 -26.398438 2.0625 -26.691406 0.5 -26.828125 L 0.5 -27.625 L 12.265625 -27.625 L 12.265625 -26.828125 C 10.628906 -26.722656 9.570312 -26.441406 9.09375 -25.984375 C 8.625 -25.523438 8.390625 -24.554688 8.390625 -23.078125 L 8.390625 -3.34375 C 8.390625 -2.613281 8.601562 -2.144531 9.03125 -1.9375 C 9.46875 -1.726562 10.453125 -1.625 11.984375 -1.625 L 14.78125 -1.625 C 18.25 -1.625 20.695312 -2.472656 22.125 -4.171875 C 22.644531 -4.785156 23.238281 -5.816406 23.90625 -7.265625 Z M 24.953125 -7.265625 "/></g></g></g><g fill="#ffffff" fill-opacity="1"><g transform="translate(219.07343, 296.66292)"><g><path d="M 13.140625 0 L 0.75 0 L 0.75 -0.796875 C 2.5 -0.847656 3.609375 -1.097656 4.078125 -1.546875 C 4.554688 -1.992188 4.796875 -2.992188 4.796875 -4.546875 L 4.796875 -23.078125 C 4.796875 -24.609375 4.566406 -25.585938 4.109375 -26.015625 C 3.648438 -26.453125 2.53125 -26.722656 0.75 -26.828125 L 0.75 -27.625 L 13.140625 -27.625 L 13.140625 -26.828125 C 11.390625 -26.742188 10.269531 -26.476562 9.78125 -26.03125 C 9.300781 -25.59375 9.0625 -24.609375 9.0625 -23.078125 L 9.0625 -4.546875 C 9.0625 -3.015625 9.3125 -2.019531 9.8125 -1.5625 C 10.3125 -1.101562 11.421875 -0.847656 13.140625 -0.796875 Z M 13.140625 0 "/></g></g></g><g fill="#ffffff" fill-opacity="1"><g transform="translate(232.965767, 296.66292)"><g><path d="M 29.5 -26.828125 C 28.164062 -26.691406 27.25 -26.441406 26.75 -26.078125 C 25.945312 -25.523438 25.546875 -24 25.546875 -21.5 L 25.546875 0.453125 L 24.828125 0.453125 L 6.390625 -22.5 L 6.390625 -6.140625 C 6.390625 -4.023438 6.640625 -2.625 7.140625 -1.9375 C 7.640625 -1.257812 8.695312 -0.878906 10.3125 -0.796875 L 10.3125 0 L 0.5 0 L 0.5 -0.796875 C 2.226562 -0.898438 3.332031 -1.28125 3.8125 -1.9375 C 4.300781 -2.59375 4.546875 -3.992188 4.546875 -6.140625 L 4.546875 -24.546875 C 3.710938 -25.515625 3.050781 -26.132812 2.5625 -26.40625 C 2.082031 -26.6875 1.394531 -26.828125 0.5 -26.828125 L 0.5 -27.625 L 7.640625 -27.625 L 23.703125 -7.421875 L 23.703125 -21.5 C 23.703125 -24.050781 23.300781 -25.609375 22.5 -26.171875 C 21.914062 -26.503906 20.984375 -26.722656 19.703125 -26.828125 L 19.703125 -27.625 L 29.5 -27.625 Z M 29.5 -26.828125 "/></g></g></g><g fill="#ffffff" fill-opacity="1"><g transform="translate(263.086683, 296.66292)"><g><path d="M 30.171875 0 L 17.4375 0 L 17.4375 -0.796875 C 17.78125 -0.816406 18.171875 -0.828125 18.609375 -0.828125 C 19.773438 -0.890625 20.359375 -1.195312 20.359375 -1.75 C 20.359375 -2.25 19.847656 -3.164062 18.828125 -4.5 C 17.816406 -5.84375 16.519531 -7.289062 14.9375 -8.84375 L 10.515625 -13.234375 L 9.4375 -12.359375 L 9.4375 -4.546875 C 9.4375 -3.015625 9.65625 -2.03125 10.09375 -1.59375 C 10.539062 -1.164062 11.570312 -0.898438 13.1875 -0.796875 L 13.1875 0 L 1.421875 0 L 1.421875 -0.796875 C 3.054688 -0.898438 4.085938 -1.195312 4.515625 -1.6875 C 4.953125 -2.175781 5.171875 -3.285156 5.171875 -5.015625 L 5.171875 -23.078125 C 5.171875 -24.554688 4.945312 -25.523438 4.5 -25.984375 C 4.0625 -26.441406 3.035156 -26.722656 1.421875 -26.828125 L 1.421875 -27.625 L 13.265625 -27.625 L 13.265625 -26.828125 C 11.566406 -26.722656 10.503906 -26.453125 10.078125 -26.015625 C 9.648438 -25.585938 9.4375 -24.609375 9.4375 -23.078125 L 9.4375 -14.53125 L 16.8125 -21.25 C 18.988281 -23.25 20.078125 -24.679688 20.078125 -25.546875 C 20.078125 -25.960938 19.941406 -26.257812 19.671875 -26.4375 C 19.410156 -26.613281 18.960938 -26.734375 18.328125 -26.796875 C 17.929688 -26.796875 17.566406 -26.804688 17.234375 -26.828125 L 17.234375 -27.625 L 28.171875 -27.625 L 28.171875 -26.828125 C 26.753906 -26.722656 25.695312 -26.492188 25 -26.140625 C 24.300781 -25.796875 23.242188 -24.941406 21.828125 -23.578125 L 13.890625 -15.734375 L 23.625 -5.296875 C 25.507812 -3.265625 26.800781 -2.007812 27.5 -1.53125 C 28.195312 -1.0625 29.085938 -0.816406 30.171875 -0.796875 Z M 30.171875 0 "/></g></g></g><g fill="#ffffff" fill-opacity="1"><g transform="translate(293.209672, 296.66292)"><g/></g></g><g fill="#ffffff" fill-opacity="1"><g transform="translate(121.738174, 326.13549)"><g><path d="M 20.078125 -18.53125 C 19.390625 -18.488281 18.894531 -18.3125 18.59375 -18 C 18.300781 -17.695312 17.914062 -16.976562 17.4375 -15.84375 L 11.03125 0.3125 L 10.609375 0.3125 L 3.515625 -15.5 C 2.898438 -16.789062 2.414062 -17.613281 2.0625 -17.96875 C 1.707031 -18.320312 1.175781 -18.507812 0.46875 -18.53125 L 0.46875 -19.078125 L 8.125 -19.078125 L 8.125 -18.53125 C 7.582031 -18.488281 7.304688 -18.46875 7.296875 -18.46875 C 6.410156 -18.40625 5.96875 -18.109375 5.96875 -17.578125 C 5.96875 -17.191406 6.359375 -16.125 7.140625 -14.375 L 11.5 -4.640625 L 15.734375 -15.21875 C 16.097656 -16.132812 16.28125 -16.832031 16.28125 -17.3125 C 16.28125 -17.71875 16.125 -18.007812 15.8125 -18.1875 C 15.507812 -18.375 14.960938 -18.488281 14.171875 -18.53125 L 14.171875 -19.078125 L 20.078125 -19.078125 Z M 20.078125 -18.53125 "/></g></g></g><g fill="#ffffff" fill-opacity="1"><g transform="translate(142.539168, 326.13549)"><g><path d="M 9.078125 0 L 0.515625 0 L 0.515625 -0.546875 C 1.722656 -0.585938 2.488281 -0.757812 2.8125 -1.0625 C 3.144531 -1.375 3.3125 -2.066406 3.3125 -3.140625 L 3.3125 -15.9375 C 3.3125 -16.988281 3.148438 -17.660156 2.828125 -17.953125 C 2.515625 -18.253906 1.742188 -18.445312 0.515625 -18.53125 L 0.515625 -19.078125 L 9.078125 -19.078125 L 9.078125 -18.53125 C 7.867188 -18.46875 7.09375 -18.28125 6.75 -17.96875 C 6.414062 -17.664062 6.25 -16.988281 6.25 -15.9375 L 6.25 -3.140625 C 6.25 -2.085938 6.421875 -1.398438 6.765625 -1.078125 C 7.117188 -0.765625 7.890625 -0.585938 9.078125 -0.546875 Z M 9.078125 0 "/></g></g></g><g fill="#ffffff" fill-opacity="1"><g transform="translate(152.132981, 326.13549)"><g><path d="M 20.375 -18.53125 C 19.445312 -18.425781 18.8125 -18.25 18.46875 -18 C 17.914062 -17.625 17.640625 -16.570312 17.640625 -14.84375 L 17.640625 0.3125 L 17.140625 0.3125 L 4.40625 -15.53125 L 4.40625 -4.234375 C 4.40625 -2.773438 4.578125 -1.8125 4.921875 -1.34375 C 5.273438 -0.875 6.003906 -0.609375 7.109375 -0.546875 L 7.109375 0 L 0.34375 0 L 0.34375 -0.546875 C 1.53125 -0.617188 2.289062 -0.878906 2.625 -1.328125 C 2.96875 -1.785156 3.140625 -2.753906 3.140625 -4.234375 L 3.140625 -16.9375 C 2.566406 -17.613281 2.109375 -18.046875 1.765625 -18.234375 C 1.429688 -18.429688 0.957031 -18.53125 0.34375 -18.53125 L 0.34375 -19.078125 L 5.265625 -19.078125 L 16.359375 -5.125 L 16.359375 -14.84375 C 16.359375 -16.601562 16.082031 -17.675781 15.53125 -18.0625 C 15.125 -18.289062 14.476562 -18.445312 13.59375 -18.53125 L 13.59375 -19.078125 L 20.375 -19.078125 Z M 20.375 -18.53125 "/></g></g></g><g fill="#ffffff" fill-opacity="1"><g transform="translate(172.357748, 326.13549)"><g><path d="M 20.421875 -9.6875 C 19.578125 -9.601562 19.03125 -9.421875 18.78125 -9.140625 C 18.53125 -8.867188 18.40625 -8.3125 18.40625 -7.46875 L 18.40625 -1.609375 C 17.832031 -1.109375 16.789062 -0.644531 15.28125 -0.21875 C 13.769531 0.195312 12.398438 0.40625 11.171875 0.40625 C 7.929688 0.40625 5.3125 -0.617188 3.3125 -2.671875 C 1.71875 -4.347656 0.921875 -6.578125 0.921875 -9.359375 C 0.921875 -12.296875 1.847656 -14.71875 3.703125 -16.625 C 5.554688 -18.53125 7.921875 -19.484375 10.796875 -19.484375 C 12.085938 -19.484375 13.394531 -19.257812 14.71875 -18.8125 C 15.21875 -18.625 15.640625 -18.53125 15.984375 -18.53125 C 16.296875 -18.53125 16.566406 -18.617188 16.796875 -18.796875 C 17.023438 -18.984375 17.1875 -19.210938 17.28125 -19.484375 L 17.921875 -19.484375 L 18.15625 -13.390625 L 17.484375 -13.390625 C 16.847656 -14.953125 16.164062 -16.066406 15.4375 -16.734375 C 14.289062 -17.796875 12.910156 -18.328125 11.296875 -18.328125 C 9.253906 -18.328125 7.582031 -17.597656 6.28125 -16.140625 C 5.644531 -15.421875 5.140625 -14.453125 4.765625 -13.234375 C 4.390625 -12.015625 4.203125 -10.734375 4.203125 -9.390625 C 4.203125 -6.722656 4.878906 -4.613281 6.234375 -3.0625 C 7.585938 -1.519531 9.4375 -0.75 11.78125 -0.75 C 12.820312 -0.75 13.71875 -0.914062 14.46875 -1.25 C 15.226562 -1.582031 15.609375 -1.984375 15.609375 -2.453125 L 15.609375 -7.109375 C 15.609375 -8.304688 15.410156 -9.03125 15.015625 -9.28125 C 14.703125 -9.46875 14.054688 -9.601562 13.078125 -9.6875 L 13.078125 -10.203125 L 20.421875 -10.203125 Z M 20.421875 -9.6875 "/></g></g></g><g fill="#ffffff" fill-opacity="1"><g transform="translate(192.438454, 326.13549)"><g><path d="M 20.34375 0 L 13 0 L 13 -0.546875 C 13.78125 -0.546875 14.316406 -0.632812 14.609375 -0.8125 C 14.878906 -0.945312 15.015625 -1.175781 15.015625 -1.5 C 15.015625 -1.957031 14.832031 -2.609375 14.46875 -3.453125 L 13.28125 -6.21875 L 5.734375 -6.21875 L 4.40625 -2.859375 C 4.25 -2.453125 4.171875 -2.078125 4.171875 -1.734375 C 4.171875 -0.941406 4.828125 -0.546875 6.140625 -0.546875 L 6.140625 0 L 0.4375 0 L 0.4375 -0.546875 C 1.125 -0.585938 1.660156 -0.859375 2.046875 -1.359375 C 2.429688 -1.867188 3.082031 -3.171875 4 -5.265625 L 10 -19.421875 L 10.578125 -19.421875 L 17.75 -3.046875 C 18.25 -1.972656 18.640625 -1.296875 18.921875 -1.015625 C 19.210938 -0.742188 19.6875 -0.585938 20.34375 -0.546875 Z M 12.875 -7.40625 L 9.53125 -15.328125 L 6.21875 -7.40625 Z M 12.3125 -24.953125 C 12.882812 -24.390625 13.171875 -23.710938 13.171875 -22.921875 C 13.171875 -22.140625 12.882812 -21.46875 12.3125 -20.90625 C 11.75 -20.351562 11.070312 -20.078125 10.28125 -20.078125 C 9.476562 -20.078125 8.800781 -20.351562 8.25 -20.90625 C 7.707031 -21.46875 7.4375 -22.15625 7.4375 -22.96875 C 7.4375 -23.75 7.710938 -24.414062 8.265625 -24.96875 C 8.828125 -25.53125 9.5 -25.8125 10.28125 -25.8125 C 11.070312 -25.8125 11.75 -25.523438 12.3125 -24.953125 Z M 11.625 -21.609375 C 12 -21.972656 12.1875 -22.414062 12.1875 -22.9375 C 12.1875 -23.457031 12 -23.90625 11.625 -24.28125 C 11.25 -24.65625 10.8125 -24.84375 10.3125 -24.84375 C 9.789062 -24.84375 9.34375 -24.65625 8.96875 -24.28125 C 8.59375 -23.914062 8.40625 -23.472656 8.40625 -22.953125 C 8.40625 -22.441406 8.585938 -22 8.953125 -21.625 C 9.328125 -21.25 9.757812 -21.0625 10.25 -21.0625 C 10.789062 -21.0625 11.25 -21.242188 11.625 -21.609375 Z M 11.625 -21.609375 "/></g></g></g><g fill="#ffffff" fill-opacity="1"><g transform="translate(213.239448, 326.13549)"><g><path d="M 18.984375 0 L 14.34375 0 L 7.484375 -8.875 L 5.875 -8.8125 L 5.875 -3.140625 C 5.875 -2.097656 6.023438 -1.421875 6.328125 -1.109375 C 6.640625 -0.804688 7.351562 -0.617188 8.46875 -0.546875 L 8.46875 0 L 0.484375 0 L 0.484375 -0.546875 C 1.566406 -0.617188 2.242188 -0.820312 2.515625 -1.15625 C 2.796875 -1.5 2.9375 -2.265625 2.9375 -3.453125 L 2.9375 -15.9375 C 2.9375 -16.945312 2.796875 -17.601562 2.515625 -17.90625 C 2.242188 -18.207031 1.566406 -18.414062 0.484375 -18.53125 L 0.484375 -19.078125 L 8.4375 -19.078125 C 9.78125 -19.078125 11.007812 -18.898438 12.125 -18.546875 C 13.238281 -18.203125 14.078125 -17.734375 14.640625 -17.140625 C 15.390625 -16.296875 15.765625 -15.25 15.765625 -14 C 15.765625 -12.582031 15.273438 -11.476562 14.296875 -10.6875 C 13.460938 -10.019531 12.210938 -9.519531 10.546875 -9.1875 L 16.484375 -1.90625 C 16.878906 -1.425781 17.253906 -1.085938 17.609375 -0.890625 C 17.972656 -0.703125 18.429688 -0.585938 18.984375 -0.546875 Z M 12.625 -14.0625 C 12.625 -15.40625 12.195312 -16.394531 11.34375 -17.03125 C 10.488281 -17.675781 9.15625 -18 7.34375 -18 C 6.769531 -18 6.378906 -17.925781 6.171875 -17.78125 C 5.972656 -17.644531 5.875 -17.375 5.875 -16.96875 L 5.875 -9.875 C 7.28125 -9.914062 8.316406 -10 8.984375 -10.125 C 9.660156 -10.25 10.328125 -10.492188 10.984375 -10.859375 C 12.078125 -11.441406 12.625 -12.507812 12.625 -14.0625 Z M 12.625 -14.0625 "/></g></g></g><g fill="#ffffff" fill-opacity="1"><g transform="translate(232.45588, 326.13549)"><g><path d="M 19.734375 -9.625 C 19.734375 -6.707031 18.753906 -4.351562 16.796875 -2.5625 C 15.910156 -1.757812 14.75 -1.128906 13.3125 -0.671875 C 11.875 -0.222656 10.316406 0 8.640625 0 L 0.46875 0 L 0.46875 -0.546875 C 1.5625 -0.617188 2.253906 -0.804688 2.546875 -1.109375 C 2.847656 -1.421875 3 -2.097656 3 -3.140625 L 3 -15.9375 C 3 -16.988281 2.859375 -17.65625 2.578125 -17.9375 C 2.296875 -18.226562 1.59375 -18.425781 0.46875 -18.53125 L 0.46875 -19.078125 L 8.234375 -19.078125 C 12.285156 -19.078125 15.300781 -18.066406 17.28125 -16.046875 C 18.914062 -14.410156 19.734375 -12.269531 19.734375 -9.625 Z M 16.59375 -9.421875 C 16.59375 -12.609375 15.453125 -14.988281 13.171875 -16.5625 C 11.804688 -17.519531 9.894531 -18 7.4375 -18 C 6.84375 -18 6.441406 -17.921875 6.234375 -17.765625 C 6.035156 -17.617188 5.9375 -17.328125 5.9375 -16.890625 L 5.9375 -2.25 C 5.9375 -1.789062 6.039062 -1.476562 6.25 -1.3125 C 6.457031 -1.144531 6.851562 -1.0625 7.4375 -1.0625 C 9.8125 -1.0625 11.691406 -1.457031 13.078125 -2.25 C 15.421875 -3.613281 16.59375 -6.003906 16.59375 -9.421875 Z M 16.59375 -9.421875 "/></g></g></g></svg>