<svg width="349" height="131" viewBox="0 0 349 131" fill="none" xmlns="http://www.w3.org/2000/svg">
<path d="M0.84 22V12.2H1.82V21.02H6.321V22H0.84ZM10.2227 22.182C9.57873 22.182 8.99073 22.0163 8.45873 21.685C7.9314 21.3537 7.50907 20.9103 7.19173 20.355C6.87907 19.795 6.72273 19.1767 6.72273 18.5C6.72273 17.9867 6.81373 17.5083 6.99573 17.065C7.17773 16.617 7.4274 16.225 7.74473 15.889C8.06673 15.5483 8.44007 15.2823 8.86473 15.091C9.2894 14.8997 9.74207 14.804 10.2227 14.804C10.7407 14.804 11.2167 14.9067 11.6507 15.112C12.0894 15.3173 12.4651 15.6043 12.7777 15.973C13.0951 16.3417 13.3331 16.7733 13.4917 17.268C13.6551 17.7627 13.7227 18.297 13.6947 18.871H7.75873C7.81473 19.3143 7.95473 19.711 8.17873 20.061C8.4074 20.411 8.69673 20.6887 9.04673 20.894C9.4014 21.0947 9.7934 21.1973 10.2227 21.202C10.6894 21.202 11.1094 21.0807 11.4827 20.838C11.8607 20.5953 12.1641 20.2617 12.3927 19.837L13.3867 20.068C13.1067 20.6887 12.6844 21.1973 12.1197 21.594C11.5551 21.986 10.9227 22.182 10.2227 22.182ZM7.73073 18.08H12.7077C12.6751 17.646 12.5421 17.2493 12.3087 16.89C12.0801 16.526 11.7837 16.2367 11.4197 16.022C11.0557 15.8027 10.6567 15.693 10.2227 15.693C9.78873 15.693 9.39207 15.8003 9.03273 16.015C8.6734 16.225 8.3794 16.512 8.15073 16.876C7.92207 17.2353 7.78207 17.6367 7.73073 18.08ZM18.3486 15.98H16.6756L16.6686 22H15.6886L15.6956 15.98H14.4286V15H15.6956L15.6886 12.802H16.6686L16.6756 15H18.3486V15.98Z" fill="#FFF2E2"/>
<circle cx="95.5" cy="17.5" r="6.5" fill="#D9D9D9"/>
<circle cx="122.5" cy="17.5" r="6.5" fill="#D9D9D9"/>
<circle cx="149.5" cy="17.5" r="6.5" fill="#D9D9D9"/>
<circle cx="176.5" cy="17.5" r="6.5" fill="#457E33"/>
<circle cx="203.5" cy="17.5" r="6.5" fill="#D9D9D9"/>
<circle cx="230.5" cy="17.5" r="6.5" fill="#D9D9D9"/>
<circle cx="257.5" cy="17.5" r="6.5" fill="#D9D9D9"/>
<path d="M305.133 22H303.866L300.653 17.597L299.82 18.598V22H298.84V12.2H299.82V17.072L303.901 12.2H305.182L301.297 16.827L305.133 22ZM306.305 22V15H307.285V15.966C307.532 15.6113 307.854 15.329 308.251 15.119C308.648 14.909 309.079 14.804 309.546 14.804C309.817 14.804 310.078 14.839 310.33 14.909L309.931 15.882C309.735 15.8213 309.544 15.791 309.357 15.791C308.979 15.791 308.631 15.8843 308.314 16.071C308.001 16.2577 307.752 16.5073 307.565 16.82C307.378 17.1327 307.285 17.4803 307.285 17.863V22H306.305ZM316.598 15H317.578V22H316.598L316.563 20.698C316.334 21.1413 316.015 21.5007 315.604 21.776C315.193 22.0467 314.703 22.182 314.134 22.182C313.621 22.182 313.14 22.0863 312.692 21.895C312.244 21.699 311.85 21.4307 311.509 21.09C311.168 20.7493 310.902 20.355 310.711 19.907C310.52 19.459 310.424 18.9783 310.424 18.465C310.424 17.961 310.517 17.4873 310.704 17.044C310.895 16.6007 311.157 16.211 311.488 15.875C311.824 15.539 312.211 15.2777 312.65 15.091C313.093 14.8997 313.567 14.804 314.071 14.804C314.654 14.804 315.163 14.944 315.597 15.224C316.031 15.4993 316.376 15.861 316.633 16.309L316.598 15ZM314.113 21.23C314.612 21.23 315.042 21.1087 315.401 20.866C315.76 20.6187 316.036 20.2873 316.227 19.872C316.423 19.4567 316.521 18.9993 316.521 18.5C316.521 17.9867 316.423 17.5247 316.227 17.114C316.031 16.6987 315.753 16.3697 315.394 16.127C315.035 15.8843 314.608 15.763 314.113 15.763C313.618 15.763 313.166 15.8867 312.755 16.134C312.349 16.3767 312.025 16.7057 311.782 17.121C311.544 17.5363 311.425 17.996 311.425 18.5C311.425 19.0087 311.549 19.4707 311.796 19.886C312.043 20.2967 312.37 20.6233 312.776 20.866C313.187 21.1087 313.632 21.23 314.113 21.23ZM320.428 13.173V15H322.528V15.98H320.428V22H319.448V15.98H318.489V15H319.448V13.173C319.448 12.8323 319.529 12.5243 319.693 12.249C319.861 11.969 320.085 11.7473 320.365 11.584C320.645 11.416 320.955 11.332 321.296 11.332C321.543 11.332 321.781 11.381 322.01 11.479C322.243 11.577 322.451 11.7217 322.633 11.913L321.933 12.606C321.858 12.5127 321.762 12.4403 321.646 12.389C321.534 12.3377 321.417 12.312 321.296 12.312C321.058 12.312 320.852 12.396 320.68 12.564C320.512 12.732 320.428 12.935 320.428 13.173ZM327.464 15.98H325.791L325.784 22H324.804L324.811 15.98H323.544V15H324.811L324.804 12.802H325.784L325.791 15H327.464V15.98ZM328.658 15H329.638V22H328.658V15ZM329.155 13.775C328.997 13.775 328.861 13.7237 328.749 13.621C328.642 13.5137 328.588 13.3807 328.588 13.222C328.588 13.0633 328.642 12.9327 328.749 12.83C328.861 12.7227 328.997 12.669 329.155 12.669C329.309 12.669 329.44 12.7227 329.547 12.83C329.659 12.9327 329.715 13.0633 329.715 13.222C329.715 13.3807 329.662 13.5137 329.554 13.621C329.447 13.7237 329.314 13.775 329.155 13.775ZM336.821 15H337.801V22.259C337.801 22.707 337.703 23.127 337.507 23.519C337.316 23.911 337.054 24.254 336.723 24.548C336.396 24.8467 336.023 25.08 335.603 25.248C335.183 25.416 334.747 25.5 334.294 25.5C333.809 25.5 333.34 25.388 332.887 25.164C332.434 24.9447 332.04 24.6507 331.704 24.282C331.373 23.9133 331.137 23.505 330.997 23.057L331.9 22.644C331.989 22.994 332.154 23.309 332.397 23.589C332.644 23.8737 332.934 24.0977 333.265 24.261C333.601 24.429 333.944 24.513 334.294 24.513C334.616 24.513 334.926 24.4523 335.225 24.331C335.528 24.2143 335.799 24.0533 336.037 23.848C336.28 23.6427 336.471 23.4023 336.611 23.127C336.751 22.8563 336.821 22.567 336.821 22.259V20.712C336.578 21.1507 336.249 21.5053 335.834 21.776C335.423 22.0467 334.945 22.182 334.399 22.182C333.909 22.182 333.447 22.0863 333.013 21.895C332.584 21.7037 332.206 21.44 331.879 21.104C331.552 20.7633 331.296 20.3713 331.109 19.928C330.927 19.4847 330.836 19.0087 330.836 18.5C330.836 17.9913 330.927 17.5153 331.109 17.072C331.296 16.624 331.552 16.232 331.879 15.896C332.206 15.5553 332.584 15.2893 333.013 15.098C333.447 14.9067 333.909 14.811 334.399 14.811C334.945 14.811 335.423 14.9463 335.834 15.217C336.249 15.483 336.578 15.8377 336.821 16.281V15ZM334.406 21.23C334.891 21.23 335.309 21.104 335.659 20.852C336.014 20.6 336.287 20.2663 336.478 19.851C336.669 19.4357 336.765 18.9853 336.765 18.5C336.765 18.0007 336.667 17.5457 336.471 17.135C336.28 16.7197 336.007 16.3883 335.652 16.141C335.297 15.889 334.882 15.763 334.406 15.763C333.93 15.763 333.496 15.8867 333.104 16.134C332.717 16.3767 332.409 16.7057 332.18 17.121C331.951 17.5363 331.837 17.996 331.837 18.5C331.837 19.004 331.954 19.4637 332.187 19.879C332.42 20.2897 332.731 20.6187 333.118 20.866C333.51 21.1087 333.939 21.23 334.406 21.23Z" fill="#FFF2E2"/>
<path d="M8.253 60.2V61.18H4.893V70H3.913V61.18H0.56V60.2H8.253ZM9.88061 70.385L9.15261 69.965L9.49561 69.384C9.08494 69.048 8.75594 68.6303 8.50861 68.131C8.26594 67.627 8.14461 67.0833 8.14461 66.5C8.14461 65.9867 8.23561 65.5083 8.41761 65.065C8.59961 64.617 8.84928 64.225 9.16661 63.889C9.48861 63.5483 9.86194 63.2823 10.2866 63.091C10.7113 62.8997 11.1639 62.804 11.6446 62.804C11.9059 62.804 12.1579 62.8343 12.4006 62.895C12.6433 62.951 12.8719 63.0327 13.0866 63.14L13.4156 62.587L14.1436 63.007L13.8076 63.595C14.2136 63.931 14.5379 64.351 14.7806 64.855C15.0233 65.3543 15.1446 65.9027 15.1446 66.5C15.1446 67.0087 15.0536 67.4847 14.8716 67.928C14.6896 68.3713 14.4376 68.7633 14.1156 69.104C13.7983 69.44 13.4273 69.7037 13.0026 69.895C12.5826 70.0863 12.1299 70.182 11.6446 70.182C11.3879 70.182 11.1359 70.1493 10.8886 70.084C10.6459 70.0233 10.4149 69.9417 10.1956 69.839L9.88061 70.385ZM9.97861 68.544L12.6316 63.938C12.2116 63.7467 11.7916 63.6813 11.3716 63.742C10.9516 63.8027 10.5666 63.9613 10.2166 64.218C9.87128 64.4747 9.59361 64.8037 9.38361 65.205C9.17361 65.6063 9.06861 66.052 9.06861 66.542C9.06861 66.9527 9.15028 67.3307 9.31361 67.676C9.48161 68.0213 9.70328 68.3107 9.97861 68.544ZM10.6576 69.041C11.0916 69.2323 11.5186 69.2977 11.9386 69.237C12.3633 69.1763 12.7459 69.0177 13.0866 68.761C13.4319 68.5043 13.7073 68.1777 13.9126 67.781C14.1179 67.3797 14.2206 66.9387 14.2206 66.458C14.2206 66.0473 14.1389 65.667 13.9756 65.317C13.8123 64.967 13.5929 64.673 13.3176 64.435L10.6576 69.041ZM16.3302 70V63H17.3102V63.966C17.5576 63.6113 17.8796 63.329 18.2762 63.119C18.6729 62.909 19.1046 62.804 19.5712 62.804C19.8419 62.804 20.1032 62.839 20.3552 62.909L19.9562 63.882C19.7602 63.8213 19.5689 63.791 19.3822 63.791C19.0042 63.791 18.6566 63.8843 18.3392 64.071C18.0266 64.2577 17.7769 64.5073 17.5902 64.82C17.4036 65.1327 17.3102 65.4803 17.3102 65.863V70H16.3302Z" fill="#FFF2E2"/>
<circle cx="94.5" cy="65.5" r="6.5" fill="#D9D9D9"/>
<circle cx="121.5" cy="65.5" r="6.5" fill="#457E33"/>
<circle cx="148.5" cy="65.5" r="6.5" fill="#D9D9D9"/>
<circle cx="175.5" cy="65.5" r="6.5" fill="#D9D9D9"/>
<circle cx="202.5" cy="65.5" r="6.5" fill="#D9D9D9"/>
<circle cx="229.5" cy="65.5" r="6.5" fill="#D9D9D9"/>
<circle cx="256.5" cy="65.5" r="6.5" fill="#D9D9D9"/>
<path d="M303.263 70.182C302.74 70.182 302.234 70.1003 301.744 69.937C301.259 69.7737 300.834 69.5403 300.47 69.237C300.106 68.9337 299.849 68.572 299.7 68.152L300.617 67.809C300.72 68.0983 300.906 68.348 301.177 68.558C301.452 68.7633 301.772 68.922 302.136 69.034C302.505 69.146 302.88 69.202 303.263 69.202C303.711 69.202 304.129 69.1273 304.516 68.978C304.903 68.8287 305.216 68.621 305.454 68.355C305.692 68.0843 305.811 67.767 305.811 67.403C305.811 67.0343 305.687 66.731 305.44 66.493C305.193 66.255 304.873 66.0683 304.481 65.933C304.094 65.793 303.688 65.6857 303.263 65.611C302.596 65.4943 301.996 65.3357 301.464 65.135C300.937 64.9343 300.519 64.652 300.211 64.288C299.903 63.9193 299.749 63.434 299.749 62.832C299.749 62.2673 299.912 61.7773 300.239 61.362C300.566 60.9467 300.995 60.6247 301.527 60.396C302.064 60.1673 302.642 60.053 303.263 60.053C303.772 60.053 304.269 60.1323 304.754 60.291C305.239 60.4497 305.666 60.6807 306.035 60.984C306.408 61.2873 306.677 61.6583 306.84 62.097L305.909 62.433C305.806 62.139 305.617 61.8893 305.342 61.684C305.071 61.474 304.754 61.3153 304.39 61.208C304.026 61.096 303.65 61.04 303.263 61.04C302.82 61.0353 302.404 61.11 302.017 61.264C301.634 61.4133 301.324 61.6233 301.086 61.894C300.848 62.16 300.729 62.4727 300.729 62.832C300.729 63.252 300.839 63.5763 301.058 63.805C301.282 64.029 301.585 64.197 301.968 64.309C302.351 64.421 302.782 64.5213 303.263 64.61C303.888 64.7173 304.469 64.8853 305.006 65.114C305.543 65.338 305.974 65.639 306.301 66.017C306.628 66.3903 306.791 66.8523 306.791 67.403C306.791 67.963 306.628 68.453 306.301 68.873C305.974 69.2883 305.543 69.6103 305.006 69.839C304.474 70.0677 303.893 70.182 303.263 70.182ZM309.605 70.385L308.877 69.965L309.22 69.384C308.81 69.048 308.481 68.6303 308.233 68.131C307.991 67.627 307.869 67.0833 307.869 66.5C307.869 65.9867 307.96 65.5083 308.142 65.065C308.324 64.617 308.574 64.225 308.891 63.889C309.213 63.5483 309.587 63.2823 310.011 63.091C310.436 62.8997 310.889 62.804 311.369 62.804C311.631 62.804 311.883 62.8343 312.125 62.895C312.368 62.951 312.597 63.0327 312.811 63.14L313.14 62.587L313.868 63.007L313.532 63.595C313.938 63.931 314.263 64.351 314.505 64.855C314.748 65.3543 314.869 65.9027 314.869 66.5C314.869 67.0087 314.778 67.4847 314.596 67.928C314.414 68.3713 314.162 68.7633 313.84 69.104C313.523 69.44 313.152 69.7037 312.727 69.895C312.307 70.0863 311.855 70.182 311.369 70.182C311.113 70.182 310.861 70.1493 310.613 70.084C310.371 70.0233 310.14 69.9417 309.92 69.839L309.605 70.385ZM309.703 68.544L312.356 63.938C311.936 63.7467 311.516 63.6813 311.096 63.742C310.676 63.8027 310.291 63.9613 309.941 64.218C309.596 64.4747 309.318 64.8037 309.108 65.205C308.898 65.6063 308.793 66.052 308.793 66.542C308.793 66.9527 308.875 67.3307 309.038 67.676C309.206 68.0213 309.428 68.3107 309.703 68.544ZM310.382 69.041C310.816 69.2323 311.243 69.2977 311.663 69.237C312.088 69.1763 312.471 69.0177 312.811 68.761C313.157 68.5043 313.432 68.1777 313.637 67.781C313.843 67.3797 313.945 66.9387 313.945 66.458C313.945 66.0473 313.864 65.667 313.7 65.317C313.537 64.967 313.318 64.673 313.042 64.435L310.382 69.041ZM321.747 59.5H322.727V70H321.747V68.691C321.505 69.139 321.171 69.5007 320.746 69.776C320.326 70.0467 319.827 70.182 319.248 70.182C318.74 70.182 318.264 70.0863 317.82 69.895C317.377 69.7037 316.985 69.44 316.644 69.104C316.308 68.7633 316.045 68.3713 315.853 67.928C315.662 67.4847 315.566 67.0087 315.566 66.5C315.566 65.9913 315.662 65.5153 315.853 65.072C316.045 64.624 316.308 64.232 316.644 63.896C316.985 63.5553 317.377 63.2893 317.82 63.098C318.264 62.9067 318.74 62.811 319.248 62.811C319.827 62.811 320.326 62.9487 320.746 63.224C321.171 63.4947 321.505 63.8517 321.747 64.295V59.5ZM319.255 69.23C319.755 69.23 320.184 69.1087 320.543 68.866C320.903 68.6187 321.178 68.2873 321.369 67.872C321.565 67.4567 321.663 66.9993 321.663 66.5C321.663 65.9867 321.565 65.5247 321.369 65.114C321.173 64.6987 320.896 64.3697 320.536 64.127C320.177 63.8843 319.75 63.763 319.255 63.763C318.761 63.763 318.31 63.8867 317.904 64.134C317.498 64.3767 317.174 64.7057 316.931 65.121C316.689 65.5363 316.567 65.996 316.567 66.5C316.567 67.0087 316.691 67.4707 316.938 67.886C317.186 68.2967 317.512 68.6233 317.918 68.866C318.329 69.1087 318.775 69.23 319.255 69.23Z" fill="#FFF2E2"/>
<path d="M0.84 118V108.2H1.82V117.02H6.321V118H0.84ZM12.8967 111H13.8767V118H12.8967L12.8617 116.698C12.6331 117.141 12.3134 117.501 11.9027 117.776C11.4921 118.047 11.0021 118.182 10.4327 118.182C9.9194 118.182 9.43873 118.086 8.99073 117.895C8.54273 117.699 8.1484 117.431 7.80773 117.09C7.46707 116.749 7.20107 116.355 7.00973 115.907C6.8184 115.459 6.72273 114.978 6.72273 114.465C6.72273 113.961 6.81607 113.487 7.00273 113.044C7.19407 112.601 7.4554 112.211 7.78673 111.875C8.12273 111.539 8.51007 111.278 8.94873 111.091C9.39207 110.9 9.86573 110.804 10.3697 110.804C10.9531 110.804 11.4617 110.944 11.8957 111.224C12.3297 111.499 12.6751 111.861 12.9317 112.309L12.8967 111ZM10.4117 117.23C10.9111 117.23 11.3404 117.109 11.6997 116.866C12.0591 116.619 12.3344 116.287 12.5257 115.872C12.7217 115.457 12.8197 114.999 12.8197 114.5C12.8197 113.987 12.7217 113.525 12.5257 113.114C12.3297 112.699 12.0521 112.37 11.6927 112.127C11.3334 111.884 10.9064 111.763 10.4117 111.763C9.91707 111.763 9.4644 111.887 9.05373 112.134C8.64773 112.377 8.3234 112.706 8.08073 113.121C7.84273 113.536 7.72373 113.996 7.72373 114.5C7.72373 115.009 7.8474 115.471 8.09473 115.886C8.34207 116.297 8.66873 116.623 9.07473 116.866C9.4854 117.109 9.93107 117.23 10.4117 117.23ZM18.5218 118H17.2758L14.7208 110.979H15.7638L17.8988 116.852L20.0338 110.979H21.0768L18.5218 118ZM27.8585 118.133C27.4758 118.124 27.1025 118.054 26.7385 117.923C26.3745 117.792 26.0571 117.615 25.7865 117.391C25.5158 117.167 25.3221 116.913 25.2055 116.628L26.0525 116.264C26.1271 116.446 26.2648 116.614 26.4655 116.768C26.6708 116.917 26.9041 117.039 27.1655 117.132C27.4268 117.221 27.6858 117.265 27.9425 117.265C28.2271 117.265 28.4931 117.218 28.7405 117.125C28.9878 117.032 29.1885 116.899 29.3425 116.726C29.5011 116.549 29.5805 116.341 29.5805 116.103C29.5805 115.846 29.4965 115.646 29.3285 115.501C29.1605 115.352 28.9481 115.235 28.6915 115.151C28.4348 115.062 28.1711 114.978 27.9005 114.899C27.4058 114.764 26.9695 114.614 26.5915 114.451C26.2135 114.288 25.9171 114.08 25.7025 113.828C25.4925 113.571 25.3875 113.242 25.3875 112.841C25.3875 112.416 25.5065 112.05 25.7445 111.742C25.9871 111.429 26.3021 111.189 26.6895 111.021C27.0815 110.848 27.4991 110.762 27.9425 110.762C28.5118 110.762 29.0298 110.886 29.4965 111.133C29.9678 111.38 30.3085 111.709 30.5185 112.12L29.7275 112.589C29.6435 112.398 29.5105 112.232 29.3285 112.092C29.1465 111.952 28.9388 111.842 28.7055 111.763C28.4768 111.684 28.2435 111.642 28.0055 111.637C27.7068 111.632 27.4291 111.677 27.1725 111.77C26.9158 111.859 26.7081 111.992 26.5495 112.169C26.3955 112.346 26.3185 112.563 26.3185 112.82C26.3185 113.077 26.3955 113.273 26.5495 113.408C26.7035 113.539 26.9111 113.646 27.1725 113.73C27.4385 113.809 27.7371 113.903 28.0685 114.01C28.4931 114.145 28.8921 114.299 29.2655 114.472C29.6388 114.645 29.9398 114.859 30.1685 115.116C30.3971 115.373 30.5091 115.697 30.5045 116.089C30.5045 116.509 30.3785 116.875 30.1265 117.188C29.8745 117.501 29.5478 117.741 29.1465 117.909C28.7451 118.072 28.3158 118.147 27.8585 118.133ZM36.2737 111H37.3097L33.4807 121.5H32.4377L33.7117 118L31.1987 111H32.2697L34.2017 116.649L36.2737 111ZM38.588 118V111H39.568V111.966C39.8154 111.611 40.1374 111.329 40.534 111.119C40.9307 110.909 41.3624 110.804 41.829 110.804C42.0997 110.804 42.361 110.839 42.613 110.909L42.214 111.882C42.018 111.821 41.8267 111.791 41.64 111.791C41.262 111.791 40.9144 111.884 40.597 112.071C40.2844 112.258 40.0347 112.507 39.848 112.82C39.6614 113.133 39.568 113.48 39.568 113.863V118H38.588ZM46.2071 118.182C45.5631 118.182 44.9751 118.016 44.4431 117.685C43.9158 117.354 43.4934 116.91 43.1761 116.355C42.8634 115.795 42.7071 115.177 42.7071 114.5C42.7071 113.987 42.7981 113.508 42.9801 113.065C43.1621 112.617 43.4118 112.225 43.7291 111.889C44.0511 111.548 44.4244 111.282 44.8491 111.091C45.2738 110.9 45.7264 110.804 46.2071 110.804C46.7251 110.804 47.2011 110.907 47.6351 111.112C48.0738 111.317 48.4494 111.604 48.7621 111.973C49.0794 112.342 49.3174 112.773 49.4761 113.268C49.6394 113.763 49.7071 114.297 49.6791 114.871H43.7431C43.7991 115.314 43.9391 115.711 44.1631 116.061C44.3918 116.411 44.6811 116.689 45.0311 116.894C45.3858 117.095 45.7778 117.197 46.2071 117.202C46.6738 117.202 47.0938 117.081 47.4671 116.838C47.8451 116.595 48.1484 116.262 48.3771 115.837L49.3711 116.068C49.0911 116.689 48.6688 117.197 48.1041 117.594C47.5394 117.986 46.9071 118.182 46.2071 118.182ZM43.7151 114.08H48.6921C48.6594 113.646 48.5264 113.249 48.2931 112.89C48.0644 112.526 47.7681 112.237 47.4041 112.022C47.0401 111.803 46.6411 111.693 46.2071 111.693C45.7731 111.693 45.3764 111.8 45.0171 112.015C44.6578 112.225 44.3638 112.512 44.1351 112.876C43.9064 113.235 43.7664 113.637 43.7151 114.08Z" fill="#FFF2E2"/>
<circle cx="94.5" cy="113.5" r="6.5" fill="#D9D9D9"/>
<circle cx="121.5" cy="113.5" r="6.5" fill="#D9D9D9"/>
<circle cx="148.5" cy="113.5" r="6.5" fill="#D9D9D9"/>
<circle cx="175.5" cy="113.5" r="6.5" fill="#457E33"/>
<circle cx="202.5" cy="113.5" r="6.5" fill="#D9D9D9"/>
<circle cx="229.5" cy="113.5" r="6.5" fill="#D9D9D9"/>
<circle cx="256.5" cy="113.5" r="6.5" fill="#D9D9D9"/>
<path d="M306.965 108.2H307.945V118H306.965V113.24H301.82V118H300.84V108.2H301.82V112.26H306.965V108.2ZM310.892 118.385L310.164 117.965L310.507 117.384C310.097 117.048 309.768 116.63 309.52 116.131C309.278 115.627 309.156 115.083 309.156 114.5C309.156 113.987 309.247 113.508 309.429 113.065C309.611 112.617 309.861 112.225 310.178 111.889C310.5 111.548 310.874 111.282 311.298 111.091C311.723 110.9 312.176 110.804 312.656 110.804C312.918 110.804 313.17 110.834 313.412 110.895C313.655 110.951 313.884 111.033 314.098 111.14L314.427 110.587L315.155 111.007L314.819 111.595C315.225 111.931 315.55 112.351 315.792 112.855C316.035 113.354 316.156 113.903 316.156 114.5C316.156 115.009 316.065 115.485 315.883 115.928C315.701 116.371 315.449 116.763 315.127 117.104C314.81 117.44 314.439 117.704 314.014 117.895C313.594 118.086 313.142 118.182 312.656 118.182C312.4 118.182 312.148 118.149 311.9 118.084C311.658 118.023 311.427 117.942 311.207 117.839L310.892 118.385ZM310.99 116.544L313.643 111.938C313.223 111.747 312.803 111.681 312.383 111.742C311.963 111.803 311.578 111.961 311.228 112.218C310.883 112.475 310.605 112.804 310.395 113.205C310.185 113.606 310.08 114.052 310.08 114.542C310.08 114.953 310.162 115.331 310.325 115.676C310.493 116.021 310.715 116.311 310.99 116.544ZM311.669 117.041C312.103 117.232 312.53 117.298 312.95 117.237C313.375 117.176 313.758 117.018 314.098 116.761C314.444 116.504 314.719 116.178 314.924 115.781C315.13 115.38 315.232 114.939 315.232 114.458C315.232 114.047 315.151 113.667 314.987 113.317C314.824 112.967 314.605 112.673 314.329 112.435L311.669 117.041ZM315.874 121.5V120.52C316.224 120.52 316.536 120.443 316.812 120.289C317.087 120.135 317.304 119.923 317.463 119.652C317.621 119.386 317.701 119.087 317.701 118.756V111H318.681V118.756C318.681 119.26 318.557 119.72 318.31 120.135C318.067 120.55 317.733 120.882 317.309 121.129C316.889 121.376 316.41 121.5 315.874 121.5ZM318.198 109.775C318.039 109.775 317.904 109.724 317.792 109.621C317.684 109.514 317.631 109.381 317.631 109.222C317.631 109.063 317.684 108.933 317.792 108.83C317.904 108.723 318.039 108.669 318.198 108.669C318.352 108.669 318.482 108.723 318.59 108.83C318.702 108.933 318.758 109.063 318.758 109.222C318.758 109.381 318.704 109.514 318.597 109.621C318.489 109.724 318.356 109.775 318.198 109.775ZM325.89 118.133C325.507 118.124 325.134 118.054 324.77 117.923C324.406 117.792 324.088 117.615 323.818 117.391C323.547 117.167 323.353 116.913 323.237 116.628L324.084 116.264C324.158 116.446 324.296 116.614 324.497 116.768C324.702 116.917 324.935 117.039 325.197 117.132C325.458 117.221 325.717 117.265 325.974 117.265C326.258 117.265 326.524 117.218 326.772 117.125C327.019 117.032 327.22 116.899 327.374 116.726C327.532 116.549 327.612 116.341 327.612 116.103C327.612 115.846 327.528 115.646 327.36 115.501C327.192 115.352 326.979 115.235 326.723 115.151C326.466 115.062 326.202 114.978 325.932 114.899C325.437 114.764 325.001 114.614 324.623 114.451C324.245 114.288 323.948 114.08 323.734 113.828C323.524 113.571 323.419 113.242 323.419 112.841C323.419 112.416 323.538 112.05 323.776 111.742C324.018 111.429 324.333 111.189 324.721 111.021C325.113 110.848 325.53 110.762 325.974 110.762C326.543 110.762 327.061 110.886 327.528 111.133C327.999 111.38 328.34 111.709 328.55 112.12L327.759 112.589C327.675 112.398 327.542 112.232 327.36 112.092C327.178 111.952 326.97 111.842 326.737 111.763C326.508 111.684 326.275 111.642 326.037 111.637C325.738 111.632 325.46 111.677 325.204 111.77C324.947 111.859 324.739 111.992 324.581 112.169C324.427 112.346 324.35 112.563 324.35 112.82C324.35 113.077 324.427 113.273 324.581 113.408C324.735 113.539 324.942 113.646 325.204 113.73C325.47 113.809 325.768 113.903 326.1 114.01C326.524 114.145 326.923 114.299 327.297 114.472C327.67 114.645 327.971 114.859 328.2 115.116C328.428 115.373 328.54 115.697 328.536 116.089C328.536 116.509 328.41 116.875 328.158 117.188C327.906 117.501 327.579 117.741 327.178 117.909C326.776 118.072 326.347 118.147 325.89 118.133ZM334.305 111H335.341L331.512 121.5H330.469L331.743 118L329.23 111H330.301L332.233 116.649L334.305 111ZM336.619 118V111H337.599V111.966C337.847 111.611 338.169 111.329 338.565 111.119C338.962 110.909 339.394 110.804 339.86 110.804C340.131 110.804 340.392 110.839 340.644 110.909L340.245 111.882C340.049 111.821 339.858 111.791 339.671 111.791C339.293 111.791 338.946 111.884 338.628 112.071C338.316 112.258 338.066 112.507 337.879 112.82C337.693 113.133 337.599 113.48 337.599 113.863V118H336.619ZM344.238 118.182C343.594 118.182 343.006 118.016 342.474 117.685C341.947 117.354 341.525 116.91 341.207 116.355C340.895 115.795 340.738 115.177 340.738 114.5C340.738 113.987 340.829 113.508 341.011 113.065C341.193 112.617 341.443 112.225 341.76 111.889C342.082 111.548 342.456 111.282 342.88 111.091C343.305 110.9 343.758 110.804 344.238 110.804C344.756 110.804 345.232 110.907 345.666 111.112C346.105 111.317 346.481 111.604 346.793 111.973C347.111 112.342 347.349 112.773 347.507 113.268C347.671 113.763 347.738 114.297 347.71 114.871H341.774C341.83 115.314 341.97 115.711 342.194 116.061C342.423 116.411 342.712 116.689 343.062 116.894C343.417 117.095 343.809 117.197 344.238 117.202C344.705 117.202 345.125 117.081 345.498 116.838C345.876 116.595 346.18 116.262 346.408 115.837L347.402 116.068C347.122 116.689 346.7 117.197 346.135 117.594C345.571 117.986 344.938 118.182 344.238 118.182ZM341.746 114.08H346.723C346.691 113.646 346.558 113.249 346.324 112.89C346.096 112.526 345.799 112.237 345.435 112.022C345.071 111.803 344.672 111.693 344.238 111.693C343.804 111.693 343.408 111.8 343.048 112.015C342.689 112.225 342.395 112.512 342.166 112.876C341.938 113.235 341.798 113.637 341.746 114.08Z" fill="#FFF2E2"/>
</svg>
