<svg width="34" height="36" viewBox="0 0 34 36" fill="none" xmlns="http://www.w3.org/2000/svg">
<g clip-path="url(#clip0_430_1767)">
<path d="M5.66671 33H28.3334C29.8917 33 31.1667 31.65 31.1667 30V10.5H25.3725C24.6947 6.2505 21.2033 3 17 3C12.7968 3 9.30542 6.2505 8.62825 10.5H2.83337V30C2.83337 31.65 4.10837 33 5.66671 33ZM17 6C19.6343 6 21.8486 7.91625 22.4804 10.5H11.5197C12.1515 7.91625 14.3657 6 17 6ZM8.50004 13.5V16.5H11.3334V13.5H22.6667V16.5H25.5V13.5H28.3334V30H5.66671V13.5H8.50004Z" fill="#50320C"/>
</g>
<path d="M8.125 27.095C7.855 27.085 7.59167 27.035 7.335 26.945C7.08167 26.8517 6.85833 26.7267 6.665 26.57C6.475 26.41 6.33667 26.2267 6.25 26.02L6.97 25.71C7.02 25.8233 7.11 25.93 7.24 26.03C7.37 26.13 7.52 26.21 7.69 26.27C7.86 26.33 8.03167 26.36 8.205 26.36C8.38833 26.36 8.56 26.3317 8.72 26.275C8.88 26.2183 9.01 26.135 9.11 26.025C9.21333 25.9117 9.265 25.7767 9.265 25.62C9.265 25.4533 9.20833 25.3233 9.095 25.23C8.985 25.1333 8.845 25.0583 8.675 25.005C8.50833 24.9483 8.33833 24.895 8.165 24.845C7.82167 24.7583 7.515 24.655 7.245 24.535C6.975 24.4117 6.76167 24.2567 6.605 24.07C6.45167 23.88 6.375 23.6383 6.375 23.345C6.375 23.035 6.46 22.7667 6.63 22.54C6.80333 22.3133 7.03 22.1383 7.31 22.015C7.59 21.8917 7.89 21.83 8.21 21.83C8.61333 21.83 8.98167 21.9167 9.315 22.09C9.64833 22.2633 9.89667 22.4983 10.06 22.795L9.385 23.19C9.32833 23.07 9.24167 22.965 9.125 22.875C9.00833 22.7817 8.875 22.7083 8.725 22.655C8.575 22.6017 8.42167 22.5733 8.265 22.57C8.07167 22.5633 7.89 22.5883 7.72 22.645C7.55333 22.7017 7.41833 22.7883 7.315 22.905C7.215 23.0183 7.165 23.16 7.165 23.33C7.165 23.4967 7.21833 23.6233 7.325 23.71C7.435 23.7967 7.57667 23.8667 7.75 23.92C7.92667 23.97 8.11833 24.0283 8.325 24.095C8.62833 24.1917 8.91167 24.3033 9.175 24.43C9.43833 24.5567 9.65 24.715 9.81 24.905C9.97333 25.095 10.0533 25.33 10.05 25.61C10.05 25.9167 9.95833 26.185 9.775 26.415C9.59167 26.6417 9.35333 26.815 9.06 26.935C8.77 27.055 8.45833 27.1083 8.125 27.095ZM15.3266 23.89V27H14.4866V24.075C14.4866 23.8217 14.425 23.5917 14.3016 23.385C14.1783 23.1783 14.0133 23.015 13.8066 22.895C13.6 22.7717 13.37 22.71 13.1166 22.71C12.8666 22.71 12.6366 22.7717 12.4266 22.895C12.22 23.015 12.055 23.1783 11.9316 23.385C11.8083 23.5917 11.7466 23.8217 11.7466 24.075V27H10.9066V19.5H11.7466V22.625C11.9233 22.3917 12.1466 22.2067 12.4166 22.07C12.6866 21.93 12.98 21.86 13.2966 21.86C13.67 21.86 14.01 21.9517 14.3166 22.135C14.6266 22.315 14.8716 22.5583 15.0516 22.865C15.235 23.1717 15.3266 23.5133 15.3266 23.89ZM18.4289 27.13C17.9689 27.13 17.5489 27.0117 17.1689 26.775C16.7922 26.5383 16.4906 26.2217 16.2639 25.825C16.0406 25.425 15.9289 24.9833 15.9289 24.5C15.9289 24.1333 15.9939 23.7917 16.1239 23.475C16.2539 23.155 16.4322 22.875 16.6589 22.635C16.8889 22.3917 17.1556 22.2017 17.4589 22.065C17.7622 21.9283 18.0856 21.86 18.4289 21.86C18.8889 21.86 19.3072 21.9783 19.6839 22.215C20.0639 22.4517 20.3656 22.77 20.5889 23.17C20.8156 23.57 20.9289 24.0133 20.9289 24.5C20.9289 24.8633 20.8639 25.2033 20.7339 25.52C20.6039 25.8367 20.4239 26.1167 20.1939 26.36C19.9672 26.6 19.7022 26.7883 19.3989 26.925C19.0989 27.0617 18.7756 27.13 18.4289 27.13ZM18.4289 26.29C18.7422 26.29 19.0239 26.2083 19.2739 26.045C19.5272 25.8783 19.7256 25.66 19.8689 25.39C20.0156 25.1167 20.0889 24.82 20.0889 24.5C20.0889 24.1733 20.0139 23.8733 19.8639 23.6C19.7172 23.3267 19.5189 23.1083 19.2689 22.945C19.0189 22.7817 18.7389 22.7 18.4289 22.7C18.1156 22.7 17.8339 22.7833 17.5839 22.95C17.3339 23.1133 17.1356 23.3317 16.9889 23.605C16.8422 23.8783 16.7689 24.1767 16.7689 24.5C16.7689 24.8333 16.8439 25.1367 16.9939 25.41C17.1439 25.68 17.3456 25.895 17.5989 26.055C17.8522 26.2117 18.1289 26.29 18.4289 26.29ZM22.5963 29.5H21.7563V22H22.5963V22.855C22.7663 22.5617 22.9929 22.325 23.2763 22.145C23.5596 21.9617 23.8963 21.87 24.2863 21.87C24.6496 21.87 24.9896 21.9383 25.3063 22.075C25.6263 22.2117 25.9063 22.4017 26.1463 22.645C26.3863 22.885 26.5746 23.1633 26.7113 23.48C26.8479 23.7967 26.9163 24.1367 26.9163 24.5C26.9163 24.8633 26.8479 25.205 26.7113 25.525C26.5746 25.845 26.3863 26.1267 26.1463 26.37C25.9063 26.61 25.6263 26.7983 25.3063 26.935C24.9896 27.0717 24.6496 27.14 24.2863 27.14C23.8963 27.14 23.5596 27.05 23.2763 26.87C22.9929 26.6867 22.7663 26.4483 22.5963 26.155V29.5ZM24.2763 22.685C23.9529 22.685 23.6696 22.7667 23.4263 22.93C23.1829 23.0933 22.9946 23.3117 22.8613 23.585C22.7313 23.8583 22.6663 24.1633 22.6663 24.5C22.6663 24.8333 22.7313 25.1383 22.8613 25.415C22.9946 25.6917 23.1813 25.9117 23.4213 26.075C23.6646 26.2383 23.9496 26.32 24.2763 26.32C24.5996 26.32 24.8963 26.24 25.1663 26.08C25.4363 25.9167 25.6529 25.6983 25.8163 25.425C25.9796 25.1483 26.0613 24.84 26.0613 24.5C26.0613 24.1667 25.9813 23.8633 25.8213 23.59C25.6613 23.3133 25.4463 23.0933 25.1763 22.93C24.9063 22.7667 24.6063 22.685 24.2763 22.685Z" fill="#50320C"/>
<defs>
<clipPath id="clip0_430_1767">
<rect width="34" height="36" fill="white"/>
</clipPath>
</defs>
</svg>
