<svg width="36" height="36" viewBox="0 0 36 36" fill="none" xmlns="http://www.w3.org/2000/svg">
<path d="M18.714 27.051C18.714 25.4205 20.0475 24.0675 21.696 24.0675C23.346 24.0675 24.6795 25.4205 24.6795 27.051C24.6793 27.8421 24.3649 28.6007 23.8054 29.1599C23.2459 29.7191 22.4871 30.0332 21.696 30.033C20.905 30.0328 20.1464 29.7184 19.5871 29.1588C19.0279 28.5993 18.7138 27.8421 18.714 27.051ZM18.0645 36C16.4145 36 15.0825 34.647 15.0825 33.0165C15.0825 31.368 16.416 30.0345 18.0645 30.0345C19.695 30.0345 21.048 31.368 21.048 33.0165C21.0425 33.8061 20.7265 34.5617 20.1681 35.1201C19.6098 35.6784 18.8541 35.9945 18.0645 36ZM7.80005 21.0105C7.80005 19.38 9.13505 18.0285 10.7835 18.0285C12.414 18.0285 13.767 19.38 13.767 21.0105C13.767 21.8018 13.4527 22.5606 12.8932 23.1202C12.3337 23.6797 11.5748 23.994 10.7835 23.994C9.99228 23.994 9.23341 23.6797 8.6739 23.1202C8.11438 22.5606 7.80005 21.8018 7.80005 21.0105ZM14.3775 12.1725C16.0275 12.1725 17.361 13.5255 17.361 15.156C17.361 16.806 16.026 18.12 14.3775 18.12C12.729 18.12 11.3955 16.8045 11.3955 15.156C11.3955 13.5255 12.729 12.1725 14.3775 12.1725ZM17.9535 5.892C18.7446 5.892 19.5033 6.20625 20.0627 6.76563C20.622 7.325 20.9363 8.08368 20.9363 8.87475C20.9363 9.66582 20.622 10.4245 20.0627 10.9839C19.5033 11.5432 18.7446 11.8575 17.9535 11.8575C17.1642 11.852 16.4088 11.5361 15.8505 10.9781C15.2922 10.4201 14.9759 9.66481 14.97 8.8755C14.97 7.2255 16.323 5.8905 17.955 5.8905M21.6015 0C23.2515 0 24.5866 1.335 24.5866 2.9835C24.5866 4.614 23.2515 5.9655 21.6015 5.9655C20.8125 5.95961 20.0574 5.64355 19.4995 5.08559C18.9415 4.52762 18.6254 3.77256 18.6195 2.9835C18.6195 1.3335 19.971 0 21.6015 0ZM17.4 27.051C17.4 28.701 16.065 30.0345 14.415 30.0345C13.6245 30.0317 12.8672 29.7163 12.3085 29.157C11.7497 28.5977 11.435 27.84 11.433 27.0495C11.433 25.4205 12.786 24.0675 14.4165 24.0675C16.0665 24.0675 17.4 25.4205 17.4 27.051ZM15.084 21.0105C15.084 19.38 16.4175 18.0285 18.066 18.0285C19.6965 18.0285 21.0495 19.38 21.0495 21.0105C21.0495 22.6605 19.6965 23.994 18.066 23.994C16.416 23.994 15.084 22.659 15.084 21.0105ZM21.6615 18.12C20.0115 18.12 18.6765 16.8045 18.6765 15.156C18.6765 13.5255 20.0115 12.1725 21.6615 12.1725C23.31 12.1725 24.6436 13.5255 24.6436 15.156C24.6436 16.806 23.3085 18.12 21.6615 18.12ZM28.2016 21.0105C28.2016 22.6605 26.8665 23.994 25.218 23.994C24.8263 23.9939 24.4385 23.9167 24.0767 23.7667C23.7148 23.6167 23.3861 23.3969 23.1091 23.1198C22.8322 22.8428 22.6126 22.5139 22.4628 22.152C22.313 21.7901 22.236 21.4022 22.236 21.0105C22.2361 20.6188 22.3134 20.231 22.4634 19.8691C22.6134 19.5073 22.8332 19.1785 23.1102 18.9016C23.3873 18.6247 23.7161 18.4051 24.078 18.2553C24.44 18.1055 24.8278 18.0284 25.2195 18.0285C26.8665 18.0285 28.2016 19.38 28.2016 21.0105Z" fill="#46320B"/>
</svg>
